<?xml version="1.0" standalone="no"?>
<!DOCTYPE svg PUBLIC "-//W3C//DTD SVG 1.1//EN" "http://www.w3.org/Graphics/SVG/1.1/DTD/svg11.dtd" >
<svg xmlns="http://www.w3.org/2000/svg">
<metadata></metadata>
<defs>
<font id="maditaregularregular" horiz-adv-x="1097" >
<font-face units-per-em="2048" ascent="1536" descent="-512" />
<missing-glyph horiz-adv-x="614" />
<glyph unicode="&#xfb01;" horiz-adv-x="1140" d="M76 516q0 293 61.5 520.5t169 351t242.5 123.5q107 0 166 -70t59 -202q0 -213 -99.5 -410t-250.5 -346q15 -74 61.5 -111.5t116.5 -37.5q45 0 86 10t69.5 26t46 29t30.5 27v539h161v-732q0 -114 99 -114q38 0 74.5 24t62 57.5t45.5 67.5t30 58l9 24v-194q-4 -7 -10.5 -19 t-31 -43t-52 -54.5t-72 -43t-92.5 -19.5q-110 0 -166.5 64.5t-56.5 177.5v60q-94 -70 -242 -70h-25q44 -60 71 -107t50 -129t23 -176q0 -128 -67.5 -202t-172.5 -74q-395 0 -395 995zM227 485q67 54 132.5 129.5t126 172.5t98 216.5t37.5 237.5q0 63 -23.5 97t-62.5 34 q-57 0 -112.5 -65t-98.5 -176t-70 -273t-27 -342v-31zM231 330q13 -325 76 -498.5t162 -173.5q43 0 69.5 38t26.5 99q0 78 -19 146t-50 121t-64 100t-68 105.5t-55 115.5q-31 -23 -78 -53zM809 1212q-2 50 26.5 79.5t77.5 29.5q47 0 76 -30t29 -79q0 -51 -28.5 -80.5 t-76.5 -29.5t-76 31.5t-28 78.5z" />
<glyph unicode="&#xfb02;" horiz-adv-x="1470" d="M76 516q0 293 61.5 520.5t169 351t242.5 123.5q107 0 166 -70t59 -202q0 -213 -99.5 -410t-250.5 -346q15 -74 61.5 -111.5t116.5 -37.5q109 0 191 57q-9 70 -9 154q0 265 57 485.5t164 353t244 132.5q110 0 167 -74t57 -213q0 -130 -30.5 -251t-80 -214.5t-117.5 -175.5 t-137.5 -139.5t-144.5 -100.5q55 -229 247 -229q68 0 133 30t107.5 67t82 88.5t54.5 76.5t27 47q2 3 2 4v-201q-6 -10 -17.5 -27.5t-51.5 -61t-84 -77t-114.5 -61t-144.5 -27.5q-296 0 -385 291q-78 -59 -227 -59h-25q44 -60 71 -107t50 -129t23 -176q0 -128 -67.5 -202 t-172.5 -74q-395 0 -395 995zM227 485q67 54 132.5 129.5t126 172.5t98 216.5t37.5 237.5q0 63 -23.5 97t-62.5 34q-57 0 -112.5 -65t-98.5 -176t-70 -273t-27 -342v-31zM231 330q13 -325 76 -498.5t162 -173.5q43 0 69.5 38t26.5 99q0 78 -19 146t-50 121t-64 100 t-68 105.5t-55 115.5q-31 -23 -78 -53zM942 545q0 -37 2 -53q72 46 136.5 113t120 158t88 211t32.5 253q0 145 -84 145q-58 0 -112.5 -67.5t-94.5 -179.5t-64 -265t-24 -315z" />
<glyph horiz-adv-x="2048" />
<glyph horiz-adv-x="2048" />
<glyph unicode="&#xd;" horiz-adv-x="2048" />
<glyph unicode=" "  horiz-adv-x="614" />
<glyph unicode="&#x09;" horiz-adv-x="614" />
<glyph unicode="&#xa0;" horiz-adv-x="614" />
<glyph unicode="!" horiz-adv-x="530" d="M258 102q0 52 29.5 81.5t79.5 29.5q48 0 77 -29.5t29 -81.5q0 -51 -29 -80.5t-77 -29.5q-49 0 -79 31.5t-30 78.5zM285 438v1043h161v-1043h-161z" />
<glyph unicode="&#x22;" horiz-adv-x="784" d="M154 1010v489h165v-489h-165zM465 1010v489h166v-489h-166z" />
<glyph unicode="#" d="M137 518v127h178l21 148h-199v127h217l78 561h146l-78 -561h145l80 561h147l-79 -561h168v-127h-185l-20 -148h205v-127h-224l-71 -518h-148l72 518h-146l-71 -518h-146l72 518h-162zM461 645h147l21 148h-148z" />
<glyph unicode="$" horiz-adv-x="1165" d="M45 473q0 55 8.5 102.5t17.5 68.5l9 20h156q-4 -7 -10 -20t-15.5 -62t-9.5 -107q0 -168 103 -264t294 -96q161 0 260.5 84t99.5 233q0 67 -27 116.5t-72.5 80t-105 53t-125 40.5t-131 37t-125 48t-105 68t-72.5 102t-27 145q0 144 90.5 243t257.5 126v272h152v-264 q91 -3 167.5 -18.5t106.5 -30.5l31 -14v-164q-5 4 -15 10t-43.5 21.5t-70 27.5t-94 21.5t-117.5 9.5q-147 0 -225 -64t-78 -176q0 -60 27 -104t72.5 -70.5t105 -47t125 -38t131 -37t125 -50.5t105 -73t72.5 -110t27 -156q0 -186 -126 -309.5t-326 -144.5v-281h-152v281 q-227 20 -349 153.5t-122 337.5z" />
<glyph unicode="%" horiz-adv-x="1558" d="M74 1130q0 170 91 269.5t236 99.5t236.5 -99.5t91.5 -269.5q0 -169 -89.5 -266.5t-238.5 -97.5t-238 97.5t-89 266.5zM207 1130q0 -117 53 -181t141 -64q87 0 139 64t52 181q0 120 -52.5 185t-138.5 65q-87 0 -140.5 -65t-53.5 -185zM330 0l749 1481h162l-749 -1481h-162 zM829 344q0 170 91 269.5t235 99.5q147 0 238.5 -99t91.5 -270q0 -169 -90 -266.5t-240 -97.5q-148 0 -237 97.5t-89 266.5zM963 344q0 -117 52.5 -181.5t139.5 -64.5q88 0 140.5 64t52.5 182q0 121 -52.5 185.5t-140.5 64.5q-86 0 -139 -64.5t-53 -185.5z" />
<glyph unicode="&#x26;" horiz-adv-x="1304" d="M76 360q0 83 25.5 148.5t74 112t99 77t120.5 60.5q-61 74 -86.5 139.5t-25.5 144.5q0 129 93 211t236 82t229.5 -78.5t86.5 -209.5q0 -55 -17.5 -100.5t-43 -77t-69 -61t-80.5 -48t-93 -41.5l344 -387q94 150 94 358q0 80 -11.5 149t-23.5 97l-12 29h145q5 -12 12 -33.5 t19 -93.5t12 -148q0 -279 -141 -465l199 -225h-205l-103 117q-176 -140 -432 -140q-199 0 -322.5 104t-123.5 279zM240 360q0 -115 77.5 -184.5t208.5 -69.5q204 0 340 111l-385 442q-55 -25 -94 -49.5t-74.5 -60t-54 -83t-18.5 -106.5zM436 1040q0 -57 22 -106.5t81 -118.5 q57 23 94 42t72.5 47t53 63.5t17.5 79.5q0 74 -42.5 116.5t-123.5 42.5q-83 0 -128.5 -46t-45.5 -120z" />
<glyph unicode="'" horiz-adv-x="481" d="M158 1010v489h166v-489h-166z" />
<glyph unicode="(" horiz-adv-x="694" d="M178 676q0 326 124.5 554.5t315.5 305.5v-160q-123 -78 -198.5 -260.5t-75.5 -439.5q0 -256 75.5 -439.5t198.5 -261.5v-159q-191 77 -315.5 305.5t-124.5 554.5z" />
<glyph unicode=")" horiz-adv-x="694" d="M178 -25q123 78 199 262t76 439q0 257 -76 439t-199 259v162q91 -37 170 -113t139.5 -183t95.5 -253t35 -311t-35 -311t-95.5 -253t-139.5 -183t-170 -113v159z" />
<glyph unicode="*" horiz-adv-x="1071" d="M117 1145l47 147l301 -123l-8 330h147l-6 -332l307 123l49 -147l-313 -92l203 -258l-123 -93l-184 275l-183 -273l-125 91l205 260z" />
<glyph unicode="+" d="M137 414v145h338v334h148v-334h338v-145h-338v-332h-148v332h-338z" />
<glyph unicode="," horiz-adv-x="530" d="M176 -266q5 6 13 17.5t28 48t35.5 75.5t28 97.5t12.5 115.5q0 37 -4.5 70.5t-9.5 47.5l-5 15h166q17 -43 17 -131q0 -59 -12.5 -117.5t-30 -99.5t-34.5 -74t-30 -49l-12 -16h-162z" />
<glyph unicode="-" horiz-adv-x="876" d="M219 485v150h541v-150h-541z" />
<glyph unicode="." horiz-adv-x="530" d="M260 102q0 52 28.5 81.5t78.5 29.5t78 -29.5t28 -81.5q0 -51 -28.5 -80.5t-77.5 -29.5q-48 0 -77.5 31.5t-29.5 78.5z" />
<glyph unicode="/" horiz-adv-x="866" d="M156 -23l534 1522h164l-537 -1522h-161z" />
<glyph unicode="0" d="M96 481q0 233 126 370.5t327 137.5q200 0 326 -137.5t126 -370.5q0 -234 -123.5 -369t-328.5 -135t-329 135t-124 369zM252 481q0 -176 80 -271t217 -95t217 95t80 271q0 178 -80.5 275.5t-216.5 97.5t-216.5 -97.5t-80.5 -275.5z" />
<glyph unicode="1" d="M100 -68v146q16 7 47.5 17t139.5 30t229 25v593q-138 -57 -307 -81v141q77 10 153.5 33.5t131 50.5t98 52.5t64.5 42.5l22 17v-847q104 -2 185.5 -8t110.5 -12l30 -5v-135q-116 28 -402 28q-92 0 -177.5 -9t-142 -22t-99.5 -26t-63 -22z" />
<glyph unicode="2" d="M102 -14v182l461 209q125 58 189.5 122.5t64.5 162.5q0 96 -73.5 144t-204.5 48q-75 0 -145.5 -17t-117.5 -41t-83 -48t-53 -41l-17 -17v180q5 5 15.5 13t49 29t83 37t118 29t154.5 13q202 0 322 -84.5t120 -240.5q0 -67 -21 -124t-53 -98t-83 -78t-98.5 -61.5 t-111.5 -50.5l-249 -104q82 4 135 4q145 0 270.5 -16.5t178.5 -33.5l53 -16v-154l-21 9t-62.5 20.5t-102 25.5t-139.5 20t-177 9q-128 0 -228.5 -8t-137.5 -16z" />
<glyph unicode="3" d="M106 -80q6 -7 16.5 -18.5t50 -41t85.5 -52.5t122 -41.5t159 -18.5q141 0 219 68t78 184q0 117 -89 177.5t-249 60.5h-246v141h237q152 0 236 66t84 186q0 101 -74.5 161t-208.5 60q-73 0 -141 -16t-112.5 -38.5t-78.5 -45t-50 -38.5l-15 -16v174q5 5 15 13t46 28.5t79 36 t114.5 28.5t151.5 13q195 0 316.5 -97.5t121.5 -258.5q0 -223 -205 -320q110 -42 170.5 -121.5t60.5 -191.5q0 -174 -127.5 -282.5t-330.5 -108.5q-87 0 -163.5 13.5t-124 33.5t-82.5 39.5t-50 32.5l-15 14v176z" />
<glyph unicode="4" d="M72 -39v141q64 143 148.5 285t159.5 242.5t141.5 180.5t105.5 120l39 39h194v-834q53 -4 99 -9t65 -8l20 -3v-140q-71 15 -184 25v-377h-160v385q-33 2 -98 2q-141 0 -273.5 -12t-194.5 -24zM248 127q162 18 354 18q67 0 98 -2v652q-276 -303 -452 -668z" />
<glyph unicode="5" d="M106 -82q6 -7 16.5 -18.5t49.5 -41t83.5 -52.5t118.5 -41.5t154 -18.5q157 0 232.5 75t75.5 208q0 278 -398 278h-288l77 637h176q165 0 305 19t198 38l57 19v-152q-20 -7 -59.5 -17.5t-181 -28t-304.5 -17.5h-60l-43 -354h144q255 0 397.5 -107t142.5 -309 q0 -195 -127 -309.5t-344 -114.5q-82 0 -155.5 13.5t-120 33.5t-81.5 39.5t-50 32.5l-15 14v174z" />
<glyph unicode="6" d="M86 629q0 333 155.5 531t411.5 198q84 0 153 -12t96 -24l26 -11v-158q-11 8 -31 19.5t-89.5 31t-145.5 19.5q-166 0 -280 -127.5t-138 -362.5q136 76 313 76q225 0 346 -113t121 -305q0 -182 -119 -298t-307 -116q-242 0 -377 170.5t-135 481.5zM240 586q7 -237 102 -356 t258 -119q124 0 193 78t69 200q0 135 -78.5 209t-230.5 74q-167 0 -313 -86z" />
<glyph unicode="7" d="M100 811v147q127 -28 402 -28q140 0 265.5 13t180.5 25l56 13v-33l-5 -12h5q0 -168 -33 -263t-137 -249l-111 -164q-99 -150 -131.5 -288t-32.5 -369h-151q0 261 37 407t155 324l111 166q68 102 96.5 165.5t38.5 145.5q-149 -23 -344 -23q-127 0 -227.5 6t-137.5 12z" />
<glyph unicode="8" d="M86 334q0 60 15 110t39.5 85.5t62 65t75.5 49t87 38.5q-108 47 -168 119t-60 194q0 105 56 183.5t148.5 117.5t207.5 39q174 0 290.5 -91t116.5 -247q0 -122 -62 -194t-173 -119q51 -17 90 -36t78.5 -48t65 -64.5t41.5 -86.5t16 -113q0 -116 -61 -200.5t-164.5 -126.5 t-235.5 -42q-205 0 -335 97t-130 270zM242 334q0 -113 84.5 -178.5t224.5 -65.5q138 0 221.5 65.5t83.5 178.5q0 51 -18.5 92.5t-43.5 68t-72 51.5t-82.5 38.5t-96.5 33.5q-47 -16 -78 -28.5t-69.5 -31.5t-63 -39.5t-47 -47.5t-33 -61.5t-10.5 -75.5zM293 995 q0 -55 18.5 -97t56 -71t76.5 -48t97 -38q61 20 101.5 39t80 48.5t59 71t19.5 95.5q0 97 -70 152t-182 55q-116 0 -186 -54.5t-70 -152.5z" />
<glyph unicode="9" d="M86 575q0 182 119.5 299t306.5 117q242 0 377 -171.5t135 -483.5q0 -333 -154 -532t-411 -199q-84 0 -152.5 11.5t-94.5 22.5l-26 11v160q4 -3 11 -7.5t32.5 -16.5t54 -21.5t74 -17t93.5 -7.5q165 0 277.5 127t135.5 362q-138 -73 -311 -73q-226 0 -346.5 113t-120.5 306 zM248 578q0 -135 78.5 -209t230.5 -74q165 0 311 84q-7 239 -101 359t-257 120q-123 0 -192.5 -79t-69.5 -201z" />
<glyph unicode=":" horiz-adv-x="530" d="M260 102q0 52 28.5 81.5t78.5 29.5t78 -29.5t28 -81.5q0 -51 -28.5 -80.5t-77.5 -29.5q-48 0 -77.5 31.5t-29.5 78.5zM260 834q0 52 28.5 82t78.5 30t78 -30t28 -82q0 -51 -28.5 -81t-77.5 -30q-48 0 -77.5 32.5t-29.5 78.5z" />
<glyph unicode=";" horiz-adv-x="530" d="M176 -266q5 6 13 17.5t28 48t35.5 75.5t28 97.5t12.5 115.5q0 37 -4.5 70.5t-9.5 47.5l-5 15h166q17 -43 17 -131q0 -59 -12.5 -117.5t-30 -99.5t-34.5 -74t-30 -49l-12 -16h-162zM240 834q0 53 28.5 82.5t79.5 29.5q48 0 76.5 -30t28.5 -82q0 -51 -29 -81t-76 -30 q-49 0 -78.5 32.5t-29.5 78.5z" />
<glyph unicode="&#x3c;" d="M137 393v166l824 279v-154l-615 -207l615 -188v-152z" />
<glyph unicode="=" d="M137 289v145h824v-145h-824zM137 541v145h824v-145h-824z" />
<glyph unicode="&#x3e;" d="M137 137v152l613 188l-613 207v154l824 -279v-166z" />
<glyph unicode="?" horiz-adv-x="729" d="M133 1274v166q10 7 28.5 16.5t81 26t130.5 16.5q156 0 234.5 -76t78.5 -202q0 -81 -24.5 -148.5t-59 -116.5t-69.5 -98.5t-59.5 -119t-24.5 -152.5v-148h-162v144q0 81 17.5 149t43.5 111t56.5 87.5t56.5 80.5t43.5 87t17.5 109q0 69 -42.5 109.5t-117.5 40.5 q-67 0 -124 -20.5t-81 -41.5zM260 102q0 52 28.5 81.5t78.5 29.5t78 -29.5t28 -81.5q0 -51 -28.5 -80.5t-77.5 -29.5q-48 0 -77.5 31.5t-29.5 78.5z" />
<glyph unicode="@" horiz-adv-x="1732" d="M117 737q0 223 98 396.5t274 269.5t400 96q325 0 526 -185.5t201 -484.5q0 -220 -112.5 -351.5t-278.5 -131.5q-41 0 -75.5 13t-54.5 32t-34.5 37.5t-19.5 31.5l-5 13q-3 -5 -8.5 -13t-25 -29t-42.5 -37t-60.5 -29t-78.5 -13q-125 0 -202.5 93.5t-77.5 240.5 q0 184 99.5 298t268.5 114q70 0 126.5 -17t78.5 -34l21 -17v-459q0 -53 32 -80.5t80 -27.5q95 0 161.5 94.5t66.5 271.5q0 168 -77.5 292.5t-209.5 187.5t-299 63q-284 0 -454.5 -175t-170.5 -460q0 -298 174.5 -464.5t487.5 -166.5q122 0 237.5 30t170.5 60l55 29v-149 q-6 -4 -18.5 -10.5t-56.5 -24t-93.5 -30.5t-129.5 -23.5t-165 -10.5q-382 0 -595.5 202.5t-213.5 557.5zM682 686q0 -101 40 -156t107 -55q78 0 122 55.5t44 126.5v314q-37 10 -90 10q-99 0 -161 -76.5t-62 -218.5z" />
<glyph unicode="A" horiz-adv-x="1347" d="M57 -23v148q118 0 187 86t114 283q-88 15 -162.5 37.5t-105.5 37.5l-31 15v159q13 -8 38.5 -21t111 -42t180.5 -45l68 309q61 284 181.5 419.5t307.5 135.5q50 0 94.5 -7.5t72 -18.5t48 -22t29.5 -19l8 -7v-530q0 -166 11.5 -319t28 -253t32.5 -176.5t28 -111.5l11 -35 h-168q-7 19 -18 56t-35.5 168t-38.5 280q-160 -33 -404 -33q-43 0 -117 4q-57 -240 -165 -369t-267 -129h-39zM557 616q29 -2 88 -2q231 0 393 35q-6 114 -6 246v440q-29 17 -84 17q-127 0 -201.5 -98t-125.5 -336z" />
<glyph unicode="B" horiz-adv-x="1224" d="M39 1155v174q8 7 24 18.5t69 40.5t112 51.5t151 41t187 18.5q239 0 373.5 -104.5t134.5 -294.5q0 -111 -52 -195.5t-147 -134.5q127 -42 195.5 -128.5t68.5 -213.5q0 -204 -153.5 -327.5t-421.5 -123.5q-77 0 -146.5 8t-113.5 19t-77 22t-47 19l-14 8v1198 q-41 -22 -76.5 -46t-51.5 -37zM350 143q99 -26 225 -26q195 0 301.5 83t106.5 226q0 128 -89.5 194t-260.5 66h-283v-543zM350 827h262q150 0 229 70.5t79 196.5q0 123 -90 191.5t-255 68.5q-104 0 -225 -33v-494z" />
<glyph unicode="C" horiz-adv-x="1091" d="M59 735q0 349 171 556.5t466 207.5q93 0 166.5 -15.5t101.5 -30.5l27 -15v-166q-4 3 -11 9t-32.5 20.5t-55 25.5t-79 20t-104.5 9q-215 0 -344 -163t-129 -462q0 -276 123.5 -439t351.5 -163q60 0 117.5 11.5t96 28.5t68.5 33.5t44 27.5l14 12v-162q-5 -4 -15 -11 t-44.5 -25t-72.5 -31.5t-97.5 -24.5t-121.5 -11q-205 0 -351.5 100t-218 269t-71.5 389z" />
<glyph unicode="D" horiz-adv-x="1288" d="M39 1159v172q8 7 23 18t68 40t112 51.5t153 40.5t193 18q160 0 283 -54.5t201 -154.5t117.5 -235.5t39.5 -302.5q0 -360 -179 -567.5t-487 -207.5q-74 0 -140.5 8t-108.5 19t-73.5 22t-44.5 19l-14 8v1200q-41 -21 -76.5 -44.5t-51.5 -36.5zM350 139q98 -24 209 -24 q236 0 368 166.5t132 470.5q0 279 -120.5 441.5t-358.5 162.5q-105 0 -230 -33v-1184z" />
<glyph unicode="E" horiz-adv-x="1024" d="M59 399q0 124 66 217t186 140q-98 52 -150 138t-52 200q0 185 136.5 295t368.5 110q106 0 187.5 -14.5t110.5 -28.5l28 -14v-162q-5 3 -14.5 8.5t-41.5 19t-67 23.5t-90.5 18.5t-112.5 8.5q-161 0 -248 -71t-87 -197q0 -128 80 -199.5t227 -71.5h280v-139h-286 q-164 0 -256.5 -72t-92.5 -209q0 -133 87.5 -205.5t259.5 -72.5q102 0 202 30.5t150 60.5l49 30v-170q-7 -4 -19.5 -10.5t-54.5 -22.5t-86.5 -28.5t-111.5 -23t-134 -10.5q-248 0 -381 114.5t-133 307.5z" />
<glyph unicode="F" horiz-adv-x="1056" d="M39 1243v160q8 4 22.5 10.5t66 23t109.5 29t150.5 23t190.5 10.5q141 0 250.5 -11.5t148.5 -22.5l39 -11v-154q-15 6 -45.5 15.5t-143.5 25t-249 15.5q-103 0 -228 -19v-530h570v-148h-570v-659h-168v1298q-42 -13 -77.5 -26.5t-50.5 -21.5z" />
<glyph unicode="G" horiz-adv-x="1257" d="M61 733q0 350 179 557t491 207q101 0 186.5 -18.5t120.5 -36.5l35 -19v-168q-5 4 -15 10.5t-43.5 23t-70 29.5t-93 23.5t-114.5 10.5q-231 0 -364 -160.5t-133 -458.5q0 -282 125.5 -448t353.5 -166q150 0 274 57v467q-178 -41 -444 -41v139q112 0 215.5 10t171.5 23.5 t120 27.5t76 23l23 9v-705q-6 -6 -18 -16.5t-53.5 -36.5t-89 -46t-124 -36.5t-159.5 -16.5q-206 0 -354.5 99t-222 268.5t-73.5 388.5z" />
<glyph unicode="H" horiz-adv-x="1304" d="M39 711v157q53 -32 143 -63v676h170v-719q128 -23 269 -23q219 0 389 33v709h174v-1481h-174v627q-159 -31 -389 -31q-142 0 -269 20v-616h-170v655q-42 12 -77.5 26t-50.5 22z" />
<glyph unicode="I" horiz-adv-x="411" d="M121 0v1481h170v-1481h-170z" />
<glyph unicode="J" horiz-adv-x="749" d="M8 -160q0 144 38.5 274t104.5 228.5t143.5 172t166.5 124.5v672q-183 -33 -402 -33v145q115 0 216 8t163 19t107.5 22t64.5 19l19 8v-1085q0 -204 -20 -359.5t-63.5 -272t-117 -177t-176.5 -60.5q-112 0 -178 78t-66 217zM164 -162q0 -160 98 -160q104 0 151.5 185.5 t47.5 550.5v61q-129 -96 -213 -262.5t-84 -374.5z" />
<glyph unicode="K" horiz-adv-x="1144" d="M121 0v1481h168v-664h49q59 0 106.5 25t79 66t61.5 95t53.5 111t56 114.5t67.5 105t89.5 83.5t121.5 49q51 15 88 15h24v-146q-61 0 -108.5 -22.5t-80 -62t-59.5 -88.5t-52.5 -105.5t-52.5 -109t-66.5 -103t-87.5 -84.5q72 -45 128.5 -129.5t92 -169t74.5 -163t96.5 -128 t136.5 -49.5v-144h-27q-41 0 -82 13q-75 15 -134.5 61t-98 108t-71 133.5t-63 140t-65 124.5t-86 90.5t-117.5 34.5h-73v-682h-168z" />
<glyph unicode="L" horiz-adv-x="1056" d="M39 35v153q49 -20 143 -36v1329h170v-1350q39 -2 125 -2q95 0 185.5 11.5t152 27.5t109 32.5t70.5 27.5l22 12v-164q-8 -4 -22.5 -10t-66 -21.5t-109.5 -27.5t-150.5 -21.5t-190.5 -9.5q-142 0 -251.5 12t-147.5 24z" />
<glyph unicode="M" horiz-adv-x="1808" d="M39 -23v140q114 0 188.5 96t118.5 305l92 426q65 297 188.5 426t325.5 129q73 0 132.5 -17.5t82.5 -34.5l23 -17q33 28 93 48.5t124 20.5q50 0 94 -8t72 -20t48.5 -24t28.5 -20l9 -8v-524q0 -166 11.5 -319t27.5 -253t32 -176.5t28 -111.5l11 -35h-167q-4 12 -11.5 36 t-26 107.5t-32.5 179t-25.5 250.5t-11.5 322v444q-31 21 -88 21q-49 0 -91 -19t-74.5 -60t-59 -88t-46.5 -121.5t-34.5 -140.5t-25 -165.5t-17 -176.5t-11.5 -193t-7 -195t-5 -201h-170q10 581 64 888t160 435q-5 4 -15 10t-46 16.5t-79 10.5q-132 0 -213.5 -100 t-134.5 -342l-92 -422q-56 -250 -164.5 -384.5t-271.5 -134.5h-35z" />
<glyph unicode="N" horiz-adv-x="1327" d="M39 1325v145q68 29 172 29q84 0 152 -20.5t124 -59t107 -105.5t95 -149t95 -200l256 -613v1129h166v-1481h-190l-391 934q-78 180 -141 271.5t-140 127.5v-1333h-164v1360q-38 -2 -73.5 -10.5t-51.5 -16.5z" />
<glyph unicode="O" horiz-adv-x="1394" d="M59 733q0 230 75 402.5t218 268t338 95.5q183 0 329 -88.5t222 -267.5q34 24 64.5 52t44.5 44l14 16v-170q-33 -34 -82 -67q26 -105 31 -215q0 -10 1 -32t1 -32q0 -349 -167.5 -555.5t-459.5 -206.5q-155 0 -276 57t-197.5 159.5t-116 239t-39.5 300.5zM231 731 q0 -181 50.5 -317.5t155.5 -216.5t253 -80q209 0 332 162t123 458q0 95 -15 209q-64 -20 -145 -20q-120 0 -189 58.5t-69 156.5q0 69 36.5 117t100.5 67q-76 39 -174 39q-207 0 -333 -168.5t-126 -464.5zM870 1141q0 -41 29 -65.5t86 -24.5q48 0 115 18q-26 73 -65 111.5 t-85 38.5q-36 0 -58 -19.5t-22 -58.5z" />
<glyph unicode="P" horiz-adv-x="1181" d="M39 1161v172q8 7 24 18t70 39.5t112.5 50.5t149.5 40t185 18q270 0 416.5 -124t146.5 -335q0 -213 -155.5 -344t-409.5 -131q-125 0 -228 21v-586h-168v1255q-40 -21 -76 -44.5t-52 -36.5zM350 727q93 -22 223 -22q184 0 291 90t107 245q0 149 -101 232.5t-297 83.5 q-102 0 -223 -33v-596z" />
<glyph unicode="Q" horiz-adv-x="1304" d="M59 856q0 132 39.5 247.5t112.5 204t187.5 140t254.5 51.5q283 0 437.5 -179.5t154.5 -506.5q0 -141 -35 -258t-96.5 -204.5t-154.5 -158.5t-199 -121t-240 -91q350 -12 654 -146v-168q-353 197 -973 197v133q249 73 412.5 148t269 172.5t150 215t44.5 277.5 q0 270 -112.5 410.5t-313.5 140.5q-101 0 -182.5 -41t-132.5 -111.5t-78 -160.5t-27 -191q0 -216 85.5 -324t252.5 -108q47 0 91.5 9.5t74 23t52.5 27t33 22.5l11 10v-151q-3 -3 -10 -8.5t-31 -20t-51.5 -25t-74 -19.5t-97.5 -9q-240 0 -374 149t-134 424z" />
<glyph unicode="R" horiz-adv-x="1189" d="M39 1159v174q8 7 24 18t69.5 39t111.5 50t148.5 39.5t182.5 17.5q260 0 400.5 -121t140.5 -325q0 -201 -137 -320.5t-363 -142.5q67 -217 207.5 -334t327.5 -117v-151h-14q-277 0 -473 199t-234 530h72q214 0 328 85.5t114 248.5q0 143 -94.5 225t-280.5 82 q-98 0 -219 -33v-1323h-168v1253q-40 -22 -76 -45.5t-52 -35.5z" />
<glyph unicode="S" horiz-adv-x="1173" d="M49 473q0 55 8.5 102.5t17.5 68.5l9 20h162q-4 -6 -10 -19t-15.5 -61.5t-9.5 -106.5q0 -166 100.5 -262t290.5 -96q158 0 255 85.5t97 233.5q0 67 -26 116t-70 78.5t-101 51t-120 38.5t-125.5 35t-119.5 46t-101 66.5t-70 102t-26 146.5q0 170 124 275.5t345 105.5 q95 0 173 -15.5t109 -30.5l31 -15v-168q-5 4 -14 9.5t-39.5 21t-63.5 27t-85.5 21t-106.5 9.5q-147 0 -226.5 -63t-79.5 -177q0 -60 26 -103.5t70 -69t101.5 -44.5t120.5 -34.5t126 -34t120.5 -48.5t101.5 -72t70 -111t26 -159q0 -204 -149 -334.5t-375 -130.5 q-264 0 -407.5 137.5t-143.5 358.5z" />
<glyph unicode="T" horiz-adv-x="1173" d="M39 1231v168q9 4 25 11t74 24t123 30t169.5 24t216.5 11q159 0 280 -12.5t162 -24.5l41 -12v-152q-15 6 -46.5 15.5t-150 25.5t-263.5 17v-1356h-168v1350q-132 -11 -248 -41t-166 -54z" />
<glyph unicode="U" horiz-adv-x="1243" d="M80 580q0 160 12.5 312t31 254t36.5 181.5t30 116.5l13 37h180q-5 -13 -14 -38.5t-32 -113t-40.5 -184.5t-32 -250t-14.5 -313q0 -228 76.5 -344.5t220.5 -116.5q69 0 128.5 24t102.5 64.5t76.5 92t53.5 109t30 112t10 104.5v854h174v-1481h-174v256q-2 -6 -6.5 -16 t-22 -39t-38 -55.5t-55.5 -58.5t-75 -55t-96 -39t-118 -16q-218 0 -337.5 155t-119.5 448z" />
<glyph unicode="V" horiz-adv-x="1327" d="M37 1481h168q4 -12 11.5 -36t26 -108t33 -179.5t26 -251t11.5 -322.5v-441q29 -14 84 -14q126 0 198.5 96.5t123.5 333.5l90 424q52 248 163 383t277 135h39v-147q-121 0 -195 -92t-118 -299l-92 -428q-61 -285 -178.5 -420t-303.5 -135q-51 0 -96 8t-72.5 19.5t-48 22.5 t-28.5 19l-9 8v527q0 166 -11.5 319t-27.5 253.5t-32 177.5t-28 112z" />
<glyph unicode="W" horiz-adv-x="1806" d="M39 1481h168q4 -12 11.5 -36t25.5 -107.5t32 -179t25.5 -250.5t11.5 -322v-445q31 -20 88 -20q49 0 91 19t74.5 60t59 88t46.5 121.5t34.5 140.5t25 165.5t17 176.5t11.5 193t7 195t5 201h170q-10 -581 -64 -888t-159 -435q5 -4 14.5 -10t45.5 -16.5t79 -10.5 q132 0 213.5 100t134.5 342l92 422q115 518 437 518h34v-139q-114 0 -188.5 -96t-118.5 -305l-92 -426q-65 -297 -188.5 -426t-325.5 -129q-46 0 -87.5 7t-67.5 17t-46 20.5t-29 17.5l-8 7q-33 -28 -93 -48.5t-124 -20.5q-50 0 -94 8t-71.5 19.5t-48 23.5t-29.5 20l-8 8v525 q0 166 -11.5 319t-27.5 253t-32.5 176.5t-28.5 111.5z" />
<glyph unicode="X" horiz-adv-x="1292" d="M39 299q0 46 8 88t20 68t24 45.5t20 27.5l8 9h157l-8.5 -8.5t-19.5 -25.5t-24.5 -43.5t-19.5 -63t-9 -83.5q0 -91 36.5 -138.5t98.5 -47.5q49 0 90 30.5t74 94.5t52 177t19 265q0 317 -89.5 487.5t-260.5 170.5q-40 0 -75.5 -9t-50.5 -17l-15 -9v156q39 26 145 26 q147 0 257 -86.5t157 -238.5q47 157 134 241t202 84q131 0 207.5 -85t76.5 -230q0 -45 -8.5 -86.5t-20.5 -68.5t-24 -47t-20 -29l-9 -9h-151q3 3 8.5 9t19.5 26.5t24.5 44t19 62t8.5 79.5q0 91 -36.5 140t-100.5 49q-47 0 -87 -30t-74 -92.5t-53.5 -173.5t-19.5 -259 q0 -314 90.5 -493t259.5 -179q38 0 73.5 10.5t51.5 21.5l17 11v-164q-42 -29 -144 -29q-144 0 -253.5 87.5t-164.5 252.5q-42 -161 -130 -248t-205 -87q-130 0 -207.5 87t-77.5 230z" />
<glyph unicode="Y" horiz-adv-x="1216" d="M39 1352v147h18q180 0 330.5 -132.5t222.5 -389.5q68 252 214 387t321 135h33v-147q-100 0 -187.5 -57.5t-154.5 -167t-105.5 -282.5t-38.5 -390v-455h-168v563q0 187 -44.5 341.5t-115.5 249.5t-155.5 146.5t-169.5 51.5z" />
<glyph unicode="Z" horiz-adv-x="1064" d="M39 -4v143l661 895q127 169 127 297q-94 23 -256 23q-95 0 -183 -12t-145.5 -29t-102 -33.5t-64.5 -28.5l-21 -12v164q7 4 20.5 10.5t61 23t102.5 29t145 23t187 10.5q139 0 250.5 -12.5t152.5 -25.5l42 -13q-1 -155 -42.5 -262.5t-146.5 -247.5l-567 -764q2 0 34 3t87 6 t113 3q153 0 290.5 -18t198.5 -36l61 -17v-158q-9 3 -26 8.5t-73 20t-117 25t-154 19.5t-187 9q-134 0 -246 -10.5t-157 -21.5z" />
<glyph unicode="[" horiz-adv-x="694" d="M178 -182v1718h440v-137h-284v-1444h284v-137h-440z" />
<glyph unicode="\" horiz-adv-x="866" d="M156 1501h161l537 -1521h-164z" />
<glyph unicode="]" horiz-adv-x="694" d="M178 -45h285v1444h-285v137h440v-1718h-440v137z" />
<glyph unicode="^" d="M195 82l290 811h148l268 -811h-158l-188 584l-203 -584h-157z" />
<glyph unicode="_" horiz-adv-x="1036" d="M-4 -252h1044v-133h-1044v133z" />
<glyph unicode="`" horiz-adv-x="831" d="M195 1239v164l22 -16.5t60.5 -37t95.5 -47t121 -37t143 -16.5v-145q-78 0 -152.5 14t-124.5 34t-89 39.5t-57 33.5z" />
<glyph unicode="a" horiz-adv-x="985" d="M61 416q0 160 58 289.5t170 206.5t260 77q59 0 110.5 -8t83 -19t55 -22t32.5 -19l10 -8v-680q0 -114 100 -114q37 0 73.5 24t61.5 57.5t45 67.5t30 58l9 24v-194q-3 -7 -10 -19t-31 -43t-51 -54.5t-72 -43t-94 -19.5q-158 0 -205 136q-91 -136 -270 -136 q-166 0 -265.5 120.5t-99.5 318.5zM219 418q0 -144 58 -221.5t161 -77.5q109 0 174 74t68 174v460q-66 17 -133 17q-145 0 -236.5 -113t-91.5 -313z" />
<glyph unicode="b" horiz-adv-x="991" d="M63 555q0 289 56.5 507t157.5 333.5t233 115.5q101 0 159 -68.5t58 -197.5q0 -161 -84 -332q132 -3 204.5 -103t72.5 -288q0 -96 -23 -190q63 15 118 42.5t79 47.5l24 20v-135q-4 -3 -11 -8.5t-32.5 -21t-54.5 -28.5t-75.5 -26.5t-96.5 -19.5q-55 -107 -146.5 -166.5 t-209.5 -59.5q-203 0 -316 154.5t-113 423.5zM217 578q64 53 124.5 120t117.5 153t92 189.5t35 204.5q0 66 -21.5 100.5t-60.5 34.5q-52 0 -103 -59t-91 -161.5t-66 -255t-27 -326.5zM225 428q20 -152 91.5 -232.5t181.5 -80.5q119 0 190 86q-133 22 -215 118t-88 242 q-75 -72 -160 -133zM524 592q0 -124 61.5 -195.5t164.5 -79.5q28 89 28 205q0 129 -36 195.5t-103 66.5q-50 0 -82.5 -54.5t-32.5 -137.5z" />
<glyph unicode="c" horiz-adv-x="751" d="M66 481q0 223 116 363.5t310 140.5q69 0 126.5 -10.5t79.5 -21.5l23 -11v-176q-3 3 -8.5 8t-25.5 18.5t-43.5 23.5t-63.5 18t-84 8q-122 0 -196.5 -96t-74.5 -265t75.5 -264.5t209.5 -95.5q72 0 137.5 33.5t108 80.5t74.5 94.5t46 80.5l15 34v-225q-2 -5 -7 -13.5 t-22.5 -34t-38 -48t-55 -50.5t-72.5 -48t-91.5 -34t-110.5 -14q-200 0 -314 139t-114 365z" />
<glyph unicode="d" horiz-adv-x="978" d="M55 416q0 159 59.5 285.5t173 200t261.5 73.5q67 0 125 -10v512h160v-1244q0 -114 100 -114q37 0 73.5 24t61.5 57.5t45 67.5t30 58l9 24v-194q-4 -7 -10.5 -19t-31 -43t-52 -54.5t-72.5 -43t-94 -19.5q-77 0 -129 36.5t-74 101.5q-88 -138 -270 -138q-165 0 -265 121 t-100 318zM213 416q0 -145 58.5 -225t158.5 -80q106 0 172.5 73.5t71.5 169.5v469q-60 13 -123 13q-146 0 -242 -112t-96 -308z" />
<glyph unicode="e" horiz-adv-x="813" d="M66 471q0 146 51.5 264t148.5 187t221 69q128 0 202.5 -73.5t74.5 -192.5q0 -77 -30 -141.5t-79 -110.5t-117 -81.5t-139 -57t-151 -33.5q61 -178 256 -178q74 0 146 31.5t119 70.5t90.5 92t59 78t26.5 45l1 2v-211q-6 -10 -18.5 -27.5t-56 -61t-92.5 -77t-128 -61 t-164 -27.5q-201 0 -311 134t-110 360zM223 471q0 -33 2 -47q175 22 282 101.5t107 199.5q0 65 -35.5 101t-93.5 36q-114 0 -188 -109t-74 -282z" />
<glyph unicode="f" horiz-adv-x="718" d="M76 516q0 293 61.5 520.5t169 351t242.5 123.5q107 0 166 -70t59 -202q0 -213 -99.5 -410t-250.5 -346q15 -74 61.5 -111.5t116.5 -37.5q47 0 89.5 11t69.5 26.5t47 31t29 26.5l9 11v-149q-3 -3 -9 -8.5t-28.5 -20t-49 -25t-72 -19.5t-95.5 -9h-25q44 -60 71 -107 t50 -129t23 -176q0 -128 -67.5 -202t-172.5 -74q-395 0 -395 995zM227 485q67 54 132.5 129.5t126 172.5t98 216.5t37.5 237.5q0 63 -23.5 97t-62.5 34q-57 0 -112.5 -65t-98.5 -176t-70 -273t-27 -342v-31zM231 330q13 -325 76 -498.5t162 -173.5q43 0 69.5 38t26.5 99 q0 78 -19 146t-50 121t-64 100t-68 105.5t-55 115.5q-31 -23 -78 -53z" />
<glyph unicode="g" horiz-adv-x="962" d="M55 489q0 224 110 362t284 138q156 0 247 -100v76h158v-729q69 36 130.5 87.5t79.5 73t32 39.5v-170q-9 -11 -27 -28.5t-81 -61.5t-134 -74v-36q0 -157 -52 -280.5t-153.5 -195t-236.5 -71.5q-132 0 -209.5 68t-77.5 182q0 188 205 290q-129 43 -202 151.5t-73 278.5z M213 494q0 -169 85 -253.5t230 -84.5q83 0 168 20v422q-3 105 -64 178.5t-169 73.5q-113 0 -181.5 -94t-68.5 -262zM281 -227q0 -60 37.5 -92.5t101.5 -32.5q121 0 198 108t78 289q-65 -12 -110 -23t-97 -27t-86 -35.5t-63.5 -46t-44 -62t-14.5 -78.5z" />
<glyph unicode="h" horiz-adv-x="1005" d="M115 0v727q0 388 75.5 586t241.5 198q89 0 142 -59.5t53 -169.5q0 -156 -99 -326q28 7 54 7q136 0 207 -80t71 -215v-435q0 -114 98 -114q38 0 74.5 24t62 57.5t45.5 67.5t30 58l10 24v-194q-4 -7 -10.5 -19t-31 -43t-52 -54.5t-72 -43t-92.5 -19.5q-108 0 -166 65.5 t-58 176.5v436q0 80 -38 124t-107 44q-63 0 -117.5 -32.5t-88.5 -81.5t-53.5 -102t-21.5 -99v-508h-157zM272 809q8 10 39 51t43.5 59t38.5 57.5t38 68t27.5 68t22 80t6.5 83.5q0 104 -59 104q-71 0 -111 -151.5t-45 -419.5z" />
<glyph unicode="i" horiz-adv-x="419" d="M88 1212v6q0 46 27 74q29 30 78 29q47 0 75.5 -29.5t28.5 -79.5q0 -51 -28.5 -80.5t-75.5 -29.5q-48 0 -76.5 31.5t-28.5 78.5zM113 219v746h161v-732q0 -114 99 -114q38 0 74.5 24t62 57.5t45.5 67.5t29 58l10 24v-194q-4 -7 -10.5 -19t-31 -43t-52 -54.5t-72 -43 t-92.5 -19.5q-110 0 -166.5 64.5t-56.5 177.5z" />
<glyph unicode="j" horiz-adv-x="385" d="M-129 -315q0 28 4 53.5t16.5 49.5t21.5 41t32.5 39.5t35 34t44 35t44 32t50.5 34.5v961h155v-846q162 140 244 323v-200q-74 -149 -244 -267v-241q0 -118 -63 -181t-154 -63q-84 0 -135 53t-51 142zM8 -307q0 -74 51 -74q60 0 60 111v139q-55 -41 -83 -82t-28 -94z M94 1212q0 50 28 79.5t77 29.5q47 0 75.5 -29.5t28.5 -79.5q0 -51 -28.5 -80.5t-75.5 -29.5q-48 0 -76.5 31.5t-28.5 78.5z" />
<glyph unicode="k" horiz-adv-x="937" d="M115 0v727q0 395 76 589.5t241 194.5q92 0 143.5 -61.5t51.5 -165.5q0 -152 -97 -309q45 10 82 10q133 0 203 -74t70 -196q0 -162 -101.5 -257t-271.5 -132q23 -98 80.5 -154.5t136.5 -56.5q44 0 87 18t75 43t63.5 63.5t50.5 66t38.5 64.5t23.5 46.5t10 23.5v-223 q-5 -10 -14 -26t-42 -57.5t-71.5 -73t-102 -57.5t-132.5 -26q-164 0 -257 121t-118 326q174 5 282.5 80.5t108.5 202.5q0 67 -37.5 104t-103.5 37q-125 0 -220.5 -115t-99.5 -282v-451h-155zM270 825q11 14 46 58t51 66t44 66.5t42 79t25 83.5t11 98q0 100 -61 100 q-67 0 -109.5 -140.5t-48.5 -410.5z" />
<glyph unicode="l" horiz-adv-x="751" d="M66 545q0 265 56.5 485.5t163.5 353t244 132.5q110 0 167 -74t57 -213q0 -130 -30.5 -251t-80 -214.5t-117.5 -175.5t-137.5 -139.5t-144.5 -100.5q55 -229 248 -229q183 0 332 198q32 41 73 115v-201q-6 -10 -17.5 -27.5t-51.5 -61t-84 -77t-114.5 -61t-144.5 -27.5 q-209 0 -314 148t-105 420zM223 545q0 -37 2 -53q72 46 136.5 113t120 158t88 211t32.5 253q0 145 -84 145q-58 0 -112.5 -67.5t-94.5 -179.5t-64 -265t-24 -315z" />
<glyph unicode="m" horiz-adv-x="1492" d="M115 0v965h161v-158q15 27 35 52.5t54.5 57t84.5 51t107 19.5q98 0 158.5 -46.5t81.5 -131.5q101 178 282 178q133 0 201 -73t68 -205v-476q0 -114 98 -114q38 0 74.5 24t62 57.5t45.5 67.5t30 58l9 24v-194q-4 -7 -10.5 -19t-31 -43t-52 -54.5t-72 -43t-92.5 -19.5 q-110 0 -166.5 65.5t-56.5 178.5v475q0 76 -33.5 116t-95.5 40q-58 0 -106 -32.5t-77.5 -83.5t-45.5 -108.5t-17 -113.5v-514h-162v696q0 73 -32.5 112.5t-92.5 39.5q-77 0 -136 -55.5t-85.5 -130t-26.5 -150.5v-512h-161z" />
<glyph unicode="n" horiz-adv-x="1005" d="M115 0v965h161v-158q15 27 36 53.5t57 58t89 51t115 19.5q141 0 214 -81.5t73 -219.5v-455q0 -114 98 -114q38 0 74.5 24t62 57.5t45.5 67.5t30 58l10 24v-194q-4 -7 -10.5 -19t-31 -43t-52 -54.5t-72 -43t-92.5 -19.5q-108 0 -166 66t-58 178v457q0 78 -40 124t-109 46 q-63 0 -117 -33t-87 -83t-51 -105t-18 -103v-524h-161z" />
<glyph unicode="o" horiz-adv-x="991" d="M66 475q0 234 119 372t307 138q191 0 308.5 -131.5t117.5 -372.5v-2q0 -53 -11 -121q61 5 113.5 25t75.5 37l22 18v-137q-10 -7 -29.5 -18.5t-84 -31t-134.5 -22.5q-52 -123 -151 -187.5t-227 -64.5q-192 0 -309 132.5t-117 365.5zM223 475q0 -174 75.5 -270t197.5 -96 q150 0 229 137q-96 30 -150.5 99t-54.5 165q0 95 51 151t136 56h8q-36 66 -93 99.5t-126 33.5q-120 0 -196.5 -100.5t-76.5 -274.5zM653 510q0 -112 115 -143q10 62 10 118q0 55 -19 84t-48 29q-58 0 -58 -88z" />
<glyph unicode="p" horiz-adv-x="1001" d="M115 -377v1342h159v-129q15 25 35 48t52.5 48.5t81 41t104.5 15.5q157 0 255 -114t113 -308q64 -20 118.5 -51t76.5 -52l23 -22v-161q-9 11 -26 29t-73.5 59.5t-118.5 66.5q-7 -109 -39.5 -194t-82.5 -137t-110.5 -78.5t-127.5 -26.5q-106 0 -172 67t-66 179 q0 159 109.5 255.5t278.5 96.5q9 0 27.5 -1t27.5 -1q-18 122 -82 187t-158 65q-57 0 -105 -26.5t-77 -68t-45.5 -88t-18.5 -90.5v-952h-159zM459 252q0 -60 27.5 -90.5t76.5 -30.5q82 0 140.5 86.5t62.5 255.5q-18 2 -55 2q-108 0 -180 -61t-72 -162z" />
<glyph unicode="q" horiz-adv-x="940" d="M55 432q0 162 58.5 288t170 197.5t259.5 71.5q88 0 157 -16.5t94 -32.5l25 -16v-713q69 41 130.5 97.5t85.5 86.5t32 43v-174q-3 -5 -9.5 -13.5t-30 -33.5t-49.5 -49t-69.5 -54.5t-89.5 -54.5v-456h-160v397q-94 -23 -190 -23q-187 0 -300.5 126t-113.5 329zM215 436 q0 -147 75.5 -233t194.5 -86q95 0 174 24v690q-57 13 -118 13q-143 0 -234.5 -109t-91.5 -299z" />
<glyph unicode="r" horiz-adv-x="667" d="M115 0v965h161v-195q3 9 10.5 24t34 53t59.5 67t88.5 53t119.5 24l71 -6v-168q-37 12 -88 12q-74 0 -133.5 -39t-93 -99.5t-51 -126t-17.5 -126.5v-438h-161z" />
<glyph unicode="s" horiz-adv-x="839" d="M63 319q0 36 5.5 66t10.5 43l5 12h158q-21 -34 -21 -108q0 -104 57.5 -162.5t167.5 -58.5q91 0 147 46t56 130q0 49 -27 83t-70 52.5t-94.5 33.5t-103.5 34t-95 45t-70 75t-27 117q0 115 85.5 189.5t239.5 74.5q68 0 127 -11.5t84 -22.5l25 -11v-170q-3 3 -10 8.5 t-29.5 19t-48 23.5t-66.5 18.5t-84 8.5q-75 0 -115 -34t-40 -91q0 -36 20.5 -62t54.5 -40.5t77 -29t88.5 -26.5t88.5 -34t77 -50.5t54.5 -77t20.5 -112.5q0 -141 -101.5 -230.5t-269.5 -89.5q-180 0 -278.5 95t-98.5 247z" />
<glyph unicode="t" horiz-adv-x="647" d="M86 442q0 131 14 264.5t33.5 230t39.5 175t34 118.5l14 40h160q-41 -127 -78 -305h328v-134h-350q-33 -211 -33 -387q0 -166 46.5 -242.5t139.5 -76.5q60 0 117.5 28.5t97 69t70.5 81t46 68.5l15 29v-215q-5 -8 -14.5 -22.5t-42.5 -50.5t-71 -63.5t-99.5 -50 t-128.5 -22.5q-172 0 -255 120.5t-83 344.5z" />
<glyph unicode="u" horiz-adv-x="1005" d="M115 276v689h164v-676q0 -78 37.5 -124t107.5 -46q51 0 96 22t76.5 57t54.5 78.5t34 86.5t11 81v521h164v-729q0 -117 98 -117q38 0 74.5 24t61.5 57.5t45 67.5t29 58l10 24v-194q-4 -7 -10.5 -19t-30.5 -43t-51.5 -54.5t-72.5 -43t-93 -19.5q-95 0 -151.5 50.5 t-68.5 142.5q-10 -20 -22.5 -40t-39.5 -49.5t-58 -51t-79.5 -37t-103.5 -15.5q-138 0 -210 81.5t-72 217.5z" />
<glyph unicode="v" horiz-adv-x="993" d="M84 500q0 128 17.5 244.5t34.5 168.5l18 52h159q-3 -7 -7.5 -19.5t-16 -56.5t-20.5 -94t-16 -129.5t-7 -163.5q0 -182 55.5 -280.5t167.5 -98.5q115 0 171 110t56 314q0 109 -19.5 213.5t-38.5 154.5l-20 50h156q54 -126 74 -306q14 -125 71 -183t134 -58q19 0 39 5.5 t30 10.5l11 6v-137q-40 -20 -91 -20q-129 0 -206 86q-30 -184 -124.5 -288t-244.5 -104q-190 0 -286.5 139t-96.5 384z" />
<glyph unicode="w" horiz-adv-x="1378" d="M86 500q0 128 17.5 244.5t34.5 168.5l18 52h163q-3 -7 -7.5 -19.5t-16.5 -56t-21 -93t-16.5 -129t-7.5 -163.5q0 -184 56 -284.5t161 -100.5q50 0 88 14q-133 175 -133 445q0 187 68 287t186 100t184 -96t66 -283q0 -137 -39 -254.5t-109 -200.5q40 -16 80 -16 q112 0 167.5 113t55.5 319q0 109 -19.5 213.5t-38.5 154.5l-19 50h155q54 -126 74 -306q14 -125 70.5 -183t134.5 -58q19 0 39 5.5t31 10.5l10 6v-137q-40 -20 -91 -20q-129 0 -206 86q-30 -185 -123 -288.5t-242 -103.5q-102 0 -190 56q-98 -56 -201 -56q-182 0 -280.5 140 t-98.5 383zM569 580q0 -228 101 -363q110 132 110 371q0 241 -102 241q-109 0 -109 -249z" />
<glyph unicode="x" horiz-adv-x="1044" d="M66 231q0 43 7.5 82.5t18 65t20.5 44.5t18 27l7 9h156q-72 -72 -72 -213q0 -61 23.5 -94t68.5 -33q67 0 112.5 79.5t45.5 256.5q0 178 -69.5 283.5t-190.5 105.5q-31 0 -61.5 -7t-45.5 -13l-14 -7v154q43 18 125 18q103 0 186.5 -48.5t139.5 -137.5q82 186 254 186 q98 0 153.5 -58.5t55.5 -158.5q0 -48 -14.5 -89.5t-29.5 -58.5l-14 -18h-149q7 7 16.5 19.5t26 55t16.5 87.5q0 90 -74 90q-60 0 -103.5 -92t-43.5 -289q0 -171 64 -262.5t171 -91.5q151 0 271 186q21 33 55 103v-217q-5 -9 -14 -23.5t-41 -52t-69.5 -66.5t-99.5 -52.5 t-130 -23.5q-87 0 -160 42.5t-123 121.5q-43 -80 -110.5 -122t-147.5 -42q-109 0 -172 68.5t-63 185.5z" />
<glyph unicode="y" horiz-adv-x="950" d="M66 524q0 76 7.5 149.5t19 124t22.5 90t19 58.5l7 19h164q-3 -6 -8 -18t-18.5 -53.5t-23.5 -88t-18 -121.5t-8 -154q0 -180 77 -279t210 -99q86 0 152 14q4 94 4 147q0 109 -12 216t-29 182.5t-33.5 135t-28.5 89.5l-12 29h162q4 -10 11.5 -28.5t26.5 -82t33.5 -133 t26.5 -179t12 -223.5q0 -17 -1 -49t-1 -47q47 23 91.5 54t71.5 54t54 52t32.5 36.5t13.5 18.5v-170q-4 -5 -11 -13t-32 -31.5t-54 -45t-77 -48t-101 -46.5q-33 -268 -144 -416.5t-292 -148.5q-127 0 -197.5 68t-70.5 180q0 193 217 294q-128 47 -195 166t-67 297zM266 -229 q0 -58 31.5 -90.5t87.5 -32.5q105 0 172 101.5t96 285.5q-69 -13 -121 -26.5t-104.5 -35.5t-86 -48.5t-54.5 -66t-21 -87.5z" />
<glyph unicode="z" horiz-adv-x="802" d="M25 -227q0 52 12.5 95.5t32.5 76.5t56.5 63t72 51t93.5 43.5t105.5 38t122.5 37.5q-81 137 -266 137v138q122 0 189 59t67 154q0 87 -57 133.5t-162 46.5q-64 0 -120.5 -16.5t-80.5 -33.5l-24 -16v168q9 5 27 12t78.5 19t127.5 12q185 0 281 -84.5t96 -230.5 q0 -99 -51.5 -172.5t-141.5 -116.5q121 -54 185 -164q191 74 286 215v-174q-82 -102 -239 -162q10 -55 10 -104q0 -208 -122.5 -343.5t-305.5 -135.5q-126 0 -199 70t-73 184zM178 -221q0 -60 36.5 -94.5t96.5 -34.5q112 0 184 92t72 250q0 35 -6 65q-88 -24 -139.5 -40.5 t-104.5 -40.5t-79.5 -49.5t-43 -62.5t-16.5 -85z" />
<glyph unicode="{" horiz-adv-x="694" d="M139 623v104q65 2 106.5 27.5t41.5 74.5q0 38 -18.5 91t-41 99.5t-41 109t-18.5 116.5q0 143 86.5 217t228.5 74h135v-145h-145q-143 0 -143 -156q0 -69 52 -205t52 -199q0 -60 -27 -99.5t-63 -55.5q35 -18 62.5 -58.5t27.5 -97.5q0 -66 -52 -202t-52 -201 q0 -154 143 -154h145v-145h-153q-133 0 -215 75t-82 211q0 69 30 148t59.5 149t29.5 117q0 49 -42.5 77t-105.5 28z" />
<glyph unicode="|" horiz-adv-x="866" d="M430 -377v1960h150v-1960h-150z" />
<glyph unicode="}" horiz-adv-x="694" d="M139 -37h144q145 0 145 156q0 67 -52 201.5t-52 199.5q0 57 26 97.5t60 58.5q-34 16 -60 55.5t-26 99.5q0 64 52 199.5t52 202.5q0 78 -38 118t-105 40h-146v145h154q132 0 214.5 -78t82.5 -213q0 -69 -30 -148.5t-59.5 -150t-29.5 -117.5q0 -49 40.5 -74.5t106.5 -27.5 v-104q-64 0 -105.5 -28t-41.5 -77q0 -47 29.5 -116.5t59.5 -148.5t30 -149q0 -142 -87 -214t-231 -72h-133v145z" />
<glyph unicode="~" d="M137 344v178q3 5 8.5 13t25.5 28.5t43 36t60 28.5t78 13q59 0 117 -23t96 -50.5t86 -50.5t90 -23q39 0 76 15.5t62 37t44.5 43.5t28.5 38l9 15v-180q-3 -5 -8.5 -13t-26 -28t-43.5 -35.5t-61 -28t-79 -12.5q-59 0 -116 23t-94 50t-85.5 50t-93.5 23q-38 0 -74.5 -15 t-61.5 -37t-44 -44t-28 -37z" />
<glyph unicode="&#xa1;" horiz-adv-x="530" d="M258 981q0 51 29.5 81t77.5 30q49 0 78.5 -31.5t29.5 -79.5q0 -52 -29 -81.5t-79 -29.5q-48 0 -77.5 30t-29.5 81zM285 -397v1042h161v-1042h-161z" />
<glyph unicode="&#xa2;" d="M166 475q0 197 94 331.5t260 164.5v297h152v-291q44 -4 83.5 -14t64.5 -21t43 -22t26 -18l8 -7v-168q-4 5 -10.5 12.5t-32 27t-54.5 34.5t-77.5 27t-101.5 12q-138 0 -217.5 -98t-79.5 -267t80 -265.5t217 -96.5q55 0 105 12t82 29.5t56.5 35t35.5 29.5l11 12v-161 q-9 -9 -27 -22.5t-80 -39.5t-132 -33v-274h-152v279q-166 31 -260 164t-94 331z" />
<glyph unicode="&#xa3;" d="M86 53v158q9 -8 26.5 -20t75 -33t119.5 -23h12q72 0 114 46.5t42 121.5q0 88 -45 180h-250v115h182q-8 12 -45.5 65.5t-50.5 74t-41 70.5t-39 85t-21.5 86.5t-10.5 103.5q0 182 107.5 299t289.5 117q183 0 285 -94.5t102 -247.5q0 -36 -6 -68.5t-12 -46.5l-5 -14h-147 q18 39 18 117q0 102 -59.5 160.5t-171.5 58.5q-106 0 -172 -73t-66 -206q0 -73 25 -145t54 -117t78.5 -115.5t72.5 -109.5h350v-115h-293q29 -89 29 -164q0 -100 -60 -182q130 7 243 29.5t160 41.5l48 19v-155q-20 -8 -59 -20t-178 -32t-300 -20h-165q-69 0 -128 13t-84 27z " />
<glyph unicode="&#xa5;" horiz-adv-x="1171" d="M35 1337v144h26q173 0 315 -125.5t212 -372.5q66 246 205.5 372t302.5 126h41v-144q-83 0 -163 -43t-152 -140.5t-111 -235.5h362v-130h-389q-6 -44 -14 -129h403v-129h-405v-530h-164v530h-404v129h400q-3 58 -13 129h-387v130h359q-30 105 -78.5 187.5t-105.5 132 t-118 74.5t-122 25z" />
<glyph unicode="&#xa6;" horiz-adv-x="722" d="M287 422h149v-799h-147zM287 784v799h149v-799h-149z" />
<glyph unicode="&#xa7;" horiz-adv-x="1165" d="M70 621q0 177 145 299q-61 77 -61 204q0 168 121.5 271.5t342.5 103.5q102 0 189 -16.5t123 -32.5l37 -16v-166q-5 4 -15.5 10.5t-45.5 23t-72.5 29t-96.5 23t-119 10.5q-147 0 -226 -64t-79 -178q0 -60 27 -103t72 -67.5t104 -42t124 -31t129.5 -30t123.5 -44t104 -67 t72 -105.5t27 -153q0 -177 -148 -301q62 -78 62 -201q0 -169 -121 -269.5t-344 -100.5q-64 0 -123.5 6.5t-98.5 15.5t-69 18.5t-44 16.5l-13 6v168q6 -4 16 -10.5t45 -23t73 -29t97 -23t119 -10.5q147 0 225 61t78 174q0 60 -26.5 102.5t-72 67t-104 42t-123 31.5t-129 30.5 t-123 44t-104 67.5t-72 105.5t-26.5 153.5zM227 629q0 -72 31 -123t79.5 -78t116.5 -48.5t133 -34t139 -35t124 -50.5q86 93 86 209q0 72 -31 123.5t-79.5 78.5t-116.5 49t-133 34.5t-139 35t-124 50.5q-86 -83 -86 -211z" />
<glyph unicode="&#xa8;" horiz-adv-x="831" d="M178 1210q0 51 27 80t74 29q49 0 76.5 -29t27.5 -80t-27.5 -80.5t-76.5 -29.5q-46 0 -73.5 31.5t-27.5 78.5zM455 1210q0 51 27.5 80t74.5 29q49 0 75.5 -29t26.5 -80q0 -52 -26.5 -81t-75.5 -29q-46 0 -74 31.5t-28 78.5z" />
<glyph unicode="&#xa9;" horiz-adv-x="1773" d="M117 741q0 212 102 386t278.5 273t389.5 99q159 0 301.5 -57.5t245.5 -157.5t163 -241.5t60 -301.5q0 -157 -60.5 -299t-163 -244.5t-245.5 -162.5t-301 -60q-159 0 -302 60t-245.5 162.5t-162.5 244.5t-60 299zM256 741q0 -178 82.5 -323t227 -227t321.5 -82 q175 0 319.5 82t228 227t83.5 323q0 184 -84 329t-227.5 222.5t-319.5 77.5q-178 0 -321.5 -79t-226.5 -223.5t-83 -326.5zM504 735q0 219 109.5 349t297.5 130q64 0 119.5 -12t79.5 -24l23 -11v-149q-10 8 -28.5 19.5t-74.5 30.5t-112 19q-121 0 -194 -91t-73 -261 q0 -163 73 -257.5t198 -94.5q59 0 113.5 19t78.5 38l25 19v-144q-9 -7 -26.5 -16.5t-75.5 -26t-122 -16.5q-194 0 -302.5 132t-108.5 347z" />
<glyph unicode="&#xaa;" horiz-adv-x="825" d="M84 1141q0 159 86 258.5t233 99.5q37 0 71 -6t55.5 -14.5t38 -17.5t23.5 -15l7 -6v-408q0 -61 49 -61q29 0 52.5 14.5t32.5 29.5l9 15v-117q-5 -6 -14 -15t-39.5 -24.5t-64.5 -15.5q-14 0 -26.5 2.5t-23 7.5t-19 10.5t-15.5 13t-12 13.5t-10 14t-7 12.5t-5 10.5l-3 6 q-5 -10 -14 -21.5t-29 -31t-55 -32.5t-78 -13q-110 0 -176 80t-66 211zM207 1141q0 -85 34 -132.5t93 -47.5q66 0 102.5 47t36.5 106v266q-27 13 -74 13q-86 0 -139 -67t-53 -185z" />
<glyph unicode="&#xab;" horiz-adv-x="1171" d="M225 555l363 360l102 -102l-258 -258l258 -258l-102 -104zM614 555l363 360l102 -102l-258 -258l258 -258l-102 -104z" />
<glyph unicode="&#xac;" d="M137 541v145h824v-461h-150v316h-674z" />
<glyph unicode="&#xad;" horiz-adv-x="876" d="M219 485v150h541v-150h-541z" />
<glyph unicode="&#xae;" horiz-adv-x="1773" d="M117 741q0 212 102 386t278.5 273t389.5 99q159 0 301.5 -57.5t245.5 -157.5t163 -241.5t60 -301.5q0 -157 -60.5 -299t-163 -244.5t-245.5 -162.5t-301 -60q-159 0 -302 60t-245.5 162.5t-162.5 244.5t-60 299zM256 741q0 -178 82.5 -323t227 -227t321.5 -82 q175 0 319.5 82t228 227t83.5 323q0 184 -84 329t-227.5 222.5t-319.5 77.5q-178 0 -321.5 -79t-226.5 -223.5t-83 -326.5zM520 975v147q6 5 17.5 12t49 26.5t77.5 34t100.5 26.5t120.5 12q174 0 266 -79t92 -208q0 -127 -77.5 -203t-213.5 -94q37 -110 114.5 -165.5 t182.5 -55.5v-129h-26q-174 0 -288 121.5t-136 335.5h51q122 0 186 47t64 139q0 168 -217 168q-37 0 -72 -4.5t-51 -9.5l-17 -4v-785h-137v733q-18 -12 -39.5 -28t-34.5 -26z" />
<glyph unicode="&#xaf;" horiz-adv-x="831" d="M145 1133v147h541v-147h-541z" />
<glyph unicode="&#xb0;" horiz-adv-x="911" d="M119 1165q0 150 92 242t246 92q155 0 245.5 -91.5t90.5 -242.5q0 -152 -90.5 -244t-245.5 -92q-152 0 -245 98.5t-93 237.5zM266 1165q0 -89 52 -148t139 -59q89 0 138.5 55.5t49.5 151.5t-49.5 150.5t-138.5 54.5t-140 -55t-51 -150z" />
<glyph unicode="&#xb1;" d="M137 0v145h824v-145h-824zM137 502v141h336v268h152v-268h336v-141h-336v-266h-152v266h-336z" />
<glyph unicode="&#xb4;" horiz-adv-x="831" d="M195 1100v145q71 0 142.5 16.5t123 39.5t93 46t62.5 39l21 17v-164q-7 -6 -19.5 -15t-55.5 -33t-90.5 -42.5t-122.5 -33.5t-154 -15z" />
<glyph unicode="&#xb6;" horiz-adv-x="1181" d="M76 1085q0 103 39 181t108 124t156.5 68.5t191.5 22.5h494v-1743h-147v1616h-195v-1616h-152v948q-106 3 -193 26.5t-156 69.5t-107.5 123t-38.5 180z" />
<glyph unicode="&#xb7;" horiz-adv-x="876" d="M387 559q0 53 28 83t79 30q49 0 76.5 -30t27.5 -83q0 -51 -27.5 -80.5t-76.5 -29.5q-50 0 -78.5 31.5t-28.5 78.5z" />
<glyph unicode="&#xb8;" horiz-adv-x="831" d="M190 -360l48 104q7 -5 19 -12.5t51 -20t79 -12.5q34 0 56 17t22 44q0 38 -37.5 52t-151.5 14l89 174h124l-47 -96q73 -3 117.5 -39t44.5 -103q0 -77 -57.5 -125.5t-155.5 -48.5q-55 0 -105 13t-73 26z" />
<glyph unicode="&#xba;" horiz-adv-x="815" d="M86 1169q0 153 80 242.5t203 89.5q125 0 200.5 -86.5t75.5 -240.5l-4 -56q32 6 59.5 20t39.5 25l12 11v-111q-6 -5 -17 -12.5t-47 -21t-74 -15.5q-33 -80 -98.5 -126t-150.5 -46q-125 0 -202 88t-77 239zM205 1169q0 -110 44 -167.5t116 -57.5q91 0 127 82 q-61 17 -95.5 60.5t-34.5 103.5t33.5 96.5t87.5 42.5q-31 68 -114 68q-70 0 -117 -62t-47 -166zM467 1194q0 -28 16.5 -47.5t40.5 -24.5q4 25 4 56q0 61 -32 61q-29 0 -29 -45z" />
<glyph unicode="&#xbb;" horiz-adv-x="1171" d="M225 297l258 258l-258 258l105 102l360 -360l-360 -362zM614 297l258 258l-258 258l105 102l360 -360l-360 -362z" />
<glyph unicode="&#xbf;" horiz-adv-x="729" d="M137 -131q0 69 18 128t44.5 98.5t57.5 84t57.5 84.5t44.5 100.5t18 131.5v147h162v-143q0 -96 -24.5 -171.5t-59.5 -124.5t-70 -94t-59.5 -102t-24.5 -125t42 -108.5t118 -40.5q43 0 82 8.5t65 20.5t46 24t29 21l9 8v-166q-10 -7 -28.5 -17t-80.5 -26.5t-130 -16.5 q-158 0 -237 76.5t-79 202.5zM350 979q0 51 28 81t77 30t77.5 -31.5t28.5 -79.5q0 -53 -27.5 -82t-78.5 -29q-50 0 -77.5 29.5t-27.5 81.5z" />
<glyph unicode="&#xc0;" horiz-adv-x="1347" d="M57 -23v148q118 0 187 86t114 283q-88 15 -162.5 37.5t-105.5 37.5l-31 15v159q13 -8 38.5 -21t111 -42t180.5 -45l68 309q61 284 181.5 419.5t307.5 135.5q50 0 94.5 -7.5t72 -18.5t48 -22t29.5 -19l8 -7v-530q0 -166 11.5 -319t28 -253t32.5 -176.5t28 -111.5l11 -35 h-168q-7 19 -18 56t-35.5 168t-38.5 280q-160 -33 -404 -33q-43 0 -117 4q-57 -240 -165 -369t-267 -129h-39zM557 616q29 -2 88 -2q231 0 393 35q-6 114 -6 246v440q-29 17 -84 17q-127 0 -201.5 -98t-125.5 -336zM651 1731v163q8 -6 22.5 -16.5t61 -37t95 -46.5t121 -36.5 t143.5 -16.5v-146q-78 0 -152.5 14t-125 34t-89.5 40t-57 34z" />
<glyph unicode="&#xc1;" horiz-adv-x="1347" d="M57 -23v148q118 0 187 86t114 283q-88 15 -162.5 37.5t-105.5 37.5l-31 15v159q13 -8 38.5 -21t111 -42t180.5 -45l68 309q61 284 181.5 419.5t307.5 135.5q50 0 94.5 -7.5t72 -18.5t48 -22t29.5 -19l8 -7v-530q0 -166 11.5 -319t28 -253t32.5 -176.5t28 -111.5l11 -35 h-168q-7 19 -18 56t-35.5 168t-38.5 280q-160 -33 -404 -33q-43 0 -117 4q-57 -240 -165 -369t-267 -129h-39zM557 616q29 -2 88 -2q231 0 393 35q-6 114 -6 246v440q-29 17 -84 17q-127 0 -201.5 -98t-125.5 -336zM690 1581v145q71 0 142.5 16.5t123 39.5t93.5 46t63 40 l21 16v-164q-7 -6 -19.5 -15t-55.5 -33t-91 -42.5t-123 -33.5t-154 -15z" />
<glyph unicode="&#xc2;" horiz-adv-x="1347" d="M57 -23v148q118 0 187 86t114 283q-88 15 -162.5 37.5t-105.5 37.5l-31 15v159q13 -8 38.5 -21t111 -42t180.5 -45l68 309q61 284 181.5 419.5t307.5 135.5q50 0 94.5 -7.5t72 -18.5t48 -22t29.5 -19l8 -7v-530q0 -166 11.5 -319t28 -253t32.5 -176.5t28 -111.5l11 -35 h-168q-7 19 -18 56t-35.5 168t-38.5 280q-160 -33 -404 -33q-43 0 -117 4q-57 -240 -165 -369t-267 -129h-39zM557 616q29 -2 88 -2q231 0 393 35q-6 114 -6 246v440q-29 17 -84 17q-127 0 -201.5 -98t-125.5 -336zM616 1589v152q48 4 95.5 23.5t81 44.5t60.5 49.5t41 41.5 l13 17q5 -7 14.5 -18t39.5 -39.5t62 -51t80 -43t95 -24.5v-152q-46 4 -93.5 20t-81.5 36t-61 39.5t-41 33.5l-14 13q-5 -5 -14.5 -14t-39.5 -31.5t-62 -41t-80 -35t-95 -20.5z" />
<glyph unicode="&#xc3;" horiz-adv-x="1347" d="M57 -23v148q118 0 187 86t114 283q-88 15 -162.5 37.5t-105.5 37.5l-31 15v159q13 -8 38.5 -21t111 -42t180.5 -45l68 309q61 284 181.5 419.5t307.5 135.5q50 0 94.5 -7.5t72 -18.5t48 -22t29.5 -19l8 -7v-530q0 -166 11.5 -319t28 -253t32.5 -176.5t28 -111.5l11 -35 h-168q-7 19 -18 56t-35.5 168t-38.5 280q-160 -33 -404 -33q-43 0 -117 4q-57 -240 -165 -369t-267 -129h-39zM557 616q29 -2 88 -2q231 0 393 35q-6 114 -6 246v440q-29 17 -84 17q-127 0 -201.5 -98t-125.5 -336zM625 1595v166q2 3 5.5 8.5t17 19t29 23.5t41 18.5 t54.5 8.5q51 0 99.5 -24.5t90.5 -49t78 -24.5q27 0 52.5 9.5t42.5 22.5t30.5 26t20.5 23l6 9v-162q-2 -3 -6 -8.5t-17.5 -19.5t-29.5 -24.5t-42 -19t-55 -8.5q-41 0 -80 15.5t-65 34t-59.5 34t-63.5 15.5q-26 0 -51 -9.5t-42 -23t-30.5 -27.5t-19.5 -24z" />
<glyph unicode="&#xc4;" horiz-adv-x="1347" d="M57 -23v148q118 0 187 86t114 283q-88 15 -162.5 37.5t-105.5 37.5l-31 15v159q13 -8 38.5 -21t111 -42t180.5 -45l68 309q61 284 181.5 419.5t307.5 135.5q50 0 94.5 -7.5t72 -18.5t48 -22t29.5 -19l8 -7v-530q0 -166 11.5 -319t28 -253t32.5 -176.5t28 -111.5l11 -35 h-168q-7 19 -18 56t-35.5 168t-38.5 280q-160 -33 -404 -33q-43 0 -117 4q-57 -240 -165 -369t-267 -129h-39zM557 616q29 -2 88 -2q231 0 393 35q-6 114 -6 246v440q-29 17 -84 17q-127 0 -201.5 -98t-125.5 -336zM690 1698q0 51 27 79.5t74 28.5q49 0 76.5 -28.5 t27.5 -79.5t-27.5 -81t-76.5 -30q-46 0 -73.5 32t-27.5 79zM967 1698q0 51 27.5 79.5t74.5 28.5q49 0 75.5 -28.5t26.5 -79.5q0 -52 -26.5 -81.5t-75.5 -29.5q-46 0 -74 32t-28 79z" />
<glyph unicode="&#xc5;" horiz-adv-x="1347" d="M57 -23v148q118 0 187 86t114 283q-88 15 -162.5 37.5t-105.5 37.5l-31 15v159q13 -8 38.5 -21t111 -42t180.5 -45l68 309q61 284 181.5 419.5t307.5 135.5q50 0 94.5 -7.5t72 -18.5t48 -22t29.5 -19l8 -7v-530q0 -166 11.5 -319t28 -253t32.5 -176.5t28 -111.5l11 -35 h-168q-7 19 -18 56t-35.5 168t-38.5 280q-160 -33 -404 -33q-43 0 -117 4q-57 -240 -165 -369t-267 -129h-39zM557 616q29 -2 88 -2q231 0 393 35q-6 114 -6 246v440q-29 17 -84 17q-127 0 -201.5 -98t-125.5 -336zM737 1755q0 86 52.5 138.5t146.5 52.5q92 0 145.5 -52.5 t53.5 -138.5q0 -85 -53.5 -137.5t-145.5 -52.5q-90 0 -144.5 56.5t-54.5 133.5zM856 1755q0 -36 21.5 -61t58.5 -25q36 0 58 23.5t22 62.5q0 38 -21.5 61t-58.5 23t-58.5 -23t-21.5 -61z" />
<glyph unicode="&#xc6;" horiz-adv-x="1900" d="M57 -23v148q117 0 188.5 87.5t114.5 281.5q-88 15 -163.5 37.5t-106.5 37.5l-31 15v159q13 -8 39 -21t112 -42t181 -45l66 309q63 285 182 420t307 135q147 0 242 -67q128 67 303 67q106 0 187.5 -14.5t109.5 -28.5l29 -14v-162q-5 3 -14.5 8.5t-41.5 19t-67 23.5 t-90.5 18.5t-112.5 8.5q-161 0 -248.5 -71t-87.5 -197q0 -128 80.5 -199.5t226.5 -71.5h281v-139h-287q-164 0 -256 -72t-92 -209q0 -133 87 -205.5t259 -72.5q102 0 202 30.5t150 60.5l49 30v-170q-7 -4 -19.5 -10.5t-54 -22.5t-86 -28.5t-111.5 -23t-134 -10.5 q-248 0 -381 114.5t-133 307.5q0 49 8 88q-144 -16 -299 -16q-57 0 -119 4q-56 -238 -163.5 -368t-266.5 -130h-39zM557 618q54 -4 94 -4q205 0 375 31q61 70 164 111q-98 50 -151.5 137t-53.5 201q0 134 74 229q-43 29 -111 29q-128 0 -201.5 -97.5t-125.5 -336.5z" />
<glyph unicode="&#xc7;" horiz-adv-x="1091" d="M59 735q0 349 171 556.5t466 207.5q93 0 166.5 -15.5t101.5 -30.5l27 -15v-166q-4 3 -11 9t-32.5 20.5t-55 25.5t-79 20t-104.5 9q-215 0 -344 -163t-129 -462q0 -276 123.5 -439t351.5 -163q60 0 117.5 11.5t96 28.5t68.5 33.5t44 27.5l14 12v-162q-5 -4 -14 -10 t-40 -22t-64.5 -29t-87 -24.5t-108.5 -14.5l-37 -76q73 -3 117.5 -39t44.5 -103q0 -77 -57.5 -125.5t-155.5 -48.5q-55 0 -105 13t-72 26l-23 13l47 104q7 -5 19 -12.5t51 -20t79 -12.5q34 0 56 17t22 44q0 38 -37 52t-151 14l77 158q-177 20 -303 123t-188 263.5t-62 364.5 z" />
<glyph unicode="&#xc8;" horiz-adv-x="1024" d="M59 399q0 124 66 217t186 140q-98 52 -150 138t-52 200q0 185 136.5 295t368.5 110q106 0 187.5 -14.5t110.5 -28.5l28 -14v-162q-5 3 -14.5 8.5t-41.5 19t-67 23.5t-90.5 18.5t-112.5 8.5q-161 0 -248 -71t-87 -197q0 -128 80 -199.5t227 -71.5h280v-139h-286 q-164 0 -256.5 -72t-92.5 -209q0 -133 87.5 -205.5t259.5 -72.5q102 0 202 30.5t150 60.5l49 30v-170q-7 -4 -19.5 -10.5t-54.5 -22.5t-86.5 -28.5t-111.5 -23t-134 -10.5q-248 0 -381 114.5t-133 307.5zM336 1731v163l22 -16.5t60.5 -37t95.5 -46.5t121 -36.5t143 -16.5 v-146q-78 0 -152.5 14t-124.5 34t-89 40t-58 34z" />
<glyph unicode="&#xc9;" horiz-adv-x="1024" d="M59 399q0 124 66 217t186 140q-98 52 -150 138t-52 200q0 185 136.5 295t368.5 110q106 0 187.5 -14.5t110.5 -28.5l28 -14v-162q-5 3 -14.5 8.5t-41.5 19t-67 23.5t-90.5 18.5t-112.5 8.5q-161 0 -248 -71t-87 -197q0 -128 80 -199.5t227 -71.5h280v-139h-286 q-164 0 -256.5 -72t-92.5 -209q0 -133 87.5 -205.5t259.5 -72.5q102 0 202 30.5t150 60.5l49 30v-170q-7 -4 -19.5 -10.5t-54.5 -22.5t-86.5 -28.5t-111.5 -23t-134 -10.5q-248 0 -381 114.5t-133 307.5zM371 1591v146q71 0 142.5 16t123 39.5t93 46.5t62.5 39l21 16v-163 q-7 -6 -19.5 -15.5t-55.5 -33.5t-90.5 -42.5t-122.5 -33.5t-154 -15z" />
<glyph unicode="&#xca;" horiz-adv-x="1024" d="M59 399q0 124 66 217t186 140q-98 52 -150 138t-52 200q0 185 136.5 295t368.5 110q106 0 187.5 -14.5t110.5 -28.5l28 -14v-162q-5 3 -14.5 8.5t-41.5 19t-67 23.5t-90.5 18.5t-112.5 8.5q-161 0 -248 -71t-87 -197q0 -128 80 -199.5t227 -71.5h280v-139h-286 q-164 0 -256.5 -72t-92.5 -209q0 -133 87.5 -205.5t259.5 -72.5q102 0 202 30.5t150 60.5l49 30v-170q-7 -4 -19.5 -10.5t-54.5 -22.5t-86.5 -28.5t-111.5 -23t-134 -10.5q-248 0 -381 114.5t-133 307.5zM283 1587v152q48 4 95 23.5t81 44.5t60.5 49.5t40.5 41.5l13 17 q5 -7 14.5 -18t39.5 -39.5t62 -51t80 -43t95 -24.5v-152q-46 4 -93.5 20t-81.5 36t-61 39.5t-41 33.5l-14 13l-14 -14t-39.5 -31.5t-62 -41t-79.5 -35t-95 -20.5z" />
<glyph unicode="&#xcb;" horiz-adv-x="1024" d="M59 399q0 124 66 217t186 140q-98 52 -150 138t-52 200q0 185 136.5 295t368.5 110q106 0 187.5 -14.5t110.5 -28.5l28 -14v-162q-5 3 -14.5 8.5t-41.5 19t-67 23.5t-90.5 18.5t-112.5 8.5q-161 0 -248 -71t-87 -197q0 -128 80 -199.5t227 -71.5h280v-139h-286 q-164 0 -256.5 -72t-92.5 -209q0 -133 87.5 -205.5t259.5 -72.5q102 0 202 30.5t150 60.5l49 30v-170q-7 -4 -19.5 -10.5t-54.5 -22.5t-86.5 -28.5t-111.5 -23t-134 -10.5q-248 0 -381 114.5t-133 307.5zM330 1698q0 51 26.5 79.5t73.5 28.5q50 0 77.5 -28.5t27.5 -79.5 t-28 -81t-77 -30q-46 0 -73 32t-27 79zM606 1698q0 51 27.5 79.5t75.5 28.5q49 0 75.5 -28.5t26.5 -79.5q0 -52 -26.5 -81.5t-75.5 -29.5q-46 0 -74.5 32t-28.5 79z" />
<glyph unicode="&#xcc;" horiz-adv-x="411" d="M-16 1731v163l22 -16.5t60.5 -37t95.5 -46.5t121 -36.5t143 -16.5v-146q-78 0 -152.5 14t-124.5 34t-89 40t-58 34zM121 0v1481h170v-1481h-170z" />
<glyph unicode="&#xcd;" horiz-adv-x="411" d="M-6 1591v146q71 0 142.5 16t123 39.5t93 46.5t62.5 39l21 16v-163q-7 -6 -19.5 -15.5t-55.5 -33.5t-90.5 -42.5t-122.5 -33.5t-154 -15zM121 0v1481h170v-1481h-170z" />
<glyph unicode="&#xce;" horiz-adv-x="411" d="M-82 1587v152q48 4 95.5 23.5t81 44.5t60.5 49.5t41 41.5l13 17q5 -7 14.5 -18t39.5 -39.5t62 -51t80 -43t95 -24.5v-152q-46 4 -93.5 20t-81.5 36t-61 39.5t-41 33.5l-14 13q-5 -5 -14.5 -14t-39.5 -31.5t-62 -41t-80 -35t-95 -20.5zM121 0v1481h170v-1481h-170z" />
<glyph unicode="&#xcf;" horiz-adv-x="411" d="M-35 1698q0 51 27 79.5t74 28.5q49 0 76.5 -28.5t27.5 -79.5t-27.5 -81t-76.5 -30q-46 0 -73.5 32t-27.5 79zM121 0v1481h170v-1481h-170zM242 1698q0 51 27.5 79.5t74.5 28.5q49 0 75.5 -28.5t26.5 -79.5q0 -52 -26.5 -81.5t-75.5 -29.5q-46 0 -74 32t-28 79z" />
<glyph unicode="&#xd0;" horiz-adv-x="1284" d="M35 682v133h143v438q-41 -21 -76.5 -44.5t-51.5 -36.5l-15 -13v172q8 7 23 18t68 40t112 51.5t153 40.5t193 18q160 0 283 -54.5t201 -154.5t117.5 -235.5t39.5 -302.5q0 -360 -179 -567.5t-487 -207.5q-74 0 -140.5 8t-108.5 19t-73.5 22t-44.5 19l-14 8v629h-143z M346 139q98 -24 209 -24q236 0 368 166.5t132 470.5q0 279 -121 441.5t-359 162.5q-104 0 -229 -33v-508h369v-133h-369v-543z" />
<glyph unicode="&#xd1;" horiz-adv-x="1327" d="M39 1325v145q68 29 172 29q84 0 152 -20.5t124 -59t107 -105.5t95 -149t95 -200l256 -613v1129h166v-1481h-190l-391 934q-78 180 -141 271.5t-140 127.5v-1333h-164v1360q-38 -2 -73.5 -10.5t-51.5 -16.5zM401 1595v166q2 3 5.5 8.5t17 19t29 23.5t41.5 18.5t55 8.5 q51 0 99.5 -24.5t90.5 -49t78 -24.5q27 0 52.5 9.5t42.5 22.5t30.5 26t19.5 23l7 9v-162q-2 -3 -6 -8.5t-17.5 -19.5t-29.5 -24.5t-42 -19t-55 -8.5q-41 0 -80 15.5t-65 34t-59.5 34t-63.5 15.5q-26 0 -51.5 -9.5t-42.5 -23t-30 -27.5t-19 -24z" />
<glyph unicode="&#xd2;" horiz-adv-x="1394" d="M59 733q0 230 75 402.5t218 268t338 95.5q183 0 329 -88.5t222 -267.5q34 24 64.5 52t44.5 44l14 16v-170q-33 -34 -82 -67q26 -105 31 -215q0 -10 1 -32t1 -32q0 -349 -167.5 -555.5t-459.5 -206.5q-155 0 -276 57t-197.5 159.5t-116 239t-39.5 300.5zM231 731 q0 -181 50.5 -317.5t155.5 -216.5t253 -80q209 0 332 162t123 458q0 95 -15 209q-64 -20 -145 -20q-120 0 -189 58.5t-69 156.5q0 69 36.5 117t100.5 67q-76 39 -174 39q-207 0 -333 -168.5t-126 -464.5zM469 1731v163l22 -16.5t60.5 -37t95.5 -46.5t121 -36.5t143 -16.5 v-146q-78 0 -152.5 14t-124.5 34t-89 40t-57 34zM870 1141q0 -41 29 -65.5t86 -24.5q48 0 115 18q-26 73 -65 111.5t-85 38.5q-36 0 -58 -19.5t-22 -58.5z" />
<glyph unicode="&#xd3;" horiz-adv-x="1394" d="M59 733q0 230 75 402.5t218 268t338 95.5q183 0 329 -88.5t222 -267.5q34 24 64.5 52t44.5 44l14 16v-170q-33 -34 -82 -67q26 -105 31 -215q0 -10 1 -32t1 -32q0 -349 -167.5 -555.5t-459.5 -206.5q-155 0 -276 57t-197.5 159.5t-116 239t-39.5 300.5zM231 731 q0 -181 50.5 -317.5t155.5 -216.5t253 -80q209 0 332 162t123 458q0 95 -15 209q-64 -20 -145 -20q-120 0 -189 58.5t-69 156.5q0 69 36.5 117t100.5 67q-76 39 -174 39q-207 0 -333 -168.5t-126 -464.5zM477 1591v146q71 0 142.5 16t123 39.5t93.5 46.5t63 39l21 16v-163 q-7 -6 -19.5 -15.5t-55.5 -33.5t-91 -42.5t-123 -33.5t-154 -15zM870 1141q0 -41 29 -65.5t86 -24.5q48 0 115 18q-26 73 -65 111.5t-85 38.5q-36 0 -58 -19.5t-22 -58.5z" />
<glyph unicode="&#xd4;" horiz-adv-x="1394" d="M59 733q0 230 75 402.5t218 268t338 95.5q183 0 329 -88.5t222 -267.5q34 24 64.5 52t44.5 44l14 16v-170q-33 -34 -82 -67q26 -105 31 -215q0 -10 1 -32t1 -32q0 -349 -167.5 -555.5t-459.5 -206.5q-155 0 -276 57t-197.5 159.5t-116 239t-39.5 300.5zM231 731 q0 -181 50.5 -317.5t155.5 -216.5t253 -80q209 0 332 162t123 458q0 95 -15 209q-64 -20 -145 -20q-120 0 -189 58.5t-69 156.5q0 69 36.5 117t100.5 67q-76 39 -174 39q-207 0 -333 -168.5t-126 -464.5zM399 1587v152q48 4 95.5 23.5t81 44.5t60.5 49.5t40 41.5l14 17 q5 -7 14.5 -18t39.5 -39.5t62 -51t80 -43t95 -24.5v-152q-46 4 -93.5 20t-81.5 36t-61 39.5t-41 33.5l-14 13q-5 -5 -14.5 -14t-39.5 -31.5t-62 -41t-80 -35t-95 -20.5zM870 1141q0 -41 29 -65.5t86 -24.5q48 0 115 18q-26 73 -65 111.5t-85 38.5q-36 0 -58 -19.5t-22 -58.5 z" />
<glyph unicode="&#xd5;" horiz-adv-x="1394" d="M59 733q0 230 75 402.5t218 268t338 95.5q183 0 329 -88.5t222 -267.5q34 24 64.5 52t44.5 44l14 16v-170q-33 -34 -82 -67q26 -105 31 -215q0 -10 1 -32t1 -32q0 -349 -167.5 -555.5t-459.5 -206.5q-155 0 -276 57t-197.5 159.5t-116 239t-39.5 300.5zM231 731 q0 -181 50.5 -317.5t155.5 -216.5t253 -80q209 0 332 162t123 458q0 95 -15 209q-64 -20 -145 -20q-120 0 -189 58.5t-69 156.5q0 69 36.5 117t100.5 67q-76 39 -174 39q-207 0 -333 -168.5t-126 -464.5zM422 1595v166q2 3 5.5 8.5t17 19t29 23.5t41 18.5t54.5 8.5 q51 0 100 -24.5t91 -49t78 -24.5q43 0 80.5 22.5t53.5 44.5l17 23v-162q-2 -3 -5.5 -8.5t-17.5 -19.5t-29.5 -24.5t-41.5 -19t-55 -8.5q-41 0 -80 15.5t-65.5 34t-60 34t-63.5 15.5q-26 0 -51 -9.5t-42 -23t-30.5 -27.5t-19.5 -24zM870 1141q0 -41 29 -65.5t86 -24.5 q48 0 115 18q-26 73 -65 111.5t-85 38.5q-36 0 -58 -19.5t-22 -58.5z" />
<glyph unicode="&#xd6;" horiz-adv-x="1394" d="M59 733q0 230 75 402.5t218 268t338 95.5q183 0 329 -88.5t222 -267.5q34 24 64.5 52t44.5 44l14 16v-170q-33 -34 -82 -67q26 -105 31 -215q0 -10 1 -32t1 -32q0 -349 -167.5 -555.5t-459.5 -206.5q-155 0 -276 57t-197.5 159.5t-116 239t-39.5 300.5zM231 731 q0 -181 50.5 -317.5t155.5 -216.5t253 -80q209 0 332 162t123 458q0 95 -15 209q-64 -20 -145 -20q-120 0 -189 58.5t-69 156.5q0 69 36.5 117t100.5 67q-76 39 -174 39q-207 0 -333 -168.5t-126 -464.5zM451 1696q0 51 26.5 79.5t73.5 28.5q49 0 76.5 -28.5t27.5 -79.5 t-27.5 -81t-76.5 -30q-46 0 -73 32t-27 79zM727 1696q0 51 27.5 79.5t74.5 28.5q49 0 76 -28.5t27 -79.5q0 -52 -27 -81.5t-76 -29.5q-46 0 -74 32t-28 79zM870 1141q0 -41 29 -65.5t86 -24.5q48 0 115 18q-26 73 -65 111.5t-85 38.5q-36 0 -58 -19.5t-22 -58.5z" />
<glyph unicode="&#xd7;" d="M186 229l258 258l-258 258l105 103l258 -258l258 258l102 -103l-258 -258l258 -258l-102 -104l-258 258l-258 -258z" />
<glyph unicode="&#xd8;" horiz-adv-x="1378" d="M59 735q0 351 168.5 557.5t462.5 206.5q130 0 242 -45l76 166h161l-108 -240q125 -97 191.5 -262.5t66.5 -382.5q0 -165 -40 -302.5t-116.5 -239.5t-197.5 -159t-275 -57q-124 0 -239 41l-72 -157h-164l104 231q-129 97 -194.5 263t-65.5 380zM223 729 q0 -159 41.5 -285.5t120.5 -205.5l487 1083q-84 41 -184 41q-211 0 -338 -167t-127 -466zM510 152q81 -35 182 -35q148 0 253.5 78.5t157.5 215t52 318.5q0 334 -160 504z" />
<glyph unicode="&#xd9;" horiz-adv-x="1243" d="M80 580q0 160 12.5 312t31 254t36.5 181.5t30 116.5l13 37h180q-5 -13 -14 -38.5t-32 -113t-40.5 -184.5t-32 -250t-14.5 -313q0 -228 76.5 -344.5t220.5 -116.5q69 0 128.5 24t102.5 64.5t76.5 92t53.5 109t30 112t10 104.5v854h174v-1481h-174v256q-2 -6 -6.5 -16 t-22 -39t-38 -55.5t-55.5 -58.5t-75 -55t-96 -39t-118 -16q-218 0 -337.5 155t-119.5 448zM438 1731v163q8 -6 22.5 -16.5t61 -37t95 -46.5t121 -36.5t143.5 -16.5v-146q-78 0 -152.5 14t-125 34t-89.5 40t-58 34z" />
<glyph unicode="&#xda;" horiz-adv-x="1243" d="M80 580q0 160 12.5 312t31 254t36.5 181.5t30 116.5l13 37h180q-5 -13 -14 -38.5t-32 -113t-40.5 -184.5t-32 -250t-14.5 -313q0 -228 76.5 -344.5t220.5 -116.5q69 0 128.5 24t102.5 64.5t76.5 92t53.5 109t30 112t10 104.5v854h174v-1481h-174v256q-2 -6 -6.5 -16 t-22 -39t-38 -55.5t-55.5 -58.5t-75 -55t-96 -39t-118 -16q-218 0 -337.5 155t-119.5 448zM471 1591v146q71 0 142.5 16t123 39.5t93 46.5t62.5 39l21 16v-163q-7 -6 -19.5 -15.5t-55.5 -33.5t-90.5 -42.5t-122.5 -33.5t-154 -15z" />
<glyph unicode="&#xdb;" horiz-adv-x="1243" d="M80 580q0 160 12.5 312t31 254t36.5 181.5t30 116.5l13 37h180q-5 -13 -14 -38.5t-32 -113t-40.5 -184.5t-32 -250t-14.5 -313q0 -228 76.5 -344.5t220.5 -116.5q69 0 128.5 24t102.5 64.5t76.5 92t53.5 109t30 112t10 104.5v854h174v-1481h-174v256q-2 -6 -6.5 -16 t-22 -39t-38 -55.5t-55.5 -58.5t-75 -55t-96 -39t-118 -16q-218 0 -337.5 155t-119.5 448zM377 1587v152q48 4 95.5 23.5t81 44.5t60.5 49.5t40 41.5l14 17q5 -7 14 -18t39.5 -39.5t62 -51t79.5 -43t95 -24.5v-152q-46 4 -93 20t-81 36t-61 39.5t-41 33.5l-14 13 q-5 -5 -14.5 -14t-39.5 -31.5t-62 -41t-80 -35t-95 -20.5z" />
<glyph unicode="&#xdc;" horiz-adv-x="1243" d="M80 580q0 160 12.5 312t31 254t36.5 181.5t30 116.5l13 37h180q-5 -13 -14 -38.5t-32 -113t-40.5 -184.5t-32 -250t-14.5 -313q0 -228 76.5 -344.5t220.5 -116.5q69 0 128.5 24t102.5 64.5t76.5 92t53.5 109t30 112t10 104.5v854h174v-1481h-174v256q-2 -6 -6.5 -16 t-22 -39t-38 -55.5t-55.5 -58.5t-75 -55t-96 -39t-118 -16q-218 0 -337.5 155t-119.5 448zM432 1698q0 51 26.5 79.5t73.5 28.5q50 0 77.5 -28.5t27.5 -79.5t-28 -81t-77 -30q-46 0 -73 32t-27 79zM709 1698q0 51 27.5 79.5t74.5 28.5q49 0 75.5 -28.5t26.5 -79.5 q0 -52 -26.5 -81.5t-75.5 -29.5q-46 0 -74 32t-28 79z" />
<glyph unicode="&#xdd;" horiz-adv-x="1216" d="M39 1352v147h18q180 0 330.5 -132.5t222.5 -389.5q68 252 214 387t321 135h33v-147q-100 0 -187.5 -57.5t-154.5 -167t-105.5 -282.5t-38.5 -390v-455h-168v563q0 187 -44.5 341.5t-115.5 249.5t-155.5 146.5t-169.5 51.5zM426 1591v146q71 0 142.5 16t123 39.5t93 46.5 t62.5 39l21 16v-163q-7 -6 -19.5 -15.5t-55.5 -33.5t-90.5 -42.5t-122.5 -33.5t-154 -15z" />
<glyph unicode="&#xde;" horiz-adv-x="1181" d="M39 899v172q55 41 143 82v328h168v-271q115 27 230 27q270 0 416.5 -124t146.5 -335q0 -213 -155.5 -344t-409.5 -131q-125 0 -228 21v-324h-168v993q-40 -21 -75.5 -44.5t-51.5 -36.5zM350 465q97 -23 223 -23q184 0 291 90.5t107 245.5q0 149 -101 232.5t-297 83.5 q-102 0 -223 -33v-596z" />
<glyph unicode="&#xdf;" horiz-adv-x="995" d="M76 516q0 299 53.5 519t160 342t255.5 122q109 0 169 -65.5t60 -192.5q0 -239 -194 -426q109 -10 186 -73t111 -167q47 -13 90 -31.5t71 -36t49.5 -33t30.5 -24.5l10 -10v-157q-3 4 -9.5 11.5t-28 28t-46 39.5t-63.5 41.5t-80 38.5q2 -14 2 -43q0 -174 -93 -286.5 t-245 -112.5q-116 0 -185 68.5t-69 185.5q0 158 108 251t277 93h11q-61 104 -191 104q-46 0 -86 -14t-57 -28l-17 -13v137q40 21 84.5 64.5t85.5 102t68 135t27 151.5q0 60 -23.5 92.5t-65.5 32.5q-79 0 -147.5 -103.5t-111 -300t-42.5 -444.5q0 -188 19.5 -358t48 -278.5 t56.5 -190.5t47 -118l20 -36h-164q-7 13 -19.5 38.5t-44 116.5t-55.5 195.5t-43.5 275.5t-19.5 357zM451 260q0 -61 33 -95t91 -34q84 0 131.5 70t47.5 194q0 45 -6 82q-14 2 -46 2q-107 0 -179 -59t-72 -160z" />
<glyph unicode="&#xe0;" horiz-adv-x="985" d="M61 416q0 160 58 289.5t170 206.5t260 77q59 0 110.5 -8t83 -19t55 -22t32.5 -19l10 -8v-680q0 -114 100 -114q37 0 73.5 24t61.5 57.5t45 67.5t30 58l9 24v-194q-3 -7 -10 -19t-31 -43t-51 -54.5t-72 -43t-94 -19.5q-158 0 -205 136q-91 -136 -270 -136 q-166 0 -265.5 120.5t-99.5 318.5zM219 418q0 -144 58 -221.5t161 -77.5q109 0 174 74t68 174v460q-66 17 -133 17q-145 0 -236.5 -113t-91.5 -313zM297 1239v164l22 -16.5t60.5 -37t95.5 -47t121 -37t143 -16.5v-145q-78 0 -152.5 14t-124.5 34t-89 39.5t-57 33.5z" />
<glyph unicode="&#xe1;" horiz-adv-x="985" d="M61 416q0 160 58 289.5t170 206.5t260 77q59 0 110.5 -8t83 -19t55 -22t32.5 -19l10 -8v-680q0 -114 100 -114q37 0 73.5 24t61.5 57.5t45 67.5t30 58l9 24v-194q-3 -7 -10 -19t-31 -43t-51 -54.5t-72 -43t-94 -19.5q-158 0 -205 136q-91 -136 -270 -136 q-166 0 -265.5 120.5t-99.5 318.5zM219 418q0 -144 58 -221.5t161 -77.5q109 0 174 74t68 174v460q-66 17 -133 17q-145 0 -236.5 -113t-91.5 -313zM307 1100v145q71 0 142.5 16.5t123 39.5t93.5 46t63 39l21 17v-164q-7 -6 -19.5 -15t-55.5 -33t-91 -42.5t-123 -33.5 t-154 -15z" />
<glyph unicode="&#xe2;" horiz-adv-x="985" d="M61 416q0 160 58 289.5t170 206.5t260 77q59 0 110.5 -8t83 -19t55 -22t32.5 -19l10 -8v-680q0 -114 100 -114q37 0 73.5 24t61.5 57.5t45 67.5t30 58l9 24v-194q-3 -7 -10 -19t-31 -43t-51 -54.5t-72 -43t-94 -19.5q-158 0 -205 136q-91 -136 -270 -136 q-166 0 -265.5 120.5t-99.5 318.5zM219 418q0 -144 58 -221.5t161 -77.5q109 0 174 74t68 174v460q-66 17 -133 17q-145 0 -236.5 -113t-91.5 -313zM227 1085v152q48 4 95.5 23.5t81 44.5t60.5 49.5t40 41.5l14 17q5 -7 14.5 -18t39.5 -39.5t62 -51t80 -43t95 -24.5v-152 q-46 4 -93.5 20t-81.5 36t-61 39.5t-41 33.5l-14 13q-5 -5 -14.5 -14t-39.5 -31.5t-62 -41t-80 -35t-95 -20.5z" />
<glyph unicode="&#xe3;" horiz-adv-x="985" d="M61 416q0 160 58 289.5t170 206.5t260 77q59 0 110.5 -8t83 -19t55 -22t32.5 -19l10 -8v-680q0 -114 100 -114q37 0 73.5 24t61.5 57.5t45 67.5t30 58l9 24v-194q-3 -7 -10 -19t-31 -43t-51 -54.5t-72 -43t-94 -19.5q-158 0 -205 136q-91 -136 -270 -136 q-166 0 -265.5 120.5t-99.5 318.5zM219 418q0 -144 58 -221.5t161 -77.5q109 0 174 74t68 174v460q-66 17 -133 17q-145 0 -236.5 -113t-91.5 -313zM236 1092v165q2 3 5.5 8.5t17 19t29 23.5t41 18.5t54.5 8.5q51 0 99.5 -24.5t90.5 -49t78 -24.5q27 0 52.5 9.5t42.5 22.5 t30.5 26t19.5 23l7 9v-162q-2 -3 -6 -8.5t-17.5 -19.5t-29.5 -24.5t-42 -19t-55 -8.5q-41 0 -80 15.5t-65 34t-59.5 34t-63.5 15.5q-42 0 -79 -23t-54 -46z" />
<glyph unicode="&#xe4;" horiz-adv-x="985" d="M61 416q0 160 58 289.5t170 206.5t260 77q59 0 110.5 -8t83 -19t55 -22t32.5 -19l10 -8v-680q0 -114 100 -114q37 0 73.5 24t61.5 57.5t45 67.5t30 58l9 24v-194q-3 -7 -10 -19t-31 -43t-51 -54.5t-72 -43t-94 -19.5q-158 0 -205 136q-91 -136 -270 -136 q-166 0 -265.5 120.5t-99.5 318.5zM219 418q0 -144 58 -221.5t161 -77.5q109 0 174 74t68 174v460q-66 17 -133 17q-145 0 -236.5 -113t-91.5 -313zM291 1210q0 51 26.5 80t73.5 29q49 0 77 -29t28 -80t-28 -80.5t-77 -29.5q-46 0 -73 31.5t-27 78.5zM567 1210q0 51 28 80 t75 29q49 0 75.5 -29t26.5 -80q0 -52 -26.5 -81t-75.5 -29q-46 0 -74.5 31.5t-28.5 78.5z" />
<glyph unicode="&#xe5;" horiz-adv-x="985" d="M61 416q0 160 58 289.5t170 206.5t260 77q59 0 110.5 -8t83 -19t55 -22t32.5 -19l10 -8v-680q0 -114 100 -114q37 0 73.5 24t61.5 57.5t45 67.5t30 58l9 24v-194q-3 -7 -10 -19t-31 -43t-51 -54.5t-72 -43t-94 -19.5q-158 0 -205 136q-91 -136 -270 -136 q-166 0 -265.5 120.5t-99.5 318.5zM219 418q0 -144 58 -221.5t161 -77.5q109 0 174 74t68 174v460q-66 17 -133 17q-145 0 -236.5 -113t-91.5 -313zM326 1280q0 86 52 138t146 52q93 0 146 -52t53 -138q0 -85 -53.5 -137.5t-145.5 -52.5q-90 0 -144 56t-54 134zM444 1280 q0 -36 21.5 -61t58.5 -25q36 0 58 23.5t22 62.5q0 38 -21.5 61t-58.5 23t-58.5 -23t-21.5 -61z" />
<glyph unicode="&#xe6;" horiz-adv-x="1427" d="M55 416q0 160 58 289.5t170.5 206.5t261.5 77q92 0 165 -14.5t100 -28.5l26 -14v-82q4 6 10.5 15.5t31 33.5t53 43t75 34t96.5 15q128 0 202 -73.5t74 -192.5q0 -76 -29 -140.5t-77.5 -110.5t-116 -82t-139.5 -57.5t-152 -33.5q62 -178 254 -178q76 0 149.5 32.5 t124.5 78.5t91 92.5t59 79.5l19 32v-209q-6 -10 -18.5 -27t-56 -60.5t-92.5 -77t-127.5 -60.5t-162.5 -27q-127 0 -218 52t-141 149q-42 -67 -75 -101q-100 -100 -242 -100q-172 0 -272.5 120.5t-100.5 318.5zM215 418q0 -144 59.5 -222.5t161.5 -78.5q74 0 130.5 39.5 t83 98.5t26.5 126v442q-72 17 -133 17q-145 0 -236.5 -112t-91.5 -310zM838 471q0 -33 2 -47q176 22 282.5 102t106.5 199q0 66 -35 101.5t-94 35.5q-112 0 -187 -109.5t-75 -281.5z" />
<glyph unicode="&#xe7;" horiz-adv-x="751" d="M66 481q0 223 116 363.5t310 140.5q69 0 126.5 -10.5t79.5 -21.5l23 -11v-176q-3 3 -8.5 8t-25.5 18.5t-43.5 23.5t-63.5 18t-84 8q-122 0 -196.5 -96t-74.5 -265t75.5 -264.5t209.5 -95.5q51 0 99.5 18t84 42.5t69.5 62t54 65.5t40 64t24 46t10 23v-223q-4 -9 -12.5 -23 t-39 -52t-66.5 -68t-97 -58t-129 -36l-37 -78q73 -3 117.5 -39t44.5 -103q0 -77 -57.5 -125.5t-155.5 -48.5q-55 0 -105 13t-73 26l-23 13l47 104q7 -5 19.5 -12.5t51.5 -20t79 -12.5q34 0 55.5 16.5t21.5 44.5q0 38 -37 52t-151 14l78 158q-168 24 -262 158.5t-94 338.5z " />
<glyph unicode="&#xe8;" horiz-adv-x="813" d="M66 471q0 146 51.5 264t148.5 187t221 69q128 0 202.5 -73.5t74.5 -192.5q0 -77 -30 -141.5t-79 -110.5t-117 -81.5t-139 -57t-151 -33.5q61 -178 256 -178q74 0 146 31.5t119 70.5t90.5 92t59 78t26.5 45l1 2v-211q-6 -10 -18.5 -27.5t-56 -61t-92.5 -77t-128 -61 t-164 -27.5q-201 0 -311 134t-110 360zM223 471q0 -33 2 -47q175 22 282 101.5t107 199.5q0 65 -35.5 101t-93.5 36q-114 0 -188 -109t-74 -282zM225 1239v164q8 -6 22.5 -16.5t61 -37t95 -47t121 -37t143.5 -16.5v-145q-78 0 -152.5 14t-125 34t-89.5 39.5t-57 33.5z" />
<glyph unicode="&#xe9;" horiz-adv-x="813" d="M66 471q0 146 51.5 264t148.5 187t221 69q128 0 202.5 -73.5t74.5 -192.5q0 -77 -30 -141.5t-79 -110.5t-117 -81.5t-139 -57t-151 -33.5q61 -178 256 -178q74 0 146 31.5t119 70.5t90.5 92t59 78t26.5 45l1 2v-211q-6 -10 -18.5 -27.5t-56 -61t-92.5 -77t-128 -61 t-164 -27.5q-201 0 -311 134t-110 360zM223 471q0 -33 2 -47q175 22 282 101.5t107 199.5q0 65 -35.5 101t-93.5 36q-114 0 -188 -109t-74 -282zM242 1100v145q71 0 142.5 16.5t123 39.5t93 46t62.5 39l21 17v-164q-7 -6 -19.5 -15t-55.5 -33t-90.5 -42.5t-122.5 -33.5 t-154 -15z" />
<glyph unicode="&#xea;" horiz-adv-x="813" d="M66 471q0 146 51.5 264t148.5 187t221 69q128 0 202.5 -73.5t74.5 -192.5q0 -77 -30 -141.5t-79 -110.5t-117 -81.5t-139 -57t-151 -33.5q61 -178 256 -178q74 0 146 31.5t119 70.5t90.5 92t59 78t26.5 45l1 2v-211q-6 -10 -18.5 -27.5t-56 -61t-92.5 -77t-128 -61 t-164 -27.5q-201 0 -311 134t-110 360zM176 1085v152q48 4 95.5 23.5t81 44.5t60.5 49.5t41 41.5l13 17q5 -7 14.5 -18t39.5 -39.5t62 -51t80 -43t95 -24.5v-152q-46 4 -93.5 20t-81.5 36t-61 39.5t-41 33.5l-14 13q-5 -5 -14.5 -14t-39.5 -31.5t-62 -41t-80 -35t-95 -20.5z M223 471q0 -33 2 -47q175 22 282 101.5t107 199.5q0 65 -35.5 101t-93.5 36q-114 0 -188 -109t-74 -282z" />
<glyph unicode="&#xeb;" horiz-adv-x="813" d="M66 471q0 146 51.5 264t148.5 187t221 69q128 0 202.5 -73.5t74.5 -192.5q0 -77 -30 -141.5t-79 -110.5t-117 -81.5t-139 -57t-151 -33.5q61 -178 256 -178q74 0 146 31.5t119 70.5t90.5 92t59 78t26.5 45l1 2v-211q-6 -10 -18.5 -27.5t-56 -61t-92.5 -77t-128 -61 t-164 -27.5q-201 0 -311 134t-110 360zM223 471q0 -33 2 -47q175 22 282 101.5t107 199.5q0 65 -35.5 101t-93.5 36q-114 0 -188 -109t-74 -282zM233 1210q0 51 27 80t74 29q49 0 76.5 -29t27.5 -80t-27.5 -80.5t-76.5 -29.5q-46 0 -73.5 31.5t-27.5 78.5zM510 1210 q0 51 27.5 80t74.5 29q49 0 76 -29t27 -80t-27 -80.5t-76 -29.5q-46 0 -74 31.5t-28 78.5z" />
<glyph unicode="&#xec;" horiz-adv-x="419" d="M-33 1239v164q8 -6 22.5 -16.5t61 -37t95 -47t121 -37t143.5 -16.5v-145q-78 0 -152.5 14t-125 34t-89.5 39.5t-57 33.5zM113 219v746h161v-732q0 -114 99 -114q38 0 74.5 24t62 57.5t45.5 67.5t29 58l10 24v-194q-4 -7 -10.5 -19t-31 -43t-52 -54.5t-72 -43t-92.5 -19.5 q-110 0 -166.5 64.5t-56.5 177.5z" />
<glyph unicode="&#xed;" horiz-adv-x="419" d="M-10 1100v145q71 0 142.5 16.5t123 39.5t93 46t62.5 39l21 17v-164q-7 -6 -19.5 -15t-55.5 -33t-90.5 -42.5t-122.5 -33.5t-154 -15zM113 219v746h161v-732q0 -114 99 -114q38 0 74.5 24t62 57.5t45.5 67.5t29 58l10 24v-194q-4 -7 -10.5 -19t-31 -43t-52 -54.5t-72 -43 t-92.5 -19.5q-110 0 -166.5 64.5t-56.5 177.5z" />
<glyph unicode="&#xee;" horiz-adv-x="419" d="M-100 1085v152q48 4 95 23.5t81 44.5t60.5 49.5t39.5 41.5l14 17q5 -7 14.5 -18t39.5 -39.5t62 -51t80 -43t95 -24.5v-152q-46 4 -93.5 20t-81.5 36t-61 39.5t-41 33.5l-14 13l-14 -14t-39.5 -31.5t-62 -41t-79.5 -35t-95 -20.5zM113 219v746h161v-732q0 -114 99 -114 q38 0 74.5 24t62 57.5t45.5 67.5t29 58l10 24v-194q-4 -7 -10.5 -19t-31 -43t-52 -54.5t-72 -43t-92.5 -19.5q-110 0 -166.5 64.5t-56.5 177.5z" />
<glyph unicode="&#xef;" horiz-adv-x="419" d="M-43 1210q0 51 26.5 80t73.5 29q49 0 77 -29t28 -80t-28 -80.5t-77 -29.5q-46 0 -73 31.5t-27 78.5zM113 219v746h161v-732q0 -114 99 -114q38 0 74.5 24t62 57.5t45.5 67.5t29 58l10 24v-194q-4 -7 -10.5 -19t-31 -43t-52 -54.5t-72 -43t-92.5 -19.5q-110 0 -166.5 64.5 t-56.5 177.5zM233 1210q0 51 28 80t75 29q49 0 75.5 -29t26.5 -80q0 -52 -26.5 -81t-75.5 -29q-46 0 -74.5 31.5t-28.5 78.5z" />
<glyph unicode="&#xf0;" horiz-adv-x="985" d="M55 414q0 241 131.5 392.5t354.5 151.5q113 0 192 -28q-12 140 -53 241l-277 -133v136l211 100q-71 74 -161 74q-41 0 -81 -11t-60 -21l-19 -11v139q60 35 164 35q184 0 297 -138l190 91v-132l-125 -63q76 -164 76 -412q0 -250 -55 -442q-11 -91 -11 -123q0 -65 28 -100 t75 -35q38 0 75 23t63.5 56t47 66.5t30.5 56.5l11 23v-194q-4 -7 -11.5 -18.5t-33 -40.5t-53.5 -51.5t-73 -41t-91 -18.5q-141 0 -195 120q-113 -129 -270 -129q-172 0 -274.5 119.5t-102.5 317.5zM213 414q0 -148 59 -229t162 -81q97 0 166 92t103 244.5t36 350.5 q-89 34 -194 34q-147 0 -239.5 -107t-92.5 -304z" />
<glyph unicode="&#xf1;" horiz-adv-x="1005" d="M115 0v965h161v-158q15 27 36 53.5t57 58t89 51t115 19.5q141 0 214 -81.5t73 -219.5v-455q0 -114 98 -114q38 0 74.5 24t62 57.5t45.5 67.5t30 58l10 24v-194q-4 -7 -10.5 -19t-31 -43t-52 -54.5t-72 -43t-92.5 -19.5q-108 0 -166 66t-58 178v457q0 78 -40 124t-109 46 q-63 0 -117 -33t-87 -83t-51 -105t-18 -103v-524h-161zM221 1092v165q2 3 5.5 8.5t17 19t29 23.5t41.5 18.5t55 8.5q51 0 99.5 -24.5t90.5 -49t78 -24.5q43 0 80.5 22.5t54.5 44.5l16 23v-162q-2 -3 -5.5 -8.5t-17.5 -19.5t-29.5 -24.5t-41.5 -19t-55 -8.5q-41 0 -80 15.5 t-65 34t-59.5 34t-63.5 15.5q-26 0 -51.5 -9.5t-42.5 -23t-30 -27t-19 -22.5z" />
<glyph unicode="&#xf2;" horiz-adv-x="991" d="M66 475q0 234 119 372t307 138q191 0 308.5 -131.5t117.5 -372.5v-2q0 -53 -11 -121q61 5 113.5 25t75.5 37l22 18v-137q-10 -7 -29.5 -18.5t-84 -31t-134.5 -22.5q-52 -123 -151 -187.5t-227 -64.5q-192 0 -309 132.5t-117 365.5zM223 475q0 -174 75.5 -270t197.5 -96 q150 0 229 137q-96 30 -150.5 99t-54.5 165q0 95 51 151t136 56h8q-36 66 -93 99.5t-126 33.5q-120 0 -196.5 -100.5t-76.5 -274.5zM268 1239v164q8 -6 22.5 -16.5t61 -37t95 -47t121 -37t143.5 -16.5v-145q-78 0 -152.5 14t-125 34t-89.5 39.5t-58 33.5zM653 510 q0 -112 115 -143q10 62 10 118q0 55 -19 84t-48 29q-58 0 -58 -88z" />
<glyph unicode="&#xf3;" horiz-adv-x="991" d="M66 475q0 234 119 372t307 138q191 0 308.5 -131.5t117.5 -372.5v-2q0 -53 -11 -121q61 5 113.5 25t75.5 37l22 18v-137q-10 -7 -29.5 -18.5t-84 -31t-134.5 -22.5q-52 -123 -151 -187.5t-227 -64.5q-192 0 -309 132.5t-117 365.5zM223 475q0 -174 75.5 -270t197.5 -96 q150 0 229 137q-96 30 -150.5 99t-54.5 165q0 95 51 151t136 56h8q-36 66 -93 99.5t-126 33.5q-120 0 -196.5 -100.5t-76.5 -274.5zM272 1100v145q71 0 142.5 16.5t123 39.5t93.5 46t63 39l21 17v-164q-7 -6 -19.5 -15t-55.5 -33t-91 -42.5t-123 -33.5t-154 -15zM653 510 q0 -112 115 -143q10 62 10 118q0 55 -19 84t-48 29q-58 0 -58 -88z" />
<glyph unicode="&#xf4;" horiz-adv-x="991" d="M66 475q0 234 119 372t307 138q191 0 308.5 -131.5t117.5 -372.5v-2q0 -53 -11 -121q61 5 113.5 25t75.5 37l22 18v-137q-10 -7 -29.5 -18.5t-84 -31t-134.5 -22.5q-52 -123 -151 -187.5t-227 -64.5q-192 0 -309 132.5t-117 365.5zM199 1085v152q48 4 95 23.5t81 44.5 t60.5 49.5t40.5 41.5l13 17q5 -7 14.5 -18t39.5 -39.5t62 -51t80 -43t95 -24.5v-152q-46 4 -93.5 20t-81.5 36t-61 39.5t-41 33.5l-14 13l-14 -14t-39.5 -31.5t-62 -41t-79.5 -35t-95 -20.5zM223 475q0 -174 75.5 -270t197.5 -96q150 0 229 137q-96 30 -150.5 99t-54.5 165 q0 95 51 151t136 56h8q-36 66 -93 99.5t-126 33.5q-120 0 -196.5 -100.5t-76.5 -274.5zM653 510q0 -112 115 -143q10 62 10 118q0 55 -19 84t-48 29q-58 0 -58 -88z" />
<glyph unicode="&#xf5;" horiz-adv-x="991" d="M66 475q0 234 119 372t307 138q191 0 308.5 -131.5t117.5 -372.5v-2q0 -53 -11 -121q61 5 113.5 25t75.5 37l22 18v-137q-10 -7 -29.5 -18.5t-84 -31t-134.5 -22.5q-52 -123 -151 -187.5t-227 -64.5q-192 0 -309 132.5t-117 365.5zM211 1092v165q2 3 5.5 8.5t17 19 t29 23.5t41 18.5t54.5 8.5q51 0 100 -24.5t91 -49t78 -24.5q43 0 80.5 22.5t54.5 44.5l16 23v-162q-2 -3 -5.5 -8.5t-17.5 -19.5t-29.5 -24.5t-41.5 -19t-55 -8.5q-41 0 -80 15.5t-65.5 34t-60 34t-63.5 15.5q-42 0 -79 -23t-53 -46zM223 475q0 -174 75.5 -270t197.5 -96 q150 0 229 137q-96 30 -150.5 99t-54.5 165q0 95 51 151t136 56h8q-36 66 -93 99.5t-126 33.5q-120 0 -196.5 -100.5t-76.5 -274.5zM653 510q0 -112 115 -143q10 62 10 118q0 55 -19 84t-48 29q-58 0 -58 -88z" />
<glyph unicode="&#xf6;" horiz-adv-x="991" d="M66 475q0 234 119 372t307 138q191 0 308.5 -131.5t117.5 -372.5v-2q0 -53 -11 -121q61 5 113.5 25t75.5 37l22 18v-137q-10 -7 -29.5 -18.5t-84 -31t-134.5 -22.5q-52 -123 -151 -187.5t-227 -64.5q-192 0 -309 132.5t-117 365.5zM223 475q0 -174 75.5 -270t197.5 -96 q150 0 229 137q-96 30 -150.5 99t-54.5 165q0 95 51 151t136 56h8q-36 66 -93 99.5t-126 33.5q-120 0 -196.5 -100.5t-76.5 -274.5zM248 1210q0 51 26.5 80t73.5 29q49 0 77 -29t28 -80t-28 -80.5t-77 -29.5q-46 0 -73 31.5t-27 78.5zM524 1210q0 51 28 80t75 29 q49 0 75.5 -29t26.5 -80q0 -52 -26.5 -81t-75.5 -29q-46 0 -74.5 31.5t-28.5 78.5zM653 510q0 -112 115 -143q10 62 10 118q0 55 -19 84t-48 29q-58 0 -58 -88z" />
<glyph unicode="&#xf7;" d="M137 414v145h824v-145h-824zM442 182q0 49 29 79t76 30q49 0 76.5 -29.5t27.5 -79.5q0 -51 -27.5 -80.5t-76.5 -29.5q-46 0 -75.5 31.5t-29.5 78.5zM442 793q0 50 28.5 79t76.5 29q49 0 76.5 -28.5t27.5 -79.5t-27.5 -80t-76.5 -29q-46 0 -75.5 32t-29.5 77z" />
<glyph unicode="&#xf8;" horiz-adv-x="1030" d="M66 481q0 234 116.5 372t309.5 138q72 0 131 -20l73 182h154l-100 -250q127 -102 157 -301q55 -187 203 -184q20 0 39.5 6t28.5 12l10 6v-139q-35 -20 -84 -22q-116 -3 -199 61q-32 -171 -141 -265.5t-272 -94.5q-58 0 -111 12l-76 -189h-153l98 244q-89 61 -136.5 171 t-47.5 261zM221 481q0 -196 86 -291l264 656q-35 14 -79 14q-122 0 -196.5 -100.5t-74.5 -278.5zM430 117q30 -6 62 -6q124 0 197 96t73 274q0 171 -72 277z" />
<glyph unicode="&#xf9;" horiz-adv-x="1007" d="M117 276v689h164v-676q0 -78 37.5 -124t107.5 -46q51 0 96 22t76.5 57t54.5 78.5t34 86.5t11 81v521h164v-729q0 -117 99 -117q38 0 74.5 24t61.5 57.5t44.5 67.5t28.5 58l10 24v-194q-4 -7 -10.5 -19t-30.5 -43t-51.5 -54.5t-72.5 -43t-93 -19.5q-95 0 -151.5 50.5 t-68.5 142.5q-10 -20 -22.5 -40t-39.5 -49.5t-58 -51t-79.5 -37t-103.5 -15.5q-138 0 -210 81.5t-72 217.5zM274 1239v164q8 -6 22.5 -16.5t61 -37t95 -47t121 -37t143.5 -16.5v-145q-78 0 -152.5 14t-125 34t-89.5 39.5t-58 33.5z" />
<glyph unicode="&#xfa;" horiz-adv-x="1007" d="M117 276v689h164v-676q0 -78 37.5 -124t107.5 -46q51 0 96 22t76.5 57t54.5 78.5t34 86.5t11 81v521h164v-729q0 -117 99 -117q38 0 74.5 24t61.5 57.5t44.5 67.5t28.5 58l10 24v-194q-4 -7 -10.5 -19t-30.5 -43t-51.5 -54.5t-72.5 -43t-93 -19.5q-95 0 -151.5 50.5 t-68.5 142.5q-10 -20 -22.5 -40t-39.5 -49.5t-58 -51t-79.5 -37t-103.5 -15.5q-138 0 -210 81.5t-72 217.5zM285 1100v145q71 0 142.5 16.5t123 39.5t93 46t62.5 39l21 17v-164q-7 -6 -19.5 -15t-55.5 -33t-90.5 -42.5t-122.5 -33.5t-154 -15z" />
<glyph unicode="&#xfb;" horiz-adv-x="1007" d="M117 276v689h164v-676q0 -78 37.5 -124t107.5 -46q51 0 96 22t76.5 57t54.5 78.5t34 86.5t11 81v521h164v-729q0 -117 99 -117q38 0 74.5 24t61.5 57.5t44.5 67.5t28.5 58l10 24v-194q-4 -7 -10.5 -19t-30.5 -43t-51.5 -54.5t-72.5 -43t-93 -19.5q-95 0 -151.5 50.5 t-68.5 142.5q-10 -20 -22.5 -40t-39.5 -49.5t-58 -51t-79.5 -37t-103.5 -15.5q-138 0 -210 81.5t-72 217.5zM207 1085v152q48 4 95.5 23.5t81 44.5t60.5 49.5t40 41.5l14 17q5 -7 14 -18t39.5 -39.5t62 -51t79.5 -43t95 -24.5v-152q-46 4 -93 20t-81 36t-61 39.5t-41 33.5 l-14 13q-5 -5 -14.5 -14t-39.5 -31.5t-62 -41t-80 -35t-95 -20.5z" />
<glyph unicode="&#xfc;" horiz-adv-x="1007" d="M117 276v689h164v-676q0 -78 37.5 -124t107.5 -46q51 0 96 22t76.5 57t54.5 78.5t34 86.5t11 81v521h164v-729q0 -117 99 -117q38 0 74.5 24t61.5 57.5t44.5 67.5t28.5 58l10 24v-194q-4 -7 -10.5 -19t-30.5 -43t-51.5 -54.5t-72.5 -43t-93 -19.5q-95 0 -151.5 50.5 t-68.5 142.5q-10 -20 -22.5 -40t-39.5 -49.5t-58 -51t-79.5 -37t-103.5 -15.5q-138 0 -210 81.5t-72 217.5zM258 1210q0 51 26.5 80t73.5 29q49 0 77 -29t28 -80t-28 -80.5t-77 -29.5q-46 0 -73 31.5t-27 78.5zM535 1210q0 51 27.5 80t74.5 29q49 0 75.5 -29t26.5 -80 q0 -52 -26.5 -81t-75.5 -29q-46 0 -74 31.5t-28 78.5z" />
<glyph unicode="&#xfd;" horiz-adv-x="948" d="M66 524q0 76 7.5 149.5t19 124t22.5 90t19 58.5l7 19h164q-3 -6 -8 -18t-18.5 -53.5t-23.5 -88t-18 -121.5t-8 -154q0 -180 77 -279t210 -99q86 0 152 14q4 94 4 147q0 109 -12 216t-29 182.5t-33.5 135t-28.5 89.5l-12 29h162q4 -10 11.5 -28.5t26.5 -82t33.5 -133 t26.5 -179t12 -223.5q0 -17 -1 -49t-1 -47q47 23 91.5 54t71.5 54t54 52t32.5 36.5t13.5 18.5v-170q-4 -5 -11 -13t-32 -31.5t-54 -45t-77 -48t-101 -46.5q-33 -268 -144 -416.5t-292 -148.5q-127 0 -197.5 68t-70.5 180q0 193 217 294q-128 47 -195 166t-67 297zM266 -229 q0 -58 31.5 -90.5t87.5 -32.5q105 0 172 101.5t96 285.5q-69 -13 -121 -26.5t-104.5 -35.5t-86 -48.5t-54.5 -66t-21 -87.5zM270 1100v145q71 0 142.5 16.5t123 39.5t93.5 46t63 39l21 17v-164q-7 -6 -19.5 -15t-55.5 -33t-91 -42.5t-123 -33.5t-154 -15z" />
<glyph unicode="&#xfe;" horiz-adv-x="1005" d="M117 -377v1858h159v-647q14 25 34 48t52.5 49t81 42t105.5 16q157 0 256.5 -115t114.5 -309q64 -20 118.5 -51t76.5 -52l22 -20v-161q-3 4 -9 11t-27 27t-44.5 38t-60.5 40.5t-76 38.5q-7 -108 -40 -193.5t-83 -137.5t-110.5 -78.5t-127.5 -26.5q-108 0 -174 67t-66 179 q0 159 109.5 255.5t278.5 96.5q9 0 27.5 -1t27.5 -1q-18 122 -82 187t-158 65q-57 0 -105 -26.5t-77 -68t-45.5 -88t-18.5 -90.5v-952h-159zM461 252q0 -60 28 -90.5t76 -30.5q82 0 140.5 86.5t62.5 255.5q-18 2 -55 2q-108 0 -180 -61t-72 -162z" />
<glyph unicode="&#xff;" horiz-adv-x="950" d="M68 524q0 76 7.5 149.5t19 124t22.5 90t19 58.5l7 19h164q-3 -6 -8 -18t-18.5 -53.5t-23.5 -88t-18 -121.5t-8 -154q0 -180 77 -279t210 -99q86 0 152 14q4 94 4 147q0 109 -12 216t-29 182.5t-33.5 135t-28.5 89.5l-12 29h162q4 -10 11.5 -28.5t26.5 -82t33.5 -133 t26.5 -179t12 -223.5q0 -17 -1 -49t-1 -47q47 23 91.5 54t71.5 54t54 52t32.5 36.5t13.5 18.5v-170q-4 -5 -11 -13t-32 -31.5t-54 -45t-77 -48t-101 -46.5q-33 -268 -144 -416.5t-292 -148.5q-127 0 -197.5 68t-70.5 180q0 193 217 294q-128 47 -195 166t-67 297zM201 1210 q0 51 26.5 80t73.5 29q49 0 77 -29t28 -80t-28 -80.5t-77 -29.5q-46 0 -73 31.5t-27 78.5zM268 -229q0 -58 31.5 -90.5t87.5 -32.5q105 0 172 101.5t96 285.5q-69 -13 -121 -26.5t-104.5 -35.5t-86 -48.5t-54.5 -66t-21 -87.5zM477 1210q0 51 28 80t75 29q49 0 75.5 -29 t26.5 -80q0 -52 -26.5 -81t-75.5 -29q-46 0 -74.5 31.5t-28.5 78.5z" />
<glyph unicode="&#x152;" horiz-adv-x="1863" d="M55 735q0 353 167 558.5t466 205.5q221 0 377 -127q140 127 389 127q106 0 187.5 -14.5t110.5 -28.5l28 -14v-162q-5 3 -14.5 8.5t-41.5 19t-67 23.5t-90.5 18.5t-112.5 8.5q-161 0 -248.5 -71t-87.5 -197q0 -128 80 -199.5t227 -71.5h281v-139h-287q-164 0 -256 -72 t-92 -209q0 -133 87 -205.5t259 -72.5q64 0 129 12.5t112 30.5t85 35.5t57 30.5l19 12v-170q-7 -4 -19.5 -10.5t-54.5 -22.5t-86.5 -28.5t-111.5 -23t-134 -10.5q-238 0 -373 107q-143 -107 -358 -107q-155 0 -276 57t-197 159t-115 239t-39 303zM227 729q0 -280 118.5 -443 t336.5 -163q158 0 264 72q-47 89 -47 204q0 124 66 217t186 140q-98 52 -150.5 138t-52.5 200q0 84 31 157q-115 101 -297 101q-208 0 -331.5 -161t-123.5 -462z" />
<glyph unicode="&#x153;" horiz-adv-x="1515" d="M66 481q0 231 118.5 369.5t307.5 138.5q117 0 209 -57t145 -160q54 101 144 159t204 58q128 0 200 -71.5t72 -192.5q0 -94 -43.5 -170.5t-118.5 -126t-162 -80.5t-188 -47q29 -87 93.5 -132.5t158.5 -45.5q76 0 149 32.5t124 78.5t91 92.5t60 79.5l19 32v-209 q-6 -10 -18.5 -27t-56 -60.5t-92.5 -77t-127.5 -60.5t-162.5 -27q-123 0 -212 53t-140 148q-55 -95 -143.5 -145.5t-204.5 -50.5q-194 0 -310 132.5t-116 366.5zM221 481q0 -178 74 -273t197 -95q122 0 196 95t74 273q0 180 -74.5 278.5t-195.5 98.5q-120 0 -195.5 -100.5 t-75.5 -276.5zM926 471q0 -35 2 -47q176 22 282.5 102.5t106.5 200.5q0 65 -34.5 100t-92.5 35q-114 0 -189 -108t-75 -283z" />
<glyph unicode="&#x178;" horiz-adv-x="1216" d="M39 1352v147h18q180 0 330.5 -132.5t222.5 -389.5q68 252 214 387t321 135h33v-147q-100 0 -187.5 -57.5t-154.5 -167t-105.5 -282.5t-38.5 -390v-455h-168v563q0 187 -44.5 341.5t-115.5 249.5t-155.5 146.5t-169.5 51.5zM373 1696q0 51 26.5 79.5t73.5 28.5 q50 0 77.5 -28.5t27.5 -79.5t-28 -81t-77 -30q-46 0 -73 32t-27 79zM649 1696q0 51 27.5 79.5t75.5 28.5q49 0 75.5 -28.5t26.5 -79.5q0 -52 -26.5 -81.5t-75.5 -29.5q-46 0 -74.5 32t-28.5 79z" />
<glyph unicode="&#x2c6;" horiz-adv-x="831" d="M125 1085v152q48 4 95.5 23.5t81 44.5t60.5 49.5t40 41.5l14 17q5 -7 14.5 -18t39.5 -39.5t62 -51t80 -43t95 -24.5v-152q-46 4 -93.5 20t-81.5 36t-61 39.5t-41 33.5l-14 13q-5 -5 -14.5 -14t-39.5 -31.5t-62 -41t-80 -35t-95 -20.5z" />
<glyph unicode="&#x2dc;" horiz-adv-x="831" d="M133 1092v165q2 3 5.5 8.5t17 19t29 23.5t41.5 18.5t55 8.5q51 0 99.5 -24.5t90.5 -49t78 -24.5q43 0 80.5 22.5t54.5 44.5l16 23v-162q-2 -3 -5.5 -8.5t-17.5 -19.5t-29.5 -24.5t-41.5 -19t-55 -8.5q-41 0 -80 15.5t-65 34t-59.5 34t-63.5 15.5q-26 0 -51.5 -9.5 t-42.5 -23t-30 -27t-19 -22.5z" />
<glyph unicode="&#x2000;" horiz-adv-x="973" />
<glyph unicode="&#x2001;" horiz-adv-x="1946" />
<glyph unicode="&#x2002;" horiz-adv-x="973" />
<glyph unicode="&#x2003;" horiz-adv-x="1946" />
<glyph unicode="&#x2004;" horiz-adv-x="648" />
<glyph unicode="&#x2005;" horiz-adv-x="486" />
<glyph unicode="&#x2006;" horiz-adv-x="324" />
<glyph unicode="&#x2007;" horiz-adv-x="324" />
<glyph unicode="&#x2008;" horiz-adv-x="243" />
<glyph unicode="&#x2009;" horiz-adv-x="389" />
<glyph unicode="&#x200a;" horiz-adv-x="108" />
<glyph unicode="&#x2010;" horiz-adv-x="876" d="M219 485v150h541v-150h-541z" />
<glyph unicode="&#x2011;" horiz-adv-x="876" d="M219 485v150h541v-150h-541z" />
<glyph unicode="&#x2012;" horiz-adv-x="876" d="M219 485v150h541v-150h-541z" />
<glyph unicode="&#x2013;" horiz-adv-x="1159" d="M219 485v146h823v-146h-823z" />
<glyph unicode="&#x2014;" horiz-adv-x="1568" d="M219 485v146h1233v-146h-1233z" />
<glyph unicode="&#x2018;" horiz-adv-x="481" d="M125 1141q0 59 12.5 117.5t29.5 100t34.5 74.5t30.5 49l12 17h162q-5 -6 -13 -17.5t-28 -48.5t-35.5 -76t-28 -98t-12.5 -116q0 -37 4.5 -70t8.5 -47l5 -14h-166q-16 43 -16 129z" />
<glyph unicode="&#x2019;" horiz-adv-x="481" d="M92 1012q5 6 13 17.5t28.5 48t36 75.5t28.5 97.5t13 115.5q0 37 -5.5 70.5t-10.5 47.5l-5 15h168q17 -43 17 -131q0 -59 -12.5 -117.5t-30 -99.5t-34.5 -74t-30 -49l-12 -16h-164z" />
<glyph unicode="&#x201a;" horiz-adv-x="530" d="M176 -266q5 6 13 17.5t28 48t35.5 75.5t28 97.5t12.5 115.5q0 37 -4.5 70.5t-9.5 47.5l-5 15h166q17 -43 17 -131q0 -59 -12.5 -117.5t-30 -99.5t-34.5 -74t-30 -49l-12 -16h-162z" />
<glyph unicode="&#x201c;" horiz-adv-x="813" d="M127 1141q0 59 12.5 117.5t29.5 100t34.5 74.5t30.5 49l12 17h162q-5 -6 -13 -17.5t-28 -48.5t-35.5 -76t-28 -98t-12.5 -116q0 -37 5 -70t10 -47l5 -14h-166q-18 43 -18 129zM434 1141q0 59 12.5 117.5t30 100t34.5 74.5t29 49l13 17h164q-5 -6 -13 -17.5t-28.5 -48.5 t-36 -76t-28.5 -98t-13 -116q0 -37 5 -70t10 -47l5 -14h-167q-17 43 -17 129z" />
<glyph unicode="&#x201d;" horiz-adv-x="813" d="M94 1012q5 6 13 17.5t28 48t35.5 75.5t28 97.5t12.5 115.5q0 37 -4.5 70.5t-8.5 47.5l-5 15h165q17 -43 17 -131q0 -59 -12.5 -117.5t-30 -99.5t-34.5 -74t-30 -49l-12 -16h-162zM401 1012q5 6 13 17.5t28 48t35.5 75.5t28 97.5t12.5 115.5q0 37 -4.5 70.5t-9.5 47.5 l-4 15h166q16 -43 16 -131q0 -59 -12.5 -117.5t-30 -99.5t-34.5 -74t-29 -49l-13 -16h-162z" />
<glyph unicode="&#x201e;" horiz-adv-x="843" d="M180 -266q5 6 13 17.5t28.5 48t36 75.5t28.5 97.5t13 115.5q0 37 -5 70.5t-10 47.5l-5 15h165q19 -43 19 -131q0 -59 -12.5 -117.5t-30 -99.5t-34.5 -74t-30 -49l-12 -16h-164zM487 -266q5 6 13 17.5t28 48t35.5 75.5t28 97.5t12.5 115.5q0 37 -4.5 70.5t-9.5 47.5l-4 15 h166q16 -43 16 -131q0 -59 -12.5 -117.5t-30 -99.5t-34.5 -74t-29 -49l-13 -16h-162z" />
<glyph unicode="&#x2022;" horiz-adv-x="802" d="M205 559q0 95 52.5 149t143.5 54t143 -54t52 -149q0 -94 -52.5 -149.5t-142.5 -55.5q-89 0 -142.5 59t-53.5 146z" />
<glyph unicode="&#x2026;" horiz-adv-x="1591" d="M260 102q0 52 28.5 81.5t78.5 29.5t78 -29.5t28 -81.5q0 -51 -28.5 -80.5t-77.5 -29.5q-48 0 -77.5 31.5t-29.5 78.5zM791 102q0 52 28 81.5t78 29.5t78.5 -29.5t28.5 -81.5q0 -51 -28.5 -80.5t-78.5 -29.5q-48 0 -77 31.5t-29 78.5zM1321 102q0 52 28 81.5t78 29.5 t78.5 -29.5t28.5 -81.5q0 -51 -28.5 -80.5t-78.5 -29.5q-48 0 -77 31.5t-29 78.5z" />
<glyph unicode="&#x202f;" horiz-adv-x="389" />
<glyph unicode="&#x2039;" horiz-adv-x="786" d="M225 555l363 360l102 -102l-258 -258l258 -258l-102 -104z" />
<glyph unicode="&#x203a;" horiz-adv-x="786" d="M225 297l258 258l-258 258l105 102l360 -360l-360 -362z" />
<glyph unicode="&#x205f;" horiz-adv-x="486" />
<glyph unicode="&#x20ac;" d="M53 539v129h144v69v68h-144v129h156q37 267 172 415t350 148q84 0 153 -12.5t96 -25.5l28 -13v-148q-11 8 -31.5 19t-90 30t-145.5 19q-149 0 -248 -109.5t-131 -322.5h424v-129h-436v-68v-69h436v-129h-424q32 -214 129.5 -322t249.5 -108q48 0 93 7t75 17.5t53.5 20.5 t34.5 17l11 7v-151q-10 -6 -30 -14.5t-91.5 -23t-155.5 -14.5q-215 0 -350 148.5t-172 415.5h-156z" />
<glyph unicode="&#x2122;" horiz-adv-x="1568" d="M78 1292v146q14 7 41 17t116 27t185 17q77 0 138.5 -5.5t84.5 -11.5l23 -5v-115q-97 20 -224 20v-649h-145v639q-52 -8 -106.5 -28t-83.5 -36zM551 737v121q113 0 147 162l41 194q30 136 90.5 204t155.5 77q39 3 70 0q23 -1 44.5 -6.5t31.5 -10.5l10 -5q47 26 108 26 q51 0 90.5 -12.5t53.5 -25.5l14 -13v-264q0 -122 15.5 -234t31.5 -164l16 -51h-147q-6 18 -15.5 53.5t-25.5 152t-16 243.5v188q-11 2 -21 2q-36 0 -61.5 -33t-39.5 -84.5t-22.5 -129.5t-11.5 -151t-6 -166q0 -17 -0.5 -26t-1 -23t-0.5 -26h-144q7 254 25.5 401.5 t65.5 235.5q-53 4 -76 -10q-64 -33 -94 -172l-41 -195q-30 -137 -94.5 -197.5t-172.5 -60.5h-20z" />
<glyph unicode="&#x25fc;" horiz-adv-x="993" d="M0 0v993h993v-993h-993z" />
</font>
</defs>
</svg>
