<?xml version="1.0" standalone="no"?>
<!DOCTYPE svg PUBLIC "-//W3C//DTD SVG 1.1//EN" "http://www.w3.org/Graphics/SVG/1.1/DTD/svg11.dtd" >
<svg xmlns="http://www.w3.org/2000/svg">
<metadata></metadata>
<defs>
<font id="telefonregular" horiz-adv-x="1024" >
<font-face units-per-em="2048" ascent="1536" descent="-512" />
<missing-glyph horiz-adv-x="512" />
<glyph horiz-adv-x="2048" />
<glyph horiz-adv-x="2048" />
<glyph unicode="&#xd;" horiz-adv-x="2048" />
<glyph unicode=" "  horiz-adv-x="512" />
<glyph unicode="&#x09;" horiz-adv-x="512" />
<glyph unicode="&#xa0;" horiz-adv-x="512" />
<glyph unicode="!" horiz-adv-x="581" d="M166.5 127.5q5.5 39.5 34.5 65.5q26 29 65.5 35t73.5 -8.5t57.5 -46t20.5 -69.5q0 -54 -36.5 -91.5t-90.5 -37.5q-38 -3 -70 20.5t-46 58t-8.5 74zM178 1413q0 14 3 17.5t16 3.5h188q13 0 15.5 -3.5t2.5 -17.5l-41 -1005q0 -13 -4 -17t-18 -4h-98q-14 0 -18.5 4t-4.5 17z " />
<glyph unicode="&#x22;" horiz-adv-x="737" d="M106 1413q-2 12 2 16.5t17 4.5h160q13 0 16.5 -4t1.5 -17l-39 -418q-3 -20 -20 -20h-78q-18 0 -21 20zM434 1413q-2 12 2 16.5t17 4.5h159q13 0 17 -4.5t2 -16.5l-39 -418q-3 -20 -21 -20h-77q-18 0 -21 20z" />
<glyph unicode="#" horiz-adv-x="1073" d="M63 387v90q0 12 4 16.5t17 4.5h172l53 301h-164q-13 0 -16.5 4t-3.5 16v90q0 13 3.5 17t16.5 4h189l59 340q5 13 8.5 16.5t16.5 3.5h102q26 0 17 -20l-60 -340h221l60 340l5 12.5t5.5 5t13.5 2.5h103q25 0 16 -20l-59 -340h149q13 0 17 -4.5t4 -16.5v-90q0 -12 -4 -16 t-17 -4h-174l-53 -301h166q13 0 16.5 -4t3.5 -17v-90q0 -12 -3.5 -16t-16.5 -4h-189l-59 -347q-5 -13 -8.5 -16.5t-16.5 -3.5h-102q-12 0 -15 4t-1 16l59 347h-221l-60 -347q-5 -14 -8 -17t-16 -3h-103q-12 0 -15 4t-1 16l59 347h-149q-13 0 -17 4t-4 16zM399 498h222 l53 301h-221z" />
<glyph unicode="$" horiz-adv-x="1046" d="M115 1044q0 135 86 230q87 97 250 112v130q0 14 3.5 17t16.5 3h88q14 0 17.5 -3.5t3.5 -16.5v-130q129 0 256 -81q16 -10 16 -21v-182q0 -15 -8 -15q-5 0 -10 5q-129 129 -254 129v-408l82 -39q270 -132 270 -348q0 -157 -93 -252.5t-259 -122.5v-133q0 -13 -3.5 -16.5 t-17.5 -3.5h-88q-13 0 -16.5 3t-3.5 17v133q-60 0 -152 25q-89 27 -135 57q-17 10 -17 21v182q0 14 9 14q6 0 10 -4q56 -56 137 -92.5t148 -36.5v436l-50 23q-148 68 -217 155t-69 213zM291 1061q0 -73 38.5 -120t121.5 -85v365q-160 -12 -160 -160zM580 217 q75 5 123.5 54.5t48.5 131.5q0 53 -23 95t-55 63q-19 15 -94 55v-399z" />
<glyph unicode="%" horiz-adv-x="1984" d="M147 1100q0 141 97 246q99 102 258 102q160 0 254 -102q98 -101 98 -246q0 -147 -98 -248q-93 -100 -254 -100t-258 100q-97 105 -97 248zM301 1100q0 -92 55 -150.5t146 -58.5q90 0 144 58.5t54 150.5t-54 150.5t-144 58.5q-91 0 -146 -58.5t-55 -150.5zM530 51 l811 1405q9 15 27 6l88 -51q17 -10 8 -29l-811 -1405q-9 -15 -26 -6l-88 52q-18 11 -9 28zM1130 334q0 141 97 246q99 102 258 102t254 -102q98 -101 98 -246q0 -147 -98 -248q-93 -100 -254 -100t-258 100q-97 105 -97 248zM1284 334q0 -92 55 -150.5t146 -58.5 q90 0 144 58.5t54 150.5t-54 150.5t-144 58.5q-91 0 -146 -58.5t-55 -150.5z" />
<glyph unicode="&#x26;" horiz-adv-x="1312" d="M102 406q0 96 33.5 171t89 129.5t152.5 120.5q8 3 8 13q0 6 -4 10q-148 177 -148 309q0 135 95 215t225 80q134 0 229 -80t95 -215q0 -111 -51.5 -188.5t-168.5 -165.5q-8 -3 -8 -14q0 -8 6 -17l273 -348q5 -8 12 -8t10 8q25 55 41 205q0 16 17 16h149q19 0 19 -16 q-9 -172 -103 -344q-6 -9 -6 -15q0 -8 8 -16l176 -229l4 -7l5 -12q0 -8 -19 -8h-174q-16 0 -27 14l-86 113q-3 6 -6 6q-4 0 -10 -6q-132 -147 -369 -147q-193 0 -331 108q-136 112 -136 318zM293 408q0 -132 82 -199q84 -66 186 -66q91 0 148.5 24t117.5 87q7 7 7 14 q0 6 -7 17l-323 401q-5 8 -12 8q-4 0 -9 -3t-6 -3q-86 -70 -94 -78q-32 -32 -59 -82q-31 -57 -31 -120zM410 1159q0 -78 114 -219q8 -8 17 -8q8 0 16 8q87 70 115 111q28 42 28 108q0 63 -40.5 103.5t-106.5 40.5q-65 0 -104 -40t-39 -104z" />
<glyph unicode="'" horiz-adv-x="409" d="M106 1413q-2 12 2 16.5t17 4.5h160q13 0 16.5 -4t1.5 -17l-39 -418q-3 -20 -20 -20h-78q-18 0 -21 20z" />
<glyph unicode="(" horiz-adv-x="536" d="M94 612q0 449 199 875q4 8 9.5 11.5t9.5 2.5t5 -2l136 -59q6 -3 8.5 -8t1.5 -9.5t-2 -5.5q-182 -385 -182 -805q0 -434 182 -819q1 -1 2 -5t-1.5 -9t-8.5 -8l-136 -60q-1 -1 -5 -1.5t-9.5 3t-9.5 11.5q-199 438 -199 888z" />
<glyph unicode=")" horiz-adv-x="536" d="M74 -212q1 4 2 5q182 385 182 819q0 420 -182 805q-1 1 -2 5.5t1.5 9.5t8.5 8l135 59q1 1 5.5 2t10 -2.5t9.5 -11.5q198 -424 198 -875q0 -452 -198 -888q-4 -8 -9.5 -11.5t-10 -3t-5.5 1.5l-135 60q-6 3 -8.5 8t-1.5 9z" />
<glyph unicode="*" horiz-adv-x="677" d="M84 1116q0 11 10 14l137 60v8l-137 62q-14 9 -6 28l43 74q9 22 27 8l123 -86l6 2l-19 148q0 12 4 16t17 4h98q13 0 17 -4t4 -16l-19 -146l6 -4l123 86q18 11 27 -8l43 -74q12 -19 -6 -28l-136 -64v-6l136 -60q14 -6 14.5 -11t-8.5 -17l-43 -74q-12 -21 -29 -8l-119 82 l-6 -4l17 -144q0 -12 -4 -16t-17 -4h-98q-13 0 -17 4t-4 16l19 144l-6 4l-121 -82q-17 -13 -29 8l-43 74q-4 8 -4 14z" />
<glyph unicode="+" d="M72 430v111q0 12 3.5 16t16.5 4h318q13 0 16.5 3.5t3.5 17.5v366q0 12 4 16.5t17 4.5h122q13 0 17 -4.5t4 -16.5v-366q0 -14 3.5 -17.5t16.5 -3.5h318q13 0 16.5 -4t3.5 -16v-111q0 -12 -3.5 -16t-16.5 -4h-318q-13 0 -16.5 -3.5t-3.5 -17.5v-369q0 -12 -4 -16t-17 -4 h-122q-13 0 -17 4t-4 16v369q0 14 -3.5 17.5t-16.5 3.5h-318q-13 0 -16.5 4t-3.5 16z" />
<glyph unicode="," horiz-adv-x="512" d="M119 -223l45 401q3 21 22 21h160q22 0 19 -21l-117 -401q-5 -14 -8.5 -17.5t-16.5 -3.5h-88q-16 0 -16 21z" />
<glyph unicode="-" horiz-adv-x="614" d="M102 492v122q0 13 4.5 17t16.5 4h369q13 0 16.5 -3.5t3.5 -17.5v-122q0 -14 -3.5 -17.5t-16.5 -3.5h-369q-13 0 -17 3.5t-4 17.5z" />
<glyph unicode="." horiz-adv-x="512" d="M131.5 127.5q5.5 39.5 34.5 65.5q26 29 65.5 35t73.5 -8.5t57.5 -46t20.5 -69.5q0 -54 -36.5 -91.5t-90.5 -37.5q-38 -3 -70 20.5t-46 58t-8.5 74z" />
<glyph unicode="/" d="M68 -98l745 1589q12 21 29 14l106 -51q21 -9 8 -29l-745 -1589q-12 -21 -29 -14l-106 51q-21 9 -8 29z" />
<glyph unicode="0" horiz-adv-x="1040" d="M92 645q0 323 109 494q111 172 319 172q210 0 318 -172q110 -168 110 -494q0 -324 -110 -495q-108 -170 -318 -170q-208 0 -319 170q-109 174 -109 495zM285 645q0 -493 235 -493q236 0 236 493q0 494 -236 494q-235 0 -235 -494z" />
<glyph unicode="1" horiz-adv-x="634" d="M66 1014v133q0 20 20 29l365 127q17 2 18.5 0.5t1.5 -17.5v-1266q0 -14 -3.5 -17t-16.5 -3h-144q-13 0 -16.5 3t-3.5 17v1020q0 17 -3.5 21t-17.5 0l-180 -60q-12 -6 -16 -3.5t-4 16.5z" />
<glyph unicode="2" horiz-adv-x="960" d="M25 14q0 13 12 25l446 475q189 201 189 397q0 107 -52.5 169.5t-154.5 62.5q-92 0 -147.5 -61t-55.5 -160q0 -21 -20 -21h-150q-18 0 -18 19q0 165 104 278t287 113q185 0 291 -106.5t106 -286.5q0 -144 -63 -267q-61 -124 -217 -291l-164 -174q-17 -17 -17 -20.5 t19 -3.5h420q13 0 16.5 -3.5t3.5 -17.5v-121q0 -14 -3 -17t-17 -3h-801q-14 0 -14 14z" />
<glyph unicode="3" horiz-adv-x="997" d="M74 313q0 15 16 15h156q13 0 16 -13q19 -77 78 -123.5t147 -46.5q109 0 173.5 63t64.5 167q0 100 -65 162.5t-173 62.5h-102q-12 0 -14 3t-2 15v125q0 9 0.5 12.5t4 5t11.5 1.5h109q80 0 128 59t48 148q0 82 -54.5 133t-146.5 51q-81 0 -133.5 -48t-52.5 -118 q0 -13 -3.5 -16.5t-17.5 -3.5h-137q-14 0 -17.5 3.5t-3.5 16.5q3 141 105 232q103 92 260 92q168 0 279 -97q106 -93 106 -245q0 -149 -119 -250q-13 -13 0 -23q180 -122 180 -321q0 -169 -120 -283q-118 -112 -308 -112q-169 0 -281 92t-132 241z" />
<glyph unicode="4" d="M10 213q0 1 0.5 2t1.5 3.5t2 4.5l795 1110q4 4 8 4q6 0 6 -6v-950q0 -12 3.5 -15.5t15.5 -3.5h110q12 0 15.5 -3t3.5 -15v-119q0 -12 -3.5 -15t-15.5 -3h-110q-12 0 -15.5 -3.5t-3.5 -15.5v-170q0 -12 -2.5 -15t-15.5 -3h-139q-12 0 -15.5 3t-3.5 15v170q0 12 -3 15.5 t-15 3.5h-606q-13 0 -13 6zM317 369q0 -7 11 -7h301q12 0 15 3.5t3 15.5v438q0 8 -4 8l-2 -2q-1 0 -2 -1t-2 -1l-313 -442q-7 -11 -7 -12z" />
<glyph unicode="5" horiz-adv-x="933" d="M55 137q0 6 11 17l98 98q10 10 14 10q6 0 15 -12q28 -41 91 -74t128 -33q112 0 184 69t72 183q0 123 -72 191.5t-201 68.5q-120 0 -211 -67q-6 -2 -14.5 -8.5t-11.5 -6.5q-8 0 -8 19l53 678q3 20 24 20h547q14 0 17.5 -3.5t3.5 -16.5v-119q0 -13 -3.5 -17t-17.5 -4h-397 q-18 0 -21 -18l-20 -291q0 -13 3 -16.5t17 -3.5q21 1 43 2l33 1.5t14 0.5q190 0 302 -115q110 -113 110 -293q0 -167 -123 -293q-118 -124 -323 -124q-208 0 -351 143q-6 6 -6 14z" />
<glyph unicode="6" d="M82 403q0 164 115 310q117 139 192 225q183 215 277 334q12 18 32 18h189q14 0 14 -4q0 -6 -8 -14l-381 -455q-4 -4 -4 -8q0 -6 10 -6h27q176 0 291 -115q114 -114 114 -285q0 -181 -119 -303q-120 -120 -317 -120q-195 0 -315 120q-117 123 -117 303zM268 403 q0 -117 66 -188.5t180 -71.5t182 73t68 187q0 108 -68.5 179t-181.5 71q-111 0 -178.5 -70t-67.5 -180z" />
<glyph unicode="7" horiz-adv-x="833" d="M49 1147v125q0 12 3.5 15t15.5 3h778q12 0 12 -8l-2 -4q0 -4 -2 -6l-600 -1254q-9 -18 -29 -18h-157q-13 0 -13 8q0 1 2 6t2 6l529 1080q2 2 2 10l2 4q0 14 -17 14h-507q-12 0 -15.5 3.5t-3.5 15.5z" />
<glyph unicode="8" horiz-adv-x="1001" d="M80 375q0 207 182 327q13 10 0 23q-119 104 -119 248q0 145 101 239q102 99 258 99t258 -99t102 -239t-123 -248q-13 -13 0 -23q183 -127 183 -327q0 -170 -119 -283q-115 -112 -303 -112t-303 112q-117 114 -117 283zM260 375q0 -94 70 -164t170 -70q102 0 172 70 q69 69 69 164q0 104 -66.5 171.5t-174.5 67.5q-107 0 -173.5 -67.5t-66.5 -171.5zM319 973q0 -80 51 -134.5t130 -54.5q81 0 133.5 54.5t52.5 134.5q0 76 -52 129t-132 53q-77 0 -130 -54.5t-53 -127.5z" />
<glyph unicode="9" horiz-adv-x="983" d="M74 901q0 178 112 293q114 117 308 117q191 0 305 -117t114 -293q0 -53 -6 -88.5t-28 -81.5q-19 -44 -43 -84q-20 -33 -76 -110q-52 -73 -96 -129l-138 -175l-168 -215q-12 -18 -32 -18h-191q-14 0 -14 4l2 2l6 12l385 486q3 3 4 5.5t-0.5 4.5t-5.5 2q-6 -2 -37 -2 q-174 0 -289 109q-112 106 -112 278zM258 901q0 -99 68 -167t172 -68t167.5 66.5t63.5 168.5q0 105 -66 175.5t-169 70.5q-104 0 -170 -70t-66 -176z" />
<glyph unicode=":" horiz-adv-x="512" d="M131.5 127.5q5.5 39.5 34.5 65.5q26 29 65.5 35t73.5 -8.5t57.5 -46t20.5 -69.5q0 -54 -36.5 -91.5t-90.5 -37.5q-38 -3 -70 20.5t-46 58t-8.5 74zM131.5 823.5q5.5 39.5 34.5 65.5q26 29 65.5 35t73.5 -8t57.5 -45.5t20.5 -69.5q0 -54 -36.5 -91.5t-90.5 -37.5 q-38 -3 -70 20.5t-46 57.5t-8.5 73.5z" />
<glyph unicode=";" horiz-adv-x="512" d="M117 -223l45 401q3 21 22 21h160q21 0 18 -21l-116 -401q-5 -14 -8.5 -17.5t-16.5 -3.5h-88q-16 0 -16 21zM131.5 823.5q5.5 39.5 34.5 65.5q26 29 65.5 35t73.5 -8t57.5 -45.5t20.5 -69.5q0 -54 -36.5 -91.5t-90.5 -37.5q-38 -3 -70 20.5t-46 57.5t-8.5 73.5z" />
<glyph unicode="&#x3c;" d="M72 455v67q0 30 20 39l840 361q4 0 6 2l4 2q10 0 10 -17v-129q0 -19 -20 -28l-635 -252q-11 -10 0 -21l635 -268q20 -9 20 -29v-129q0 -16 -10 -16l-4 2q-2 2 -6 2l-840 369q-20 9 -20 45z" />
<glyph unicode="=" d="M72 258v111q0 12 3.5 16t16.5 4h840q13 0 16.5 -4t3.5 -16v-111q0 -12 -3.5 -16t-16.5 -4h-840q-13 0 -16.5 4t-3.5 16zM72 602v111q0 12 3.5 16t16.5 4h840q13 0 16.5 -4t3.5 -16v-111q0 -12 -3.5 -16t-16.5 -4h-840q-13 0 -16.5 4t-3.5 16z" />
<glyph unicode="&#x3e;" d="M72 53v129q0 20 20 29l635 268q11 11 0 21l-635 252q-20 9 -20 28v129q0 17 10 17l4 -2q2 -2 6 -2l840 -361q20 -9 20 -39v-67q0 -36 -20 -45l-840 -369q-4 0 -6 -2l-4 -2q-10 0 -10 16z" />
<glyph unicode="?" horiz-adv-x="860" d="M74 1067v33q0 164 95.5 261t274.5 97q175 0 271 -88.5t96 -243.5q0 -63 -25 -122.5t-62 -103t-81 -91.5t-81 -88t-62 -92t-25 -105v-116q0 -13 -4 -17t-18 -4h-99q-12 0 -15.5 3.5t-8.5 17.5q-15 44 -15 155q0 72 30.5 137t74 113.5t87.5 94t74.5 97t30.5 103.5 q0 176 -172 176q-190 0 -190 -215q0 -20 -21 -20h-137q-18 0 -18 18zM291.5 127.5q5.5 39.5 34.5 65.5q26 29 65.5 35t73.5 -8.5t57.5 -46t20.5 -69.5q0 -54 -36.5 -91.5t-90.5 -37.5q-38 -3 -70 20.5t-46 58t-8.5 74z" />
<glyph unicode="@" horiz-adv-x="1556" d="M84 440q0 318 209 527q212 209 516 209q275 0 469 -170q197 -170 197 -443q0 -195 -117 -348q-118 -154 -285 -154q-91 0 -125 101q-2 6 -8 6t-8 -6q-105 -105 -236 -105q-123 0 -217 101q-92 103 -92 239q0 187 100 308q100 124 275 124q69 0 125 -29.5t82 -82.5 q1 -6 8 -6t8 6l16 76q3 18 25 18h117q12 0 13.5 -2t0.5 -16l-82 -443q-12 -62 -12 -100q0 -57 41 -57q72 0 135 100q68 103 68 248q0 228 -140 356q-139 127 -364 127q-238 0 -393 -168q-156 -170 -156 -416q0 -271 160 -436q160 -160 422 -160q284 0 403 119q4 4 10 4 q8 0 8 -14v-160q0 -10 -16 -20q-163 -82 -401 -82q-345 0 -551 200q-205 199 -205 549zM551 414q0 -82 47.5 -141.5t120.5 -59.5q102 0 162.5 73t60.5 195q0 95 -44.5 145t-123.5 50q-103 0 -163 -74.5t-60 -187.5z" />
<glyph unicode="A" horiz-adv-x="1150" d="M33 8q0 10 2 12l528 1436q1 8 10 8t11 -8l532 -1436q2 -2 2 -12q0 -8 -16 -8h-178q-21 0 -27 20l-82 216q-6 20 -27 20h-438q-20 0 -26 -20l-76 -216q-6 -20 -27 -20h-172q-16 0 -16 8zM397 449q6 -9 13 -9h321q14 0 14 6l-2 5q-2 4 -2 10l-159 446q-4 6 -12 6t-13 -6 l-156 -446z" />
<glyph unicode="B" horiz-adv-x="1073" d="M150 20v1393q0 14 3.5 17.5t16.5 3.5h332q197 0 308.5 -100t111.5 -271q0 -185 -152 -275q-8 -5 -8 -12t8 -10q103 -41 166 -130.5t63 -223.5q0 -187 -129 -301q-126 -111 -338 -111h-362q-14 0 -17 3t-3 17zM346 201q0 -13 4 -17t17 -4h194q103 0 162 66t59 176 q0 106 -62.5 169.5t-168.5 63.5h-184q-14 0 -17.5 -3.5t-3.5 -16.5v-434zM346 856q0 -13 3.5 -16.5t17.5 -3.5h135q98 0 156.5 56t58.5 157q0 96 -58 150t-157 54h-135q-14 0 -17.5 -3.5t-3.5 -16.5v-377z" />
<glyph unicode="C" horiz-adv-x="1273" d="M94 717q0 311 201 524q204 213 536 213q165 0 328 -82q17 -10 17 -20v-219q0 -15 -9 -15q-6 0 -10 4q-133 133 -326 133q-240 0 -378 -159q-138 -156 -138 -379q0 -222 138 -381q140 -158 378 -158q193 0 326 133q4 4 10 4q9 0 9 -14v-219q0 -11 -17 -21 q-161 -81 -328 -81q-332 0 -536 213q-201 213 -201 524z" />
<glyph unicode="D" horiz-adv-x="1288" d="M150 20v1393q0 14 3.5 17.5t16.5 3.5h334q229 0 389 -97q146 -90 223.5 -252t77.5 -368q0 -230 -104.5 -407.5t-292.5 -256.5q-130 -53 -312 -53h-315q-14 0 -17 3t-3 17zM350 207q0 -13 4 -17t17 -4h116q184 0 287 74q197 138 197 457q0 324 -189 457q-101 73 -297 73 h-114q-14 0 -17.5 -3.5t-3.5 -16.5v-1020z" />
<glyph unicode="E" horiz-adv-x="1048" d="M150 20v1393q0 14 3.5 17.5t16.5 3.5h764q13 0 16.5 -3.5t3.5 -17.5v-147q0 -14 -3.5 -17.5t-16.5 -3.5h-563q-14 0 -17.5 -3.5t-3.5 -16.5v-506q0 -13 4 -17t17 -4h542q14 0 17.5 -3.5t3.5 -16.5v-146q0 -13 -3.5 -16.5t-17.5 -3.5h-542q-14 0 -17.5 -3.5t-3.5 -16.5 v-283q0 -13 4 -17t17 -4h573q14 0 17.5 -3.5t3.5 -16.5v-148q0 -13 -3.5 -16.5t-17.5 -3.5h-774q-14 0 -17 3t-3 17z" />
<glyph unicode="F" horiz-adv-x="1003" d="M150 20v1393q0 14 3.5 17.5t16.5 3.5h739q13 0 17 -4t4 -17v-147q0 -14 -4 -17.5t-17 -3.5h-538q-14 0 -17.5 -3.5t-3.5 -16.5v-506q0 -13 4 -17t17 -4h522q13 0 16.5 -3t3.5 -17v-146q0 -14 -3.5 -17t-16.5 -3h-522q-14 0 -17.5 -3.5t-3.5 -16.5v-472q0 -14 -3 -17 t-17 -3h-160q-14 0 -17 3t-3 17z" />
<glyph unicode="G" horiz-adv-x="1353" d="M94 717q0 311 201 524q204 213 536 213q191 0 334 -82q17 -10 17 -20v-219q0 -15 -8 -15q-7 0 -11 4q-133 133 -332 133q-248 0 -382 -155t-134 -383q0 -233 138 -389q140 -158 387 -158q137 0 202 33q11 4 11 14v346q0 13 -3.5 17t-17.5 4h-268q-14 0 -17.5 3.5 t-3.5 16.5v141q0 13 3.5 17t17.5 4h465q13 0 16.5 -3.5t3.5 -17.5v-641q0 -13 -12 -22q-126 -102 -397 -102q-336 0 -543 213q-203 212 -203 524z" />
<glyph unicode="H" horiz-adv-x="1212" d="M150 20v1393q0 14 3.5 17.5t16.5 3.5h160q13 0 16.5 -3.5t3.5 -17.5v-694q0 -13 4 -17t17 -4h471q13 0 16.5 3.5t3.5 17.5v694q0 13 4 17t17 4h159q14 0 17.5 -4t3.5 -17v-1393q0 -13 -3.5 -16.5t-17.5 -3.5h-159q-14 0 -17.5 3.5t-3.5 16.5v472q0 14 -3 17t-17 3h-471 q-14 0 -17.5 -3.5t-3.5 -16.5v-472q0 -14 -3 -17t-17 -3h-160q-14 0 -17 3t-3 17z" />
<glyph unicode="I" horiz-adv-x="495" d="M147 20v1393q0 13 3.5 17t17.5 4h160q13 0 16.5 -3.5t3.5 -17.5v-1393q0 -14 -3 -17t-17 -3h-160q-14 0 -17.5 3.5t-3.5 16.5z" />
<glyph unicode="J" horiz-adv-x="606" d="M57 14v138q0 19 21 16q52 -10 82 -10q55 0 76.5 31.5t21.5 111.5v1116q0 17 16 17h168q17 0 17 -17v-1143q0 -154 -62 -224t-192 -70q-69 0 -127 10q-14 3 -17.5 6.5t-3.5 17.5z" />
<glyph unicode="K" horiz-adv-x="1150" d="M150 20v1393q0 14 3.5 17.5t16.5 3.5h160q13 0 16.5 -3.5t3.5 -17.5v-571q0 -13 12.5 -14t18.5 10l450 575q18 21 33 21h213q17 0 17 -7q0 -5 -9 -14l-499 -633q-10 -10 0 -20l522 -740l6 -10q4 -4 4 -6q0 -4 -18 -4h-213q-16 0 -33 20l-471 680q-6 9 -16 9 q-17 0 -17 -15v-674q0 -14 -3 -17t-17 -3h-160q-14 0 -17 3t-3 17z" />
<glyph unicode="L" horiz-adv-x="925" d="M150 20v1393q0 14 3.5 17.5t16.5 3.5h156q13 0 16.5 -3.5t3.5 -17.5v-1204q0 -13 4 -17t17 -4h475q14 0 17 -3t3 -17v-148q0 -14 -3 -17t-17 -3h-672q-14 0 -17 3t-3 17z" />
<glyph unicode="M" horiz-adv-x="1568" d="M150 20v1430q0 13 6 14h1q6 0 13 -10l602 -881q8 -8 12 -8q8 0 13 8l602 881q6 10 12 10h1q6 -1 7 -14v-1430q0 -14 -3.5 -17t-16.5 -3h-158q-13 0 -16.5 3t-3.5 17v775q0 12 -17 12q-8 0 -14 -6l-389 -549q-11 -10 -17 -10t-16 10l-389 549q-6 6 -14 6q-17 0 -17 -12 v-775q0 -14 -3 -17t-17 -3h-158q-14 0 -17 3t-3 17z" />
<glyph unicode="N" horiz-adv-x="1208" d="M137 20v1430q1 13 7 14h1q6 0 13 -10l690 -907q6 -6 14 -6q17 0 17 12v860q0 14 3.5 17.5t16.5 3.5h152q13 0 16.5 -3.5t3.5 -17.5v-1429q0 -15 -6 -15q-3 0 -14 11l-691 907q-6 6 -14 6q-16 0 -16 -12v-861q0 -13 -3.5 -16.5t-17.5 -3.5h-151q-14 0 -17.5 3.5t-3.5 16.5 z" />
<glyph unicode="O" horiz-adv-x="1622" d="M94 717q0 302 209 520q208 217 508 217t508 -217q209 -218 209 -520t-209 -520q-208 -217 -508 -217t-508 217q-209 218 -209 520zM315 717q0 -221 142 -381q143 -158 354 -158t354 158q142 160 142 381q0 222 -142 379q-141 159 -354 159t-354 -159q-142 -157 -142 -379 z" />
<glyph unicode="P" horiz-adv-x="1046" d="M150 20v1393q0 14 3.5 17.5t16.5 3.5h307q214 0 344 -91q166 -126 166 -362t-160 -363q-131 -104 -342 -104h-114q-14 0 -17.5 -3.5t-3.5 -16.5v-474q0 -14 -3 -17t-17 -3h-160q-14 0 -17 3t-3 17zM350 715q0 -13 4 -17t17 -4h129q131 0 203.5 74t72.5 209 q0 129 -67.5 202.5t-208.5 73.5h-129q-14 0 -17.5 -3.5t-3.5 -16.5v-518z" />
<glyph unicode="Q" horiz-adv-x="1632" d="M94 717q0 302 209 520q208 217 508 217q299 0 508 -215q209 -212 209 -516q0 -177 -62 -295q-61 -116 -178 -233q-6 -6 -6 -13q0 -8 27 -8l241 8q14 0 17.5 -3.5t3.5 -16.5v-142q0 -13 -3.5 -16.5t-17.5 -3.5q-331 8 -413 8q-26 0 -138 -14t-188 -14q-300 0 -508 217 q-209 218 -209 520zM315 717q0 -221 142 -381q143 -158 354 -158t354 158q142 160 142 381q0 222 -142 379q-141 159 -354 159t-354 -159q-142 -157 -142 -379z" />
<glyph unicode="R" horiz-adv-x="1116" d="M147 20v1393q0 13 3.5 17t17.5 4h326q235 0 354 -101q131 -107 131 -321q0 -156 -91 -262t-255 -138q-8 -3 -8 -8q0 -4 4 -8l444 -576l6 -10q4 -4 4 -6q0 -4 -18 -4h-205q-16 0 -33 20l-456 598q-10 13 -17 13q-8 0 -8 -19v-592q0 -14 -3 -17t-17 -3h-154q-25 0 -25 20z M346 786q0 -13 3.5 -16.5t17.5 -3.5h145q258 0 258 246q0 117 -70 179t-196 62h-137q-14 0 -17.5 -3.5t-3.5 -16.5v-447z" />
<glyph unicode="S" horiz-adv-x="1030" d="M82 233q0 7 10 17l113 112q11 11 14 11q4 0 14 -13q62 -102 130 -145t161 -43q98 0 157.5 56.5t59.5 142.5q0 31 -10.5 60.5t-26 53.5t-42.5 50t-51.5 44.5t-62 42t-65 39t-69.5 39t-66 37.5q-97 59 -156 148.5t-59 199.5q0 154 109 263q109 106 284 106q239 0 365 -178 q6 -9 6 -14q0 -7 -10 -17l-101 -100q-10 -10 -14 -10q-5 0 -14 12q-73 119 -228 119q-86 0 -135 -50t-49 -131q0 -32 13 -61.5t30.5 -50.5t52.5 -46.5t60.5 -40.5t74 -43t74.5 -44q52 -29 91.5 -55.5t82 -65t69.5 -79.5t44.5 -97.5t17.5 -120.5q0 -181 -119 -291t-321 -110 q-130 0 -248.5 65.5t-179.5 173.5q-6 9 -6 14z" />
<glyph unicode="T" horiz-adv-x="946" d="M53 1266v147q0 13 3.5 17t17.5 4h798q14 0 17.5 -4t3.5 -17v-147q0 -14 -3.5 -17.5t-17.5 -3.5h-278q-14 0 -17.5 -3.5t-3.5 -16.5v-1205q0 -14 -3.5 -17t-16.5 -3h-160q-13 0 -16.5 3t-3.5 17v1205q0 13 -3.5 16.5t-17.5 3.5h-278q-14 0 -17.5 3.5t-3.5 17.5z" />
<glyph unicode="U" horiz-adv-x="1265" d="M147 449v964q0 13 3.5 17t17.5 4h162q13 0 16.5 -3.5t3.5 -17.5v-926q0 -164 71 -238.5t214 -74.5q144 0 212 73t68 240v926q0 13 3.5 17t17.5 4h162q13 0 16.5 -3.5t3.5 -17.5v-964q0 -223 -131 -346t-352 -123q-223 0 -355.5 123.5t-132.5 345.5z" />
<glyph unicode="V" horiz-adv-x="1138" d="M33 1427q0 7 12 7h188q16 0 25 -21l299 -860q4 -6 12.5 -6t12.5 6l303 860q9 21 24 21h185q12 0 12 -7q0 -1 -0.5 -2.5t-1.5 -5t-2 -6.5l-522 -1436q-2 -7 -11 -7t-10 7l-522 1436q-1 3 -2 6.5t-1.5 5t-0.5 2.5z" />
<glyph unicode="W" horiz-adv-x="1722" d="M37 1427q0 7 12 7h193q15 0 24 -21l258 -852q10 -14 21 0l293 883q8 20 25 20t24 -20l295 -883q2 -6 10 -6t10 6l262 852q9 21 25 21h184q13 0 13 -7q0 -1 -1 -2.5t-2 -5t-2 -6.5l-487 -1436q-2 -7 -10 -7t-10 7l-308 910q-2 6 -10 6t-10 -6l-307 -910q-1 -7 -10 -7 t-11 7l-477 1436q-1 3 -2 6.5t-1.5 5t-0.5 2.5z" />
<glyph unicode="X" horiz-adv-x="1183" d="M33 8q0 1 2 6t2 6l418 695l4 12q0 1 -2 6t-2 6l-394 674l-4 12q0 9 13 9h200q18 0 27 -21l289 -502q10 -13 20 0l291 502q12 21 27 21h198q13 0 13 -9l-5 -12l-401 -674q-2 -4 -4 -12l4 -12l418 -695l4 -12q0 -8 -12 -8h-203q-18 0 -27 20l-307 523q-10 13 -20 0 l-310 -523q-11 -20 -26 -20h-201q-12 0 -12 8z" />
<glyph unicode="Y" horiz-adv-x="1122" d="M25 1425q0 9 12 9h203q17 0 26 -21l285 -465q1 -6 10 -6t10 6l287 465q12 21 27 21h200q13 0 13 -9l-4 -12l-432 -690v-703q0 -13 -3.5 -16.5t-17.5 -3.5h-160q-13 0 -16.5 3t-3.5 17v703l-432 690z" />
<glyph unicode="Z" horiz-adv-x="995" d="M43 10l4 13l578 1194q6 12 6 20q0 10 -15 10h-499q-13 0 -17 3.5t-4 17.5v145q0 13 4 17t17 4h811q14 0 14 -9l-4 -12l-573 -1196q-1 -3 -2 -7t-2 -6.5t-1 -4.5q0 -13 13 -13h506q13 0 16.5 -3t3.5 -17v-146q0 -14 -3.5 -17t-16.5 -3h-822q-14 0 -14 10z" />
<glyph unicode="[" horiz-adv-x="614" d="M145 -266v1743q0 13 3.5 16.5t17.5 3.5h369q13 0 16.5 -3.5t3.5 -16.5v-113q0 -14 -3.5 -17.5t-16.5 -3.5h-185q-14 0 -17 -3.5t-3 -16.5v-1436q0 -13 3 -16.5t17 -3.5h195q13 0 16.5 -3.5t3.5 -17.5v-112q0 -14 -3.5 -17.5t-16.5 -3.5h-379q-14 0 -17.5 3.5t-3.5 17.5z " />
<glyph unicode="\" d="M68 1425q-13 20 8 29l106 51q17 7 29 -14l745 -1589q13 -20 -8 -29l-106 -51q-17 -7 -29 14z" />
<glyph unicode="]" horiz-adv-x="614" d="M49 -154q0 14 3.5 17.5t17.5 3.5h194q14 0 17.5 3.5t3.5 16.5v1436q0 13 -3.5 16.5t-17.5 3.5h-184q-14 0 -17.5 3.5t-3.5 17.5v113q0 13 3.5 16.5t17.5 3.5h369q13 0 16.5 -3.5t3.5 -16.5v-1743q0 -14 -3.5 -17.5t-16.5 -3.5h-379q-14 0 -17.5 3.5t-3.5 17.5v112z" />
<glyph unicode="^" d="M72 741l2 4q0 5 2 7l319 661q9 21 45 21h150q30 0 39 -21l319 -661q2 -2 2 -7l2 -4q0 -10 -16 -10h-145q-20 0 -29 21l-234 493q-4 5 -12 5t-12 -5l-234 -493q-9 -21 -28 -21h-154q-16 0 -16 10z" />
<glyph unicode="_" horiz-adv-x="925" d="M12 -147q0 13 4 16.5t17 3.5h860q13 0 16.5 -3.5t3.5 -16.5v-66q0 -13 -3.5 -16.5t-16.5 -3.5h-860q-14 0 -17.5 3.5t-3.5 16.5v66z" />
<glyph unicode="`" d="M187.5 1327.5q2.5 3.5 17.5 3.5h196q19 0 33 -20l197 -254q15 -21 -4 -21h-146q-16 0 -37 21l-247 254q-12 13 -9.5 16.5z" />
<glyph unicode="a" horiz-adv-x="954" d="M66 287q0 145 98 227q104 84 246 84q140 0 233 -72q2 -2 8 -2q8 0 8 15v47q0 178 -213 178q-129 0 -213 -66q-6 -8 -14 -6.5t-8 17.5v125q0 14 16 24q80 57 236 57q373 0 373 -327v-568q0 -12 -4 -16t-17 -4h-129q-13 0 -16.5 4t-3.5 16v70q0 4 -9 4q-6 0 -8 -2 q-87 -112 -239 -112q-143 0 -244 79q-100 81 -100 228zM242 293q0 -74 54.5 -120t147.5 -46q85 0 148 57t63 125q0 62 -61 104t-150 42q-91 0 -146.5 -45t-55.5 -117z" />
<glyph unicode="b" horiz-adv-x="1126" d="M131 20v1496q0 12 4 16t17 4h139q13 0 16.5 -4t3.5 -16v-723q0 -5 8 -5q6 0 9 3q124 124 288 124q191 0 316 -137q129 -135 129 -329t-129 -332q-125 -137 -316 -137q-170 0 -288 124q-2 2 -9 2q-8 0 -8 -4v-82q0 -12 -3.5 -16t-16.5 -4h-139q-13 0 -17 4t-4 16zM311 449 q0 -129 80 -218q79 -88 205 -88q127 0 203 88q78 90 78 218q0 126 -80 215q-76 88 -201 88q-126 0 -205 -88q-80 -89 -80 -215z" />
<glyph unicode="c" horiz-adv-x="843" d="M66 449q0 200 131 331q132 135 333 135q125 0 218 -43q16 -6 16 -20v-168q0 -14 -8 -14q-1 0 -4.5 1.5t-6.5 2.5q-78 78 -210 78q-129 0 -207 -84t-78 -219q0 -137 76.5 -221.5t208.5 -84.5q142 0 219 86q2 2 8 2q8 0 8 -14v-170q0 -14 -16 -20q-100 -47 -224 -47 q-201 0 -333 135q-131 134 -131 334z" />
<glyph unicode="d" horiz-adv-x="1126" d="M66 449q0 193 127 329q128 137 317 137q171 0 289 -124q3 -3 8 -3q8 0 8 5v723q0 12 4 16t17 4h139q13 0 16.5 -4t3.5 -16v-1496q0 -12 -3.5 -16t-16.5 -4h-139q-13 0 -17 4t-4 16v82q0 4 -8 4q-6 0 -8 -2q-124 -124 -289 -124q-189 0 -317 137q-127 139 -127 332z M250 449q0 -129 80 -218q79 -88 205 -88t202 88q78 90 78 218q0 126 -80 215q-76 88 -200 88q-126 0 -205 -88q-80 -89 -80 -215z" />
<glyph unicode="e" horiz-adv-x="991" d="M74 449q0 197 119 331q120 135 307 135q196 0 307 -135q111 -132 111 -331v-58q0 -12 -4 -16t-17 -4h-608q-14 0 -18.5 -3.5t-4.5 -15.5q11 -98 85.5 -153.5t197.5 -55.5q64 0 147 25q79 24 113 61q9 9 12 9q8 0 8 -21v-141q0 -16 -16 -29q-88 -67 -264 -67 q-230 0 -352 131q-123 132 -123 338zM256 535q0 -14 3.5 -17.5t16.5 -3.5h439q5 -1 9 -1q6 0 9 3q2 2 2 8q0 94 -71 168q-59 62 -164 62q-97 0 -164.5 -62t-79.5 -157z" />
<glyph unicode="f" horiz-adv-x="546" d="M49 756v118q0 12 4 16.5t17 4.5h82q14 0 17 3.5t3 16.5v334q0 320 250 320q49 0 94 -10q21 -9 21 -25v-121q0 -18 -13 -18l-8 2q-24 8 -59 8q-105 0 -105 -139v-351q0 -13 3.5 -16.5t17.5 -3.5h125q13 0 16.5 -4t3.5 -17v-118q0 -13 -3.5 -17t-16.5 -4h-125 q-14 0 -17.5 -3.5t-3.5 -16.5v-695q0 -12 -3.5 -16t-16.5 -4h-139q-13 0 -17 4t-4 16v695q0 13 -3 16.5t-17 3.5h-82q-13 0 -17 4.5t-4 16.5z" />
<glyph unicode="g" horiz-adv-x="1122" d="M66 449q0 193 127 329q128 137 317 137q171 0 289 -124q3 -3 8 -3q8 0 8 5v81q0 12 4 16.5t17 4.5h139q13 0 16.5 -4t3.5 -17v-837q0 -236 -116 -359.5t-342 -123.5q-183 0 -291 57q-19 9 -19 24v152q0 20 9 20q3 0 12 -6q128 -84 287 -84q148 0 214 73.5t66 238.5v73 q0 4 -8 4q-6 0 -8 -2q-118 -124 -289 -124q-189 0 -317 137q-127 139 -127 332zM250 449q0 -128 78 -218q76 -88 202 -88t205 88q80 89 80 218q0 126 -80 215q-79 88 -205 88q-123 0 -202 -88q-78 -90 -78 -215z" />
<glyph unicode="h" horiz-adv-x="1056" d="M131 20v1496q0 12 4 16t17 4h139q13 0 16.5 -4t3.5 -16v-723q0 -5 8 -5q6 0 9 3q112 124 268 124q172 0 257 -91t85 -255v-549q0 -12 -3.5 -16t-16.5 -4h-140q-13 0 -16.5 4t-3.5 16v508q0 224 -197 224q-110 0 -180 -71.5t-70 -191.5v-469q0 -12 -3.5 -16t-16.5 -4h-139 q-13 0 -17 4t-4 16z" />
<glyph unicode="i" horiz-adv-x="458" d="M102 1210q0 53 37 90q37 38 90 38t90 -38q37 -37 37 -87q0 -52 -39 -91q-37 -38 -89 -38q-1 0 -1 -1q-51 0 -88 37t-37 90zM139 20v854q0 12 4 16.5t17 4.5h139q13 0 16.5 -4t3.5 -17v-854q0 -12 -3.5 -16t-16.5 -4h-139q-13 0 -17 4t-4 16z" />
<glyph unicode="j" horiz-adv-x="446" d="M-37 -299q0 19 21 16q27 -6 51 -6q104 0 104 139v1024q0 12 4 16.5t17 4.5h139q13 0 16.5 -4t3.5 -17v-1017q0 -158 -60 -233t-187 -75q-54 0 -64 2l-24 5q-18 7 -20 12q-1 4 -1 12v121zM104 1210q0 53 37 90q37 38 90.5 38t90.5 -38q36 -36 36 -86q0 -53 -39 -92 q-37 -38 -89 -38q0 -1 -1 -1q-51 0 -88 37t-37 90z" />
<glyph unicode="k" horiz-adv-x="899" d="M131 20v1496q0 12 4 16t17 4h139q13 0 16.5 -4t3.5 -16v-953q0 -13 12.5 -14t18.5 10l262 315q18 21 33 21h184q17 0 17 -6t-9 -15l-315 -372q-10 -10 0 -21l342 -461l6 -10q4 -4 4 -6q0 -4 -18 -4h-184q-16 0 -33 20l-287 402q-5 8 -16 8q-17 0 -17 -14v-396 q0 -12 -3.5 -16t-16.5 -4h-139q-13 0 -17 4t-4 16z" />
<glyph unicode="l" horiz-adv-x="458" d="M139 20v1496q0 12 4 16t17 4h139q13 0 16.5 -4t3.5 -16v-1496q0 -12 -3.5 -16t-16.5 -4h-139q-13 0 -17 4t-4 16z" />
<glyph unicode="m" horiz-adv-x="1593" d="M131 20v854q0 12 4 16.5t17 4.5h139q13 0 16.5 -4t3.5 -17v-81q0 -5 8 -5q6 0 9 3q100 124 245 124q210 0 275 -157q8 -8 16 0q133 157 287 157q324 0 324 -346v-549q0 -12 -4 -16t-17 -4h-139q-13 0 -17 4t-4 16v508q0 116 -40 170t-134 54q-105 0 -166 -70.5 t-61 -192.5v-469q0 -12 -4 -16t-17 -4h-139q-13 0 -16.5 4t-3.5 16v508q0 116 -40 170t-134 54q-105 0 -166.5 -70.5t-61.5 -192.5v-469q0 -12 -3.5 -16t-16.5 -4h-139q-13 0 -17 4t-4 16z" />
<glyph unicode="n" horiz-adv-x="1036" d="M131 20v854q0 14 3.5 17.5t17.5 3.5h139q13 0 16.5 -4t3.5 -17v-81q0 -5 8 -5q6 0 9 3q70 69 127.5 96.5t140.5 27.5q322 0 322 -346v-549q0 -12 -4 -16t-17 -4h-139q-13 0 -17 4t-4 16v508q0 224 -184 224q-107 0 -174.5 -71.5t-67.5 -191.5v-469q0 -12 -3.5 -16 t-16.5 -4h-139q-13 0 -17 4t-4 16z" />
<glyph unicode="o" horiz-adv-x="1062" d="M66 449q0 192 137 329t329 137q194 0 328 -137q137 -137 137 -329q0 -195 -137 -332q-134 -137 -328 -137q-192 0 -329 137t-137 332zM250 449q0 -128 78 -218q79 -88 204 -88q126 0 203.5 87t77.5 219q0 130 -79 216.5t-202 86.5q-125 0 -204 -88q-78 -90 -78 -215z" />
<glyph unicode="p" horiz-adv-x="1126" d="M131 -430v1304q0 12 4 16.5t17 4.5h139q13 0 16.5 -4t3.5 -17v-81q0 -5 8 -5q6 0 9 3q118 124 288 124q191 0 316 -137q129 -135 129 -329t-129 -332q-125 -137 -316 -137q-170 0 -288 124q-2 2 -9 2q-8 0 -8 -4v-532q0 -13 -3.5 -17t-16.5 -4h-139q-13 0 -17 4.5 t-4 16.5zM311 449q0 -129 80 -218q79 -88 205 -88q127 0 203 88q78 90 78 218q0 126 -80 215q-76 88 -201 88q-126 0 -205 -88q-80 -89 -80 -215z" />
<glyph unicode="q" horiz-adv-x="1126" d="M66 449q0 193 127 329q128 137 317 137q171 0 289 -124q3 -3 8 -3q8 0 8 5v81q0 12 4 16.5t17 4.5h139q13 0 16.5 -4t3.5 -17v-1304q0 -13 -3.5 -17t-16.5 -4h-139q-13 0 -17 4.5t-4 16.5v532q0 4 -8 4q-6 0 -8 -2q-118 -124 -289 -124q-189 0 -317 137 q-127 139 -127 332zM250 449q0 -128 78 -218q76 -88 202 -88t205 88q80 89 80 218q0 126 -80 215q-79 88 -205 88q-123 0 -202 -88q-78 -90 -78 -215z" />
<glyph unicode="r" horiz-adv-x="653" d="M131 20v854q0 12 4 16.5t17 4.5h139q13 0 16.5 -4t3.5 -17v-108q0 -4 8 -4q7 0 9 2q32 62 108.5 106.5t159.5 44.5q13 0 16.5 -4t3.5 -16v-147q0 -23 -10 -23l-9 1q-9 1 -22 2t-24 1q-115 0 -177.5 -93t-62.5 -261v-355q0 -12 -3.5 -16t-16.5 -4h-139q-13 0 -17 4t-4 16z " />
<glyph unicode="s" horiz-adv-x="770" d="M66 145q0 9 8 17l84 84q16 16 28 -2q80 -111 203 -111q62 0 97.5 28.5t35.5 76.5q0 33 -23.5 58t-60.5 42.5t-82 35t-90 40t-82 52t-60.5 77t-23.5 108.5q0 113 79.5 188.5t207.5 75.5q187 0 275 -122q4 -12 4 -15q0 -7 -9 -16l-79 -80q-16 -16 -29 2q-53 80 -156 80 q-55 0 -88 -28.5t-33 -73.5q0 -35 23.5 -62t61 -45t83 -35.5t91 -40t83 -51.5t61 -76.5t23.5 -109.5q0 -111 -82.5 -186.5t-230.5 -75.5q-200 0 -315 151q-4 12 -4 14z" />
<glyph unicode="t" horiz-adv-x="540" d="M49 756v118q0 12 4 16.5t17 4.5h82q14 0 17 3.5t3 16.5v273q0 21 21 33l133 82l5 3q5 3 9 3q10 0 10 -17v-377q0 -13 3.5 -16.5t17.5 -3.5h125q13 0 16.5 -4t3.5 -17v-118q0 -13 -3.5 -17t-16.5 -4h-125q-14 0 -17.5 -3.5t-3.5 -16.5v-695q0 -12 -3.5 -16t-16.5 -4h-137 q-13 0 -17 4t-4 16v695q0 13 -3 16.5t-17 3.5h-82q-13 0 -17 4.5t-4 16.5z" />
<glyph unicode="u" horiz-adv-x="966" d="M111 342v532q0 13 3.5 17t16.5 4h139q13 0 17 -4.5t4 -16.5v-520q0 -101 52 -156t140 -55t140.5 55t52.5 156v520q0 13 3.5 17t16.5 4h140q13 0 16.5 -4t3.5 -17v-532q0 -162 -99 -262t-274 -100t-273.5 100t-98.5 262z" />
<glyph unicode="v" horiz-adv-x="870" d="M15 890q3 4 18 5h157q18 0 27 -21l205 -505q4 -6 12 -6t12 6l209 505q9 21 27 21h158q16 0 16 -10q0 -7 -2 -11l-408 -892q-10 -19 -20 -19q-8 0 -18 19l-390 892q-4 8 -4 13q0 1 1 3z" />
<glyph unicode="w" horiz-adv-x="1327" d="M16 887q0 8 19 8h151q18 0 27 -21l203 -514q2 -6 12 -6t12 6l207 545q5 13 11 18q3 2 6 3q4 0 6 -3q6 -5 10 -18l209 -545q5 -6 12 -6t12 6l201 514q9 21 27 21h151q19 0 19 -8q-1 -1 -1.5 -3t-1 -5t-1.5 -5l-385 -892q-10 -19 -19 -19q-11 0 -20 19l-205 518q-2 6 -13 6 t-12 -6l-209 -518q-6 -19 -20 -19q-8 0 -18 19l-386 892z" />
<glyph unicode="x" horiz-adv-x="931" d="M33 6q0 5 6 14l295 431q8 8 0 16l-285 407q-8 8 -8 17q0 4 18 4h170q15 0 33 -21l191 -286q8 -8 16 0l193 286q18 21 32 21h164q19 0 19 -4q0 -8 -9 -17l-282 -407q-8 -8 0 -16l305 -431q8 -8 8 -13q0 -7 -18 -7h-166q-16 0 -33 20l-213 310q-8 8 -16 0l-205 -310 q-17 -20 -33 -20h-164q-18 0 -18 6z" />
<glyph unicode="y" horiz-adv-x="927" d="M16 887q0 8 19 8h158q17 0 26 -21l238 -604q1 -6 8 -6t8 6l240 604q9 21 26 21h154q18 0 18 -8q-1 -1 -1.5 -3t-1 -5t-1.5 -5l-530 -1304q-9 -21 -27 -21h-151q-19 0 -19 9l4 12l181 446q1 2 1 11t-1 10l-345 837z" />
<glyph unicode="z" horiz-adv-x="770" d="M33 10q0 1 2 6.5t2 6.5l389 682q6 12 6 20q0 10 -12 10h-326q-13 0 -16.5 3.5t-3.5 17.5v118q0 14 3.5 17.5t16.5 3.5h613q14 0 14 -8l-4 -13l-387 -679q-6 -12 -6 -19q0 -12 12 -12h334q13 0 16.5 -3.5t3.5 -17.5v-123q0 -14 -3 -17t-17 -3h-623q-14 0 -14 10z" />
<glyph unicode="{" horiz-adv-x="614" d="M66 532v146q0 14 3 17t17 3q156 0 156 248v293q0 127 68.5 192.5t185.5 65.5h49q13 0 16.5 -3.5t3.5 -16.5v-113q0 -14 -3.5 -17.5t-16.5 -3.5h-31q-98 0 -98 -131v-323q0 -243 -148 -273q-6 -2 -6 -10t6 -10q64 -14 106 -81t42 -196v-321q0 -131 98 -131h31 q13 0 16.5 -3.5t3.5 -17.5v-112q0 -14 -3.5 -17.5t-16.5 -3.5h-49q-117 0 -185.5 65.5t-68.5 192.5v291q0 250 -156 250q-14 0 -17 3t-3 17z" />
<glyph unicode="|" horiz-adv-x="512" d="M178 -492v2008q0 12 4 16t17 4h114q13 0 17 -4t4 -16v-2008q0 -12 -4 -16t-17 -4h-114q-13 0 -17 4t-4 16z" />
<glyph unicode="}" horiz-adv-x="614" d="M49 -154q0 14 3.5 17.5t17.5 3.5h30q99 0 99 131v321q0 130 41.5 197t105.5 80q6 2 6 10t-6 10q-147 30 -147 273v323q0 131 -99 131h-30q-14 0 -17.5 3.5t-3.5 17.5v113q0 13 3.5 16.5t17.5 3.5h49q117 0 185.5 -65.5t68.5 -192.5v-293q0 -248 155 -248q14 0 17.5 -3.5 t3.5 -16.5v-146q0 -13 -3.5 -16.5t-17.5 -3.5q-155 0 -155 -250v-291q0 -127 -68.5 -192.5t-185.5 -65.5h-49q-14 0 -17.5 3.5t-3.5 17.5v112z" />
<glyph unicode="~" d="M82 455v53q0 99 66 160t186 61q50 2 109 -24t102 -58t84 -57.5t61 -22.5q84 0 84 92v23q0 12 4 16t17 4h127q13 0 16.5 -4t3.5 -16v-55q0 -100 -63 -159.5t-181 -59.5q-48 0 -95 16.5t-83 40t-68 47.5t-62 40.5t-54 16.5q-86 0 -86 -94v-20q0 -12 -4 -16.5t-17 -4.5h-127 q-13 0 -16.5 4t-3.5 17z" />
<glyph unicode="&#xa1;" horiz-adv-x="581" d="M164 1329q0 54 36.5 91.5t90.5 37.5q38 3 70 -20.5t46 -57.5t8.5 -73.5t-34.5 -65.5q-26 -29 -65.5 -35t-73.5 8t-57.5 45.5t-20.5 69.5zM178 20l41 1006q0 13 4.5 17t18.5 4h98q14 0 18 -4t4 -17l41 -1006q0 -14 -2.5 -17t-15.5 -3h-188q-13 0 -16 3t-3 17z" />
<glyph unicode="&#xa2;" horiz-adv-x="872" d="M84 449q0 175 109 305q108 129 280 153v97q0 13 3.5 16.5t17.5 3.5h77q14 0 17.5 -3.5t3.5 -16.5v-93q110 -11 184 -41q17 -7 17 -20v-166q0 -14 -9 -14q-1 0 -2 0.5t-3.5 1.5t-4.5 2q-70 67 -182 76v-607q120 9 190 82q2 2 9 2q8 0 8 -14v-166q0 -13 -17 -20 q-67 -33 -190 -45v-64q0 -13 -3.5 -16.5t-17.5 -3.5h-77q-14 0 -17.5 3.5t-3.5 16.5v68q-172 24 -280 153q-109 133 -109 310zM268 449q0 -113 54.5 -192.5t150.5 -104.5v589q-96 -25 -150.5 -103t-54.5 -189z" />
<glyph unicode="&#xa3;" horiz-adv-x="1159" d="M102 20v119q0 21 21 21h137q14 0 17.5 3.5t3.5 16.5v445q0 12 -13 12h-147q-17 0 -17 16v115q0 16 17 16h147q13 0 13 13v211q0 214 110 330t303 116q159 0 322 -82q16 -10 16 -20v-199q0 -14 -8 -14q-6 0 -10 4q-133 133 -307 133q-123 0 -182.5 -65.5t-59.5 -206.5 v-207q0 -13 12 -13h303q21 0 21 -20v-107q0 -20 -21 -20h-303q-12 0 -12 -12v-445q0 -14 3.5 -17t16.5 -3h541q21 0 21 -21v-119q0 -20 -21 -20h-903q-21 0 -21 20z" />
<glyph unicode="&#xa4;" horiz-adv-x="1200" d="M80 334q-8 8 0 16l162 162q2 2 2 6q0 2 -2 4q0 4 -2 6q-72 97 -72 234q0 136 72 233q2 2 2 6q2 2 2 5q0 4 -2 6l-162 162q-8 8 0 16l90 90q8 8 16 0l162 -162q8 -8 17 0q112 74 237.5 73.5t231.5 -75.5q8 -8 16 0l162 162q8 8 16 0l90 -90q8 -8 0 -17l-162 -161 q-2 -2 -2 -6l2 -5q2 -2 2 -6q148 -232 0 -463q0 -4 -2 -6l-2 -4q0 -4 2 -6l162 -162q8 -8 0 -16l-90 -90q-8 -8 -16 0l-162 162q-8 8 -16 0q-106 -75 -231.5 -75.5t-237.5 73.5q-9 8 -17 0l-162 -162q-8 -8 -16 0zM328 762q0 -116 80 -199q79 -82 192 -82q119 0 195 82 q79 82 79 199q0 114 -79 196q-78 84 -195 84q-111 0 -192 -84q-80 -83 -80 -196z" />
<glyph unicode="&#xa5;" horiz-adv-x="1159" d="M43 1425q0 9 12 9h174q17 0 29 -21l313 -516q1 -6 10 -6t11 6l313 516q12 21 31 21h172q12 0 12 -9l-4 -12l-319 -495h196q21 0 21 -21v-98q0 -21 -21 -21h-276q-6 0 -10 -4q-33 -33 -33 -84v-47q3 -8 12 -8h307q21 0 21 -21v-98q0 -20 -21 -20h-307q-12 0 -12 -11v-465 q0 -13 -3.5 -16.5t-17.5 -3.5h-143q-14 0 -17.5 3.5t-3.5 16.5v465q-4 11 -12 11h-311q-16 0 -16 16v106q0 17 16 17h311q9 0 12 8v47q0 52 -32 84q-4 4 -11 4h-280q-16 0 -16 17v106q0 17 16 17h201l-320 495z" />
<glyph unicode="&#xa6;" horiz-adv-x="512" d="M178 328q0 12 4 16t17 4h114q13 0 17 -4t4 -16v-820q0 -12 -4 -16t-17 -4h-114q-13 0 -17 4t-4 16v820zM178 696v820q0 12 4 16t17 4h114q13 0 17 -4t4 -16v-820q0 -12 -4 -16t-17 -4h-114q-13 0 -17 4t-4 16z" />
<glyph unicode="&#xa7;" horiz-adv-x="1050" d="M82 -217q0 6 10 16l103 103q11 10 14 10t14 -12q66 -108 139.5 -155.5t172.5 -47.5q101 0 158 50.5t57 133.5q0 77 -55.5 139.5t-196.5 133.5q-220 108 -301 192q-80 83 -80 213q0 158 155 262q13 10 0 23q-116 91 -116 262q0 144 108 246q111 102 268 102 q250 0 373 -184q6 -9 6 -15t-10 -16l-98 -98q-11 -11 -15 -11t-14 13q-37 68 -97.5 107.5t-131.5 39.5q-95 0 -150 -45t-55 -129q0 -70 59 -132t193 -130q226 -116 311 -207q86 -89 86 -233q0 -181 -131 -279q-8 -6 -8 -10t8 -10q80 -100 80 -230q0 -162 -113.5 -259 t-304.5 -97q-131 0 -252 65q-116 62 -180 175q-6 9 -6 14zM293 569q0 -78 63 -129q57 -46 224 -133l110 -59q8 -5 25 -2q98 40 98 164q0 75 -71.5 141.5t-235.5 146.5l-68 33q-8 5 -22 2q-123 -37 -123 -164z" />
<glyph unicode="&#xa8;" d="M178 1184q0 51 36.5 88t86.5 37q49 0 86 -36.5t37 -86.5t-37 -87.5t-86 -37.5q-51 0 -87 35t-36 88zM600 1184q0 51 36 88t87 37q49 0 86 -37.5t37 -85.5q0 -47 -38 -86t-85 -39q-51 0 -87 35t-36 88z" />
<glyph unicode="&#xa9;" horiz-adv-x="1064" d="M66 985q0 193 137 330t329 137q193 0 330 -137t137 -330q0 -195 -137 -332t-330 -137q-192 0 -329 137t-137 332zM180 985q0 -160 99 -268q98 -107 253 -107q160 0 254 107q99 108 99 268q0 156 -99 264q-95 109 -254 109q-150 0 -253 -109q-99 -108 -99 -264zM272 985 q0 126 74.5 205.5t204.5 79.5q75 0 154 -39q14 -6 14 -29v-86q0 -16 -6 -16q-9 0 -15 6q-62 53 -147 53q-75 0 -115.5 -49t-40.5 -125q0 -78 40.5 -127t115.5 -49q85 0 147 53q8 8 13 8q8 0 8 -16v-84q0 -21 -14 -29q-64 -43 -154 -43q-126 0 -202.5 81.5t-76.5 205.5z" />
<glyph unicode="&#xaa;" horiz-adv-x="774" d="M66 1143q0 136 81.5 220.5t214.5 84.5q127 0 193 -90q2 -2 10 -2q10 0 10 4v53q0 12 4 16.5t17 4.5h92q13 0 17 -4.5t4 -18.5v-539q0 -12 -4 -16t-17 -4h-92q-13 0 -17 4t-4 16v54q0 4 -10 4q-8 0 -10 -2q-66 -90 -193 -90q-133 0 -214.5 84.5t-81.5 220.5zM210 1143 q0 -78 50 -129q51 -51 125 -51t125 51t51 129t-51 129t-125 51t-125 -51q-50 -51 -50 -129z" />
<glyph unicode="&#xab;" d="M109 451l4 12l247 416q6 12 15 12q5 0 14 -6l113 -66q12 -6 12 -14l-4 -12l-199 -326q-6 -9 -6 -23q0 -8 6 -20l199 -322q6 -9 6 -12q0 -6 -14 -14l-113 -66q-9 -6 -14 -6q-9 0 -15 12l-247 422zM518 451q0 1 2 6t2 6l248 416q6 12 14 12q6 0 15 -6l112 -66q13 -7 13 -14 l-4 -12l-199 -326q-6 -9 -6 -23q0 -8 6 -20l199 -322q6 -9 6 -12q0 -5 -15 -14l-112 -66q-9 -6 -15 -6q-8 0 -14 12l-248 422z" />
<glyph unicode="&#xac;" d="M72 635v110q0 13 3.5 17t16.5 4h840q13 0 16.5 -4t3.5 -17v-518q0 -12 -3.5 -16t-16.5 -4h-123q-13 0 -17 4t-4 16v367q0 14 -3 17t-17 3h-676q-13 0 -16.5 4t-3.5 17z" />
<glyph unicode="&#xad;" horiz-adv-x="638" d="M115 492v122q0 13 4 17t16 4h369q13 0 16.5 -3.5t3.5 -17.5v-122q0 -14 -3.5 -17.5t-16.5 -3.5h-369q-13 0 -16.5 3.5t-3.5 17.5z" />
<glyph unicode="&#xae;" horiz-adv-x="1064" d="M66 985q0 193 137 330t329 137q193 0 330 -137t137 -330q0 -195 -137 -332t-330 -137q-192 0 -329 137t-137 332zM180 985q0 -160 99 -268q98 -107 253 -107q160 0 254 107q99 108 99 268q0 156 -99 264q-95 109 -254 109q-150 0 -253 -109q-99 -108 -99 -264zM352 748 v489q0 13 3.5 16.5t17.5 3.5h180q84 0 130 -43.5t46 -119.5q0 -96 -94 -142q-4 -4 -4 -6q0 -3 6 -12l102 -186q6 -12 6 -15q0 -6 -16 -6h-92q-15 0 -25 16l-80 156q-9 21 -24 21h-27q-13 0 -16.5 -3.5t-3.5 -17.5v-151q0 -14 -3.5 -17.5t-17.5 -3.5h-67q-13 0 -17 3.5 t-4 17.5zM461 1034q0 -12 3.5 -15t16.5 -3h51q82 0 82 74q0 71 -82 71h-51q-13 0 -16.5 -3.5t-3.5 -16.5v-107z" />
<glyph unicode="&#xaf;" d="M186 1139v90q0 13 4 16.5t17 3.5h610q14 0 17.5 -3.5t3.5 -16.5v-90q0 -13 -4 -17t-17 -4h-610q-13 0 -17 4t-4 17z" />
<glyph unicode="&#xb0;" horiz-adv-x="712" d="M66 1163q0 119 79 201q84 84 211 84q125 0 209 -84q82 -82 82 -201q0 -118 -82 -200q-84 -84 -209 -84q-127 0 -211 84q-79 82 -79 200zM195 1163q0 -74 43 -125q45 -51 118 -51q75 0 117 51q44 51 44 125t-44 125q-42 51 -117 51q-73 0 -118 -51q-43 -51 -43 -125z" />
<glyph unicode="&#xb1;" d="M72 23v110q0 13 3.5 17t16.5 4h840q13 0 16.5 -4t3.5 -17v-110q0 -13 -3.5 -17t-16.5 -4h-840q-13 0 -16.5 4t-3.5 17zM72 582v110q0 13 3.5 17t16.5 4h318q14 0 17 3.5t3 16.5v264q0 12 4 16.5t17 4.5h122q13 0 17 -4.5t4 -16.5v-264q0 -13 3 -16.5t17 -3.5h318 q13 0 16.5 -4t3.5 -17v-110q0 -13 -3.5 -17t-16.5 -4h-318q-14 0 -17 -3.5t-3 -16.5v-265q0 -12 -4 -16t-17 -4h-122q-13 0 -17 4t-4 16v265q0 13 -3 16.5t-17 3.5h-318q-13 0 -16.5 4t-3.5 17z" />
<glyph unicode="&#xb2;" horiz-adv-x="681" d="M72 920q0 6 2 10l4 4l233 252q77 87 108.5 136.5t31.5 96.5q0 127 -115 127q-51 0 -80 -31t-29 -88q0 -13 -3.5 -16.5t-16.5 -3.5h-111q-14 0 -17 3.5t-3 16.5q0 121 69.5 192t194.5 71q129 0 198.5 -70t69.5 -193q0 -133 -178 -317l-45 -45q-6 -6 -6 -10q0 -6 10 -6h186 q13 0 17 -3.5t4 -17.5v-96q0 -14 -4 -17.5t-17 -3.5h-495q-8 0 -8 9z" />
<glyph unicode="&#xb3;" horiz-adv-x="681" d="M63 1139q0 13 3.5 16.5t17.5 3.5h104q14 0 17.5 -3.5t3.5 -16.5q0 -44 38 -75.5t89 -31.5q125 0 125 103q0 48 -32 75t-93 27h-68q-14 0 -17 3.5t-3 16.5v93q0 14 3 17t17 3h54q108 0 108 86q0 47 -27.5 75t-74.5 28q-96 0 -105 -89q0 -14 -3.5 -17t-16.5 -3h-99 q-14 0 -17 3t-3 17q5 100 73.5 160t178.5 60t178 -62t68 -143.5t-68 -132.5q-13 -13 0 -23q104 -70 104 -190q0 -110 -75 -176t-207 -66q-123 0 -198 66.5t-75 175.5z" />
<glyph unicode="&#xb4;" d="M393 1057l197 254q14 20 33 20h196q15 0 17.5 -3.5t-9.5 -16.5l-247 -254q-21 -21 -37 -21h-146q-19 0 -4 21z" />
<glyph unicode="&#xb5;" horiz-adv-x="1034" d="M125 -436v1310q0 13 3.5 17t16.5 4h144q13 0 16.5 -4t3.5 -17v-507q0 -224 185 -224q107 0 174 71.5t67 191.5v468q0 12 4 16.5t17 4.5h143q13 0 17 -4.5t4 -16.5v-854q0 -12 -4 -16t-17 -4h-143q-13 0 -17 4t-4 16v82q0 4 -4 4t-6 -2q-73 -67 -132.5 -95.5t-141.5 -28.5 q-85 0 -138 20q-4 0 -4 -4v-432q0 -13 -3.5 -17t-16.5 -4h-144q-13 0 -16.5 4t-3.5 17z" />
<glyph unicode="&#xb6;" horiz-adv-x="1091" d="M66 981q0 243 165 362q126 91 344 91q21 0 21 -21v-881q0 -20 -21 -20h-8q-211 0 -342 104q-159 126 -159 365zM752 -313v1726q0 14 3.5 17.5t16.5 3.5h154q13 0 16.5 -3.5t3.5 -17.5v-1726q0 -14 -3.5 -17.5t-16.5 -3.5h-154q-13 0 -16.5 3.5t-3.5 17.5z" />
<glyph unicode="&#xb7;" horiz-adv-x="512" d="M131.5 675.5q5.5 39.5 34.5 65.5q26 29 65.5 35t73.5 -8t57.5 -45.5t20.5 -69.5q0 -54 -36.5 -91.5t-90.5 -37.5q-38 -3 -70 20.5t-46 57.5t-8.5 73.5z" />
<glyph unicode="&#xb8;" d="M317 -369l17 88q3 23 22 11q50 -33 103 -33q45 0 72.5 28t27.5 80q0 44 -35.5 71.5t-91.5 27.5q-29 0 -43 -2t-18 4t0 24l16 88h57q106 0 183 -57q80 -59 80 -160q0 -98 -65.5 -165.5t-162.5 -67.5q-98 0 -151 39q-14 10 -11 24z" />
<glyph unicode="&#xb9;" horiz-adv-x="681" d="M176 1458v105q0 19 21 28l284 99q17 2 19 1t2 -18v-743q0 -12 -3 -15.5t-16 -3.5h-123q-12 0 -15 3.5t-3 15.5v538q0 18 -3 21.5t-17 -0.5l-125 -43q-21 -12 -21 12z" />
<glyph unicode="&#xba;" horiz-adv-x="774" d="M66 1145q0 133 90 217q89 86 231 86q140 0 229 -86q93 -87 93 -217q0 -136 -90 -221.5t-232 -85.5q-141 0 -231 85.5t-90 221.5zM213 1145q0 -82 48 -132t126 -50t126 50t48 132q0 79 -48 127.5t-126 48.5t-126 -48.5t-48 -127.5z" />
<glyph unicode="&#xbb;" d="M98 90q0 3 6 12l199 322q6 12 6 20q0 14 -6 23l-199 326l-4 12q0 7 13 14l112 66q9 6 15 6q8 0 14 -12l248 -416l4 -12l-4 -13l-248 -422q-6 -12 -14 -12q-6 0 -15 6l-112 66q-15 9 -15 14zM508 90q0 3 6 12l199 322q6 12 6 20q0 14 -6 23l-199 326l-4 12q0 8 12 14 l113 66q9 6 14 6q9 0 15 -12l247 -416l4 -12l-4 -13l-247 -422q-6 -12 -15 -12q-5 0 -14 6l-113 66q-14 8 -14 14z" />
<glyph unicode="&#xbc;" horiz-adv-x="1368" d="M82 1233v104q0 20 20 29l285 98q4 0 10 1q6 2 8 0.5t2.5 -3t0.5 -9.5v-2.5v-2.5v-743q0 -12 -3 -15.5t-16 -3.5h-123q-12 0 -15 3.5t-3 15.5v538q0 17 -4 21t-17 0l-125 -43q-10 -6 -15 -3.5t-5 15.5zM186 51l811 1405q9 15 27 6l88 -51q17 -10 8 -29l-811 -1405 q-9 -15 -26 -6l-88 52q-18 11 -9 28zM610 147l535 660q6 6 10 6q8 0 8 -8v-533q0 -13 3.5 -16.5t17.5 -3.5h61q13 0 17 -4t4 -17v-81q0 -14 -4 -17.5t-17 -3.5h-61q-14 0 -17.5 -3.5t-3.5 -16.5v-72q0 -14 -3.5 -17.5t-16.5 -3.5h-103q-13 0 -16.5 3.5t-3.5 17.5v72 q0 13 -3.5 16.5t-17.5 3.5h-374q-30 0 -15 18zM862 260q0 -6 12 -6h125q14 0 17.5 3.5t3.5 16.5v175q0 20 -12 4l-138 -179q-8 -8 -8 -14z" />
<glyph unicode="&#xbd;" horiz-adv-x="1449" d="M82 1233v104q0 20 20 29l285 98q4 0 10 1q6 2 8 0.5t2.5 -3t0.5 -9.5v-2.5v-2.5v-743q0 -12 -3 -15.5t-16 -3.5h-123q-12 0 -15 3.5t-3 15.5v538q0 17 -4 21t-17 0l-125 -43q-10 -6 -15 -3.5t-5 15.5zM186 51l811 1405q9 15 27 6l88 -51q17 -10 8 -29l-811 -1405 q-9 -15 -26 -6l-88 52q-18 11 -9 28zM811 25q0 4 4 8l2 6l234 252q76 86 107.5 135.5t31.5 97.5q0 127 -115 127q-51 0 -79.5 -31t-28.5 -88q0 -13 -3.5 -16.5t-17.5 -3.5h-110q-14 0 -17.5 3.5t-3.5 16.5q0 121 69.5 192t194.5 71q129 0 199 -70t70 -193q0 -132 -179 -317 l-45 -45q-6 -6 -6 -10q0 -6 10 -6h187q13 0 16.5 -3.5t3.5 -17.5v-96q0 -14 -3.5 -17.5t-16.5 -3.5h-496q-8 0 -8 9z" />
<glyph unicode="&#xbe;" horiz-adv-x="1529" d="M102 913q0 13 4 17t17 4h104q13 0 17 -4t4 -17q0 -44 38 -75t89 -31q125 0 125 102q0 48 -32 75.5t-93 27.5h-68q-13 0 -16.5 3t-3.5 17v92q0 14 3.5 17.5t16.5 3.5h53q109 0 109 86q0 47 -27.5 74.5t-74.5 27.5q-96 0 -105 -88q0 -13 -3 -16.5t-17 -3.5h-99 q-13 0 -16.5 3.5t-3.5 16.5q4 100 73 159.5t179 59.5q111 0 178 -61t67 -143.5t-67 -133.5q-7 -8 -7 -12t7 -10q104 -70 104 -191q0 -110 -75 -175.5t-207 -65.5q-123 0 -198 66t-75 175zM348 51l811 1405q9 15 27 6l88 -51q17 -10 8 -29l-811 -1405q-9 -15 -27 -6l-88 52 q-17 10 -8 28zM772 147l535 660q6 6 10 6q8 0 8 -8v-533q0 -13 3.5 -16.5t17.5 -3.5h61q13 0 16.5 -3.5t3.5 -17.5v-81q0 -14 -3.5 -17.5t-16.5 -3.5h-61q-14 0 -17.5 -3.5t-3.5 -16.5v-72q0 -14 -3.5 -17.5t-16.5 -3.5h-103q-13 0 -16.5 3.5t-3.5 17.5v72q0 13 -3.5 16.5 t-17.5 3.5h-375q-29 0 -14 18zM1024 260q0 -6 12 -6h125q14 0 17.5 3.5t3.5 16.5v175q0 10 -4 10q-6 0 -9 -6l-137 -179q-8 -8 -8 -14z" />
<glyph unicode="&#xbf;" horiz-adv-x="860" d="M49 307q0 63 25 122.5t62 103t81 91.5t81 88t62 92t25 105v117q0 13 4.5 17t18.5 4h98q12 0 15.5 -3.5t8.5 -17.5q15 -44 15 -156q0 -61 -22 -117.5t-55 -97t-71.5 -83.5t-71.5 -78.5t-55 -79.5t-22 -88q0 -176 172 -176q190 0 190 215q0 20 21 20h137q18 0 18 -18v-33 q0 -164 -95.5 -261.5t-274.5 -97.5q-175 0 -271 88.5t-96 243.5zM317 1329q0 54 36.5 91.5t90.5 37.5q38 3 70 -20.5t46.5 -57.5t9 -73.5t-34.5 -65.5q-26 -29 -65.5 -35t-74 8t-58 45.5t-20.5 69.5z" />
<glyph unicode="&#xc0;" horiz-adv-x="1150" d="M33 8q0 10 2 12l528 1436q1 8 10 8t11 -8l532 -1436q2 -2 2 -12q0 -8 -16 -8h-178q-21 0 -27 20l-82 216q-6 20 -27 20h-438q-20 0 -26 -20l-76 -216q-6 -20 -27 -20h-172q-16 0 -16 8zM207.5 1827.5q2.5 3.5 17.5 3.5h197q18 0 33 -21l196 -254q14 -20 -4 -20h-145 q-17 0 -37 20l-248 254q-12 14 -9.5 17.5zM397 449q6 -9 13 -9h321q14 0 14 6l-2 5q-2 4 -2 10l-159 446q-4 6 -12 6t-13 -6l-156 -446z" />
<glyph unicode="&#xc1;" horiz-adv-x="1150" d="M33 8q0 10 2 12l528 1436q1 8 10 8t11 -8l532 -1436q2 -2 2 -12q0 -8 -16 -8h-178q-21 0 -27 20l-82 216q-6 20 -27 20h-438q-20 0 -26 -20l-76 -216q-6 -20 -27 -20h-172q-16 0 -16 8zM397 449q6 -9 13 -9h321q14 0 14 6l-2 5q-2 4 -2 10l-159 446q-4 6 -12 6t-13 -6 l-156 -446zM492 1556l196 254q15 21 33 21h197q15 0 17.5 -3.5t-9.5 -17.5l-248 -254q-20 -20 -37 -20h-145q-18 0 -4 20z" />
<glyph unicode="&#xc2;" horiz-adv-x="1150" d="M33 8q0 10 2 12l528 1436q1 8 10 8t11 -8l532 -1436q2 -2 2 -12q0 -8 -16 -8h-178q-21 0 -27 20l-82 216q-6 20 -27 20h-438q-20 0 -26 -20l-76 -216q-6 -20 -27 -20h-172q-16 0 -16 8zM242 1556l213 254q18 21 39 21h155q24 0 39 -21l221 -254q16 -20 -6 -20h-127 q-15 0 -35 20l-153 154q-4 4 -12 4t-13 -4l-149 -154q-20 -20 -35 -20h-131q-22 0 -6 20zM397 449q6 -9 13 -9h321q14 0 14 6l-2 5q-2 4 -2 10l-159 446q-4 6 -12 6t-13 -6l-156 -446z" />
<glyph unicode="&#xc3;" horiz-adv-x="1150" d="M33 8q0 10 2 12l528 1436q1 8 10 8t11 -8l532 -1436q2 -2 2 -12q0 -8 -16 -8h-178q-21 0 -27 20l-82 216q-6 20 -27 20h-438q-20 0 -26 -20l-76 -216q-6 -20 -27 -20h-172q-16 0 -16 8zM248 1581v29q0 87 52 143.5t138 56.5q52 0 96.5 -19t69.5 -41t52.5 -41t48.5 -19 q30 0 49.5 19.5t19.5 51.5v23q0 12 4 16t17 4h90q13 0 16.5 -4t3.5 -16v-31q0 -88 -48.5 -143.5t-133.5 -55.5q-57 0 -102.5 17.5t-67.5 42.5t-49 43q-40 30 -82.5 13.5t-42.5 -68.5v-21q0 -12 -4 -16t-17 -4h-90q-13 0 -16.5 4t-3.5 16zM397 449q6 -9 13 -9h321q14 0 14 6 l-2 5q-2 4 -2 10l-159 446q-4 6 -12 6t-13 -6l-156 -446z" />
<glyph unicode="&#xc4;" horiz-adv-x="1150" d="M33 8q0 10 2 12l528 1436q1 8 10 8t11 -8l532 -1436q2 -2 2 -12q0 -8 -16 -8h-178q-21 0 -27 20l-82 216q-6 20 -27 20h-438q-20 0 -26 -20l-76 -216q-6 -20 -27 -20h-172q-16 0 -16 8zM242 1681q0 51 36.5 88t86.5 37q49 0 85.5 -36.5t36.5 -86.5t-36.5 -87t-85.5 -37 q-51 0 -87 34.5t-36 87.5zM397 449q6 -9 13 -9h321q14 0 14 6l-2 5q-2 4 -2 10l-159 446q-4 6 -12 6t-13 -6l-156 -446zM664 1681q0 51 35.5 88t86.5 37q49 0 86 -37.5t37 -85.5q0 -47 -38 -85.5t-85 -38.5q-51 0 -86.5 34.5t-35.5 87.5z" />
<glyph unicode="&#xc5;" horiz-adv-x="1150" d="M33 8q0 10 2 12l528 1436q1 8 10 8t11 -8l532 -1436q2 -2 2 -12q0 -8 -16 -8h-178q-21 0 -27 20l-82 216q-6 20 -27 20h-438q-20 0 -26 -20l-76 -216q-6 -20 -27 -20h-172q-16 0 -16 8zM389 1702q0 80 53.5 134t132.5 54q77 0 132 -55t55 -131q0 -78 -54.5 -133 t-132.5 -55q-80 0 -133 51.5t-53 134.5zM397 449q6 -9 13 -9h321q14 0 14 6l-2 5q-2 4 -2 10l-159 446q-4 6 -12 6t-13 -6l-156 -446zM491 1701q0 -32 24 -57.5t60 -25.5q35 0 59.5 24.5t24.5 61.5q0 35 -25.5 59.5t-57.5 24.5t-62 -25q-23 -30 -23 -62z" />
<glyph unicode="&#xc6;" horiz-adv-x="1564" d="M2 8q0 10 2 12l621 1393q9 21 28 21h789q13 0 16.5 -3.5t3.5 -17.5v-147q0 -14 -3.5 -17.5t-16.5 -3.5h-502q-14 0 -17 -3.5t-3 -16.5v-506q0 -14 3.5 -17.5t16.5 -3.5h492q14 0 17 -3t3 -17v-146q0 -14 -3 -17t-17 -3h-492q-14 0 -17 -3t-3 -17v-283q0 -14 3.5 -17.5 t16.5 -3.5h512q14 0 17.5 -3.5t3.5 -16.5v-148q0 -13 -3.5 -16.5t-17.5 -3.5h-709q-13 0 -16.5 3t-3.5 17v216q0 13 -3.5 16.5t-17.5 3.5h-368q-21 0 -27 -20l-94 -216q-6 -20 -27 -20h-168q-16 0 -16 8zM397 449q0 -9 19 -9h286q14 0 17.5 4t3.5 17v690q0 8 -10 8 q-12 0 -15 -6l-297 -692z" />
<glyph unicode="&#xc7;" horiz-adv-x="1273" d="M94 717q0 311 201 524q204 213 536 213q165 0 328 -82q17 -10 17 -20v-219q0 -15 -9 -15q-6 0 -10 4q-133 133 -326 133q-240 0 -378 -159q-138 -156 -138 -379q0 -222 138 -381q140 -158 378 -158q193 0 326 133q4 4 10 4q9 0 9 -14v-219q0 -11 -17 -21 q-158 -79 -334 -79q-10 0 -10 -9q0 -7 6 -10q90 -59 90 -162q0 -98 -65 -165.5t-162 -67.5q-99 0 -152 39q-13 10 -10 24l17 88q3 23 22 11q50 -33 103 -33q45 0 72.5 28t27.5 80q0 44 -35.5 71.5t-91.5 27.5q-29 0 -43 -2t-17 3t-2 25l13 66q3 17 -15 24q-219 70 -350 263 q-129 193 -129 434z" />
<glyph unicode="&#xc8;" horiz-adv-x="1048" d="M150 20v1393q0 14 3.5 17.5t16.5 3.5h764q13 0 16.5 -3.5t3.5 -17.5v-147q0 -14 -3.5 -17.5t-16.5 -3.5h-563q-14 0 -17.5 -3.5t-3.5 -16.5v-506q0 -13 4 -17t17 -4h542q14 0 17.5 -3.5t3.5 -16.5v-146q0 -13 -3.5 -16.5t-17.5 -3.5h-542q-14 0 -17.5 -3.5t-3.5 -16.5 v-283q0 -13 4 -17t17 -4h573q14 0 17.5 -3.5t3.5 -16.5v-148q0 -13 -3.5 -16.5t-17.5 -3.5h-774q-14 0 -17 3t-3 17zM316.5 1827.5q2.5 3.5 17.5 3.5h196q18 0 33 -21l197 -254q14 -20 -4 -20h-146q-17 0 -37 20l-247 254q-12 14 -9.5 17.5z" />
<glyph unicode="&#xc9;" horiz-adv-x="1048" d="M150 20v1393q0 14 3.5 17.5t16.5 3.5h764q13 0 16.5 -3.5t3.5 -17.5v-147q0 -14 -3.5 -17.5t-16.5 -3.5h-563q-14 0 -17.5 -3.5t-3.5 -16.5v-506q0 -13 4 -17t17 -4h542q14 0 17.5 -3.5t3.5 -16.5v-146q0 -13 -3.5 -16.5t-17.5 -3.5h-542q-14 0 -17.5 -3.5t-3.5 -16.5 v-283q0 -13 4 -17t17 -4h573q14 0 17.5 -3.5t3.5 -16.5v-148q0 -13 -3.5 -16.5t-17.5 -3.5h-774q-14 0 -17 3t-3 17zM393 1556l197 254q15 21 33 21h196q15 0 17.5 -3.5t-9.5 -17.5l-247 -254q-20 -20 -37 -20h-146q-18 0 -4 20z" />
<glyph unicode="&#xca;" horiz-adv-x="1048" d="M150 20v1393q0 14 3.5 17.5t16.5 3.5h764q13 0 16.5 -3.5t3.5 -17.5v-147q0 -14 -3.5 -17.5t-16.5 -3.5h-563q-14 0 -17.5 -3.5t-3.5 -16.5v-506q0 -13 4 -17t17 -4h542q14 0 17.5 -3.5t3.5 -16.5v-146q0 -13 -3.5 -16.5t-17.5 -3.5h-542q-14 0 -17.5 -3.5t-3.5 -16.5 v-283q0 -13 4 -17t17 -4h573q14 0 17.5 -3.5t3.5 -16.5v-148q0 -13 -3.5 -16.5t-17.5 -3.5h-774q-14 0 -17 3t-3 17zM190 1556l213 254q18 21 39 21h156q24 0 39 -21l221 -254q16 -20 -6 -20h-127q-15 0 -35 20l-153 154q-5 4 -13 4t-12 -4l-150 -154q-20 -20 -34 -20h-131 q-23 0 -7 20z" />
<glyph unicode="&#xcb;" horiz-adv-x="1048" d="M150 20v1393q0 14 3.5 17.5t16.5 3.5h764q13 0 16.5 -3.5t3.5 -17.5v-147q0 -14 -3.5 -17.5t-16.5 -3.5h-563q-14 0 -17.5 -3.5t-3.5 -16.5v-506q0 -13 4 -17t17 -4h542q14 0 17.5 -3.5t3.5 -16.5v-146q0 -13 -3.5 -16.5t-17.5 -3.5h-542q-14 0 -17.5 -3.5t-3.5 -16.5 v-283q0 -13 4 -17t17 -4h573q14 0 17.5 -3.5t3.5 -16.5v-148q0 -13 -3.5 -16.5t-17.5 -3.5h-774q-14 0 -17 3t-3 17zM231 1681q0 51 36.5 88t86.5 37t86.5 -37t36.5 -86q0 -50 -37 -87t-86 -37q-51 0 -87 34.5t-36 87.5zM653 1681q0 51 36 88t87 37q49 0 86 -37.5t37 -85.5 q0 -47 -38 -85.5t-85 -38.5q-51 0 -87 34.5t-36 87.5z" />
<glyph unicode="&#xcc;" horiz-adv-x="495" d="M-72.5 1827.5q2.5 3.5 17.5 3.5h196q18 0 33 -21l197 -254q14 -20 -4 -20h-146q-17 0 -37 20l-247 254q-12 14 -9.5 17.5zM147 20v1393q0 13 3.5 17t17.5 4h160q13 0 16.5 -3.5t3.5 -17.5v-1393q0 -14 -3 -17t-17 -3h-160q-14 0 -17.5 3.5t-3.5 16.5z" />
<glyph unicode="&#xcd;" horiz-adv-x="495" d="M129 1556l197 254q15 21 32 21h197q15 0 17.5 -3.5t-9.5 -17.5l-248 -254q-20 -20 -36 -20h-146q-18 0 -4 20zM147 20v1393q0 13 3.5 17t17.5 4h160q13 0 16.5 -3.5t3.5 -17.5v-1393q0 -14 -3 -17t-17 -3h-160q-14 0 -17.5 3.5t-3.5 16.5z" />
<glyph unicode="&#xce;" horiz-adv-x="495" d="M-86 1556l213 254q18 21 39 21h156q23 0 38 -21l222 -254q16 -20 -7 -20h-126q-15 0 -35 20l-154 154q-4 4 -12 4t-12 -4l-150 -154q-20 -20 -35 -20h-131q-22 0 -6 20zM147 20v1393q0 13 3.5 17t17.5 4h160q13 0 16.5 -3.5t3.5 -17.5v-1393q0 -14 -3 -17t-17 -3h-160 q-14 0 -17.5 3.5t-3.5 16.5z" />
<glyph unicode="&#xcf;" horiz-adv-x="495" d="M-86 1681q0 51 36.5 88t86.5 37q49 0 86 -37t37 -86q0 -50 -37 -87t-86 -37q-51 0 -87 34.5t-36 87.5zM147 20v1393q0 13 3.5 17t17.5 4h160q13 0 16.5 -3.5t3.5 -17.5v-1393q0 -14 -3 -17t-17 -3h-160q-14 0 -17.5 3.5t-3.5 16.5zM336 1681q0 51 36 88t87 37 q49 0 86 -37.5t37 -85.5q0 -47 -38 -85.5t-85 -38.5q-51 0 -87 34.5t-36 87.5z" />
<glyph unicode="&#xd0;" horiz-adv-x="1288" d="M23 547v131q0 13 4 16.5t16 3.5h86q13 0 17 4t4 17v694q0 14 3.5 17.5t16.5 3.5h334q229 0 389 -97q146 -90 223.5 -252t77.5 -368q0 -230 -104.5 -407.5t-292.5 -256.5q-130 -53 -312 -53h-315q-14 0 -17 3t-3 17v494q-3 12 -21 12h-86q-13 0 -16.5 3.5t-3.5 17.5z M350 207q0 -13 4 -17t17 -4h116q184 0 287 74q197 138 197 457q0 324 -189 457q-101 73 -297 73h-114q-14 0 -17.5 -3.5t-3.5 -16.5v-508q0 -13 4 -17t17 -4h198q14 0 17.5 -3.5t3.5 -16.5v-131q0 -13 -4 -17t-17 -4h-198q-14 0 -17.5 -3.5t-3.5 -16.5v-299z" />
<glyph unicode="&#xd1;" horiz-adv-x="1208" d="M137 20v1430q0 13 6.5 14t14.5 -10l690 -907q6 -6 14 -6q17 0 17 12v860q0 14 3.5 17.5t16.5 3.5h152q13 0 16.5 -3.5t3.5 -17.5v-1429q0 -15 -6 -15q-3 0 -14 11l-691 907q-6 6 -14 6q-16 0 -16 -12v-861q0 -13 -3.5 -16.5t-17.5 -3.5h-151q-14 0 -17.5 3.5t-3.5 16.5z M291 1581v29q0 87 52 143.5t138 56.5q52 0 96.5 -19t69.5 -41t52.5 -41t48.5 -19q30 0 49.5 19.5t19.5 51.5v23q0 12 4 16t17 4h90q13 0 16.5 -4t3.5 -16v-31q0 -88 -48.5 -143.5t-133.5 -55.5q-57 0 -102.5 17.5t-67.5 42.5t-49 43q-40 30 -82.5 13.5t-42.5 -68.5v-21 q0 -12 -4 -16t-17 -4h-90q-13 0 -16.5 4t-3.5 16z" />
<glyph unicode="&#xd2;" horiz-adv-x="1622" d="M94 717q0 302 209 520q208 217 508 217t508 -217q209 -218 209 -520t-209 -520q-208 -217 -508 -217t-508 217q-209 218 -209 520zM315 717q0 -221 142 -381q143 -158 354 -158t354 158q142 160 142 381q0 222 -142 379q-141 159 -354 159t-354 -159q-142 -157 -142 -379 zM514.5 1827.5q2.5 3.5 17.5 3.5h197q18 0 33 -21l196 -254q14 -20 -4 -20h-145q-17 0 -37 20l-248 254q-12 14 -9.5 17.5z" />
<glyph unicode="&#xd3;" horiz-adv-x="1622" d="M94 717q0 302 209 520q208 217 508 217t508 -217q209 -218 209 -520t-209 -520q-208 -217 -508 -217t-508 217q-209 218 -209 520zM315 717q0 -221 142 -381q143 -158 354 -158t354 158q142 160 142 381q0 222 -142 379q-141 159 -354 159t-354 -159q-142 -157 -142 -379 zM690 1556l197 254q15 21 33 21h196q15 0 17.5 -3.5t-9.5 -17.5l-247 -254q-20 -20 -37 -20h-146q-18 0 -4 20z" />
<glyph unicode="&#xd4;" horiz-adv-x="1622" d="M94 717q0 302 209 520q208 217 508 217t508 -217q209 -218 209 -520t-209 -520q-208 -217 -508 -217t-508 217q-209 218 -209 520zM315 717q0 -221 142 -381q143 -158 354 -158t354 158q142 160 142 381q0 222 -142 379q-141 159 -354 159t-354 -159q-142 -157 -142 -379 zM477 1556l213 254q18 21 39 21h156q24 0 39 -21l221 -254q6 -9 6 -14q0 -6 -12 -6h-127q-15 0 -35 20l-154 154q-5 4 -12 4t-12 -4l-150 -154q-20 -20 -35 -20h-131q-22 0 -6 20z" />
<glyph unicode="&#xd5;" horiz-adv-x="1622" d="M94 717q0 302 209 520q208 217 508 217t508 -217q209 -218 209 -520t-209 -520q-208 -217 -508 -217t-508 217q-209 218 -209 520zM315 717q0 -221 142 -381q143 -158 354 -158t354 158q142 160 142 381q0 222 -142 379q-141 159 -354 159t-354 -159q-142 -157 -142 -379 zM483 1581v29q0 86 52.5 143t138.5 57q52 0 96.5 -19t69 -41t52 -41t48.5 -19q30 0 50 19.5t20 51.5v23q0 12 3.5 16t16.5 4h90q13 0 17 -4t4 -16v-31q0 -88 -49 -143.5t-134 -55.5q-57 0 -102.5 17.5t-67.5 42.5t-49 43q-40 30 -82.5 13.5t-42.5 -68.5v-21q0 -12 -3.5 -16 t-16.5 -4h-90q-13 0 -17 4t-4 16z" />
<glyph unicode="&#xd6;" horiz-adv-x="1622" d="M94 717q0 302 209 520q208 217 508 217t508 -217q209 -218 209 -520t-209 -520q-208 -217 -508 -217t-508 217q-209 218 -209 520zM315 717q0 -221 142 -381q143 -158 354 -158t354 158q142 160 142 381q0 222 -142 379q-141 159 -354 159t-354 -159q-142 -157 -142 -379 zM477 1681q0 51 36.5 88t86.5 37t86.5 -37t36.5 -86q0 -50 -37 -87t-86 -37q-51 0 -87 34.5t-36 87.5zM899 1681q0 51 36 88t87 37q49 0 86 -37.5t37 -85.5q0 -47 -38 -85.5t-85 -38.5q-51 0 -87 34.5t-36 87.5z" />
<glyph unicode="&#xd7;" d="M122 194q0 6 11 17l260 260q15 15 0 29l-260 260q-11 10 -11 14t11 14l76 76q11 10 15 10t14 -10l260 -260q10 -10 14 -10t14 10l260 260q10 10 14 10t15 -10l76 -76q11 -10 11 -14t-11 -14l-260 -260q-11 -10 -11 -14t11 -15l260 -260q11 -11 11 -15t-11 -14l-76 -76 q-11 -10 -15 -10t-14 10l-260 261q-14 14 -28 0l-260 -261q-10 -10 -16.5 -10t-12.5 10l-76 76q-11 6 -11 12z" />
<glyph unicode="&#xd8;" horiz-adv-x="1622" d="M94 717q0 302 209 520q208 217 508 217q259 0 461 -172l139 139q13 13 25 0l80 -80q12 -12 0 -24l-144 -143q156 -200 156 -457q0 -302 -209 -520q-208 -217 -508 -217q-268 0 -461 172l-139 -140q-13 -12 -25 0l-80 80q-12 12 0 25l142 141q-154 207 -154 459zM315 717 q0 -154 78 -295q8 -11 19 0l704 704q6 6 6 9q0 4 -6 10q-125 110 -305 110q-213 0 -354 -159q-142 -157 -142 -379zM500 299q0 -4 6 -10q126 -111 305 -111q211 0 354 158q142 160 142 381q0 160 -78 295q-8 11 -19 0l-704 -705q-6 -6 -6 -8z" />
<glyph unicode="&#xd9;" horiz-adv-x="1265" d="M147 449v964q0 13 3.5 17t17.5 4h162q13 0 16.5 -3.5t3.5 -17.5v-926q0 -164 71 -238.5t214 -74.5q144 0 212 73t68 240v926q0 13 3.5 17t17.5 4h162q13 0 16.5 -3.5t3.5 -17.5v-964q0 -223 -131 -346t-352 -123q-223 0 -355.5 123.5t-132.5 345.5zM330.5 1827.5 q2.5 3.5 17.5 3.5h197q18 0 33 -21l196 -254q14 -20 -4 -20h-145q-17 0 -37 20l-248 254q-12 14 -9.5 17.5z" />
<glyph unicode="&#xda;" horiz-adv-x="1265" d="M147 449v964q0 13 3.5 17t17.5 4h162q13 0 16.5 -3.5t3.5 -17.5v-926q0 -164 71 -238.5t214 -74.5q144 0 212 73t68 240v926q0 13 3.5 17t17.5 4h162q13 0 16.5 -3.5t3.5 -17.5v-964q0 -223 -131 -346t-352 -123q-223 0 -355.5 123.5t-132.5 345.5zM487 1556l197 254 q15 21 33 21h196q15 0 18 -3.5t-9 -17.5l-248 -254q-20 -20 -37 -20h-145q-19 0 -5 20z" />
<glyph unicode="&#xdb;" horiz-adv-x="1265" d="M147 449v964q0 13 3.5 17t17.5 4h162q13 0 16.5 -3.5t3.5 -17.5v-926q0 -164 71 -238.5t214 -74.5q144 0 212 73t68 240v926q0 13 3.5 17t17.5 4h162q13 0 16.5 -3.5t3.5 -17.5v-964q0 -223 -131 -346t-352 -123q-223 0 -355.5 123.5t-132.5 345.5zM299 1556l213 254 q18 21 39 21h156q23 0 38 -21l222 -254q16 -20 -6 -20h-127q-15 0 -35 20l-154 154q-5 4 -12 4t-12 -4l-150 -154q-20 -20 -35 -20h-131q-22 0 -6 20z" />
<glyph unicode="&#xdc;" horiz-adv-x="1265" d="M147 449v964q0 13 3.5 17t17.5 4h162q13 0 16.5 -3.5t3.5 -17.5v-926q0 -164 71 -238.5t214 -74.5q144 0 212 73t68 240v926q0 13 3.5 17t17.5 4h162q13 0 16.5 -3.5t3.5 -17.5v-964q0 -223 -131 -346t-352 -123q-223 0 -355.5 123.5t-132.5 345.5zM299 1681 q0 51 36.5 88t86.5 37t86.5 -37t36.5 -86q0 -50 -37 -87t-86 -37q-51 0 -87 34.5t-36 87.5zM721 1681q0 51 36 88t87 37q49 0 86 -37.5t37 -85.5q0 -47 -38 -85.5t-85 -38.5q-51 0 -87 34.5t-36 87.5z" />
<glyph unicode="&#xdd;" horiz-adv-x="1122" d="M25 1425q0 9 12 9h203q17 0 26 -21l285 -465q1 -6 10 -6t10 6l287 465q12 21 27 21h200q13 0 13 -9l-4 -12l-432 -690v-703q0 -13 -3.5 -16.5t-17.5 -3.5h-160q-13 0 -16.5 3t-3.5 17v703l-432 690zM420 1556l196 254q15 21 33 21h197q15 0 17.5 -3.5t-9.5 -17.5 l-248 -254q-20 -20 -37 -20h-145q-18 0 -4 20z" />
<glyph unicode="&#xde;" horiz-adv-x="1077" d="M145 20v1393q0 13 3.5 17t17.5 4h160q13 0 16.5 -3.5t3.5 -17.5v-229q0 -14 4 -17.5t17 -3.5h180q203 0 323 -129q123 -126 123 -317q0 -192 -123 -318q-121 -127 -323 -127h-180q-14 0 -17.5 -3.5t-3.5 -16.5v-232q0 -14 -3 -17t-17 -3h-160q-14 0 -17.5 3.5t-3.5 16.5z M346 479q0 -13 3.5 -16.5t17.5 -3.5h188q101 0 163 73t62 185t-62 186t-163 74h-188q-13 0 -17 -3.5t-4 -17.5v-477z" />
<glyph unicode="&#xdf;" horiz-adv-x="1116" d="M127 20v1162q0 187 103 286t284 99q171 0 275 -101t104 -272q0 -135 -141 -276q-4 -4 -4 -9q0 -7 10 -10q276 -111 276 -430q0 -214 -129 -352q-128 -137 -368 -137h-29q-13 0 -17 4t-4 16v123q0 12 4 16t17 4h29q151 0 230 84.5t79 241.5q0 228 -184 295q-44 18 -146 18 h-39q-13 0 -16.5 4t-3.5 17v123q0 12 3.5 16t16.5 4h66q67 12 119 88q51 74 51 162q0 93 -54 150t-145 57q-207 0 -207 -240v-1143q0 -12 -3.5 -16t-16.5 -4h-140q-13 0 -16.5 4t-3.5 16z" />
<glyph unicode="&#xe0;" horiz-adv-x="954" d="M66 287q0 145 98 227q104 84 246 84q140 0 233 -72q2 -2 8 -2q8 0 8 15v47q0 178 -213 178q-129 0 -213 -66q-6 -8 -14 -6.5t-8 17.5v125q0 14 16 24q80 57 236 57q373 0 373 -327v-568q0 -12 -4 -16t-17 -4h-129q-13 0 -16.5 4t-3.5 16v70q0 4 -9 4q-6 0 -8 -2 q-87 -112 -239 -112q-143 0 -244 79q-100 81 -100 228zM172.5 1327.5q2.5 3.5 17.5 3.5h197q19 0 33 -20l196 -254q15 -21 -4 -21h-145q-16 0 -37 21l-248 254q-12 13 -9.5 16.5zM242 293q0 -74 54.5 -120t147.5 -46q85 0 148 57t63 125q0 62 -61 104t-150 42 q-91 0 -146.5 -45t-55.5 -117z" />
<glyph unicode="&#xe1;" horiz-adv-x="954" d="M66 287q0 145 98 227q104 84 246 84q140 0 233 -72q2 -2 8 -2q8 0 8 15v47q0 178 -213 178q-129 0 -213 -66q-6 -8 -14 -6.5t-8 17.5v125q0 14 16 24q80 57 236 57q373 0 373 -327v-568q0 -12 -4 -16t-17 -4h-129q-13 0 -16.5 4t-3.5 16v70q0 4 -9 4q-6 0 -8 -2 q-87 -112 -239 -112q-143 0 -244 79q-100 81 -100 228zM242 293q0 -74 54.5 -120t147.5 -46q85 0 148 57t63 125q0 62 -61 104t-150 42q-91 0 -146.5 -45t-55.5 -117zM354 1057l197 254q14 20 33 20h196q15 0 17.5 -3.5t-9.5 -16.5l-247 -254q-21 -21 -37 -21h-146 q-19 0 -4 21z" />
<glyph unicode="&#xe2;" horiz-adv-x="954" d="M66 287q0 145 98 227q104 84 246 84q140 0 233 -72q2 -2 8 -2q8 0 8 15v47q0 178 -213 178q-129 0 -213 -66q-6 -8 -14 -6.5t-8 17.5v125q0 14 16 24q80 57 236 57q373 0 373 -327v-568q0 -12 -4 -16t-17 -4h-129q-13 0 -16.5 4t-3.5 16v70q0 4 -9 4q-6 0 -8 -2 q-87 -112 -239 -112q-143 0 -244 79q-100 81 -100 228zM156 1057l213 254q17 20 39 20h155q25 0 39 -20l221 -254q17 -21 -6 -21h-127q-14 0 -35 21l-153 153q-4 4 -12 4t-13 -4l-149 -153q-21 -21 -35 -21h-131q-23 0 -6 21zM242 293q0 -74 54.5 -120t147.5 -46 q85 0 148 57t63 125q0 62 -61 104t-150 42q-91 0 -146.5 -45t-55.5 -117z" />
<glyph unicode="&#xe3;" horiz-adv-x="954" d="M66 287q0 145 98 227q104 84 246 84q140 0 233 -72q2 -2 8 -2q8 0 8 15v47q0 178 -213 178q-129 0 -213 -66q-6 -8 -14 -6.5t-8 17.5v125q0 14 16 24q80 57 236 57q373 0 373 -327v-568q0 -12 -4 -16t-17 -4h-129q-13 0 -16.5 4t-3.5 16v70q0 4 -9 4q-6 0 -8 -2 q-87 -112 -239 -112q-143 0 -244 79q-100 81 -100 228zM178 1081v29q0 87 52.5 144t138.5 57q52 0 96.5 -19t69 -41.5t52 -41.5t48.5 -19q30 0 50 20t20 52v22q0 13 3.5 17t16.5 4h90q13 0 17 -4.5t4 -16.5v-31q0 -88 -49 -143t-134 -55q-57 0 -102.5 17t-67.5 42t-49 43 q-40 30 -82.5 13.5t-42.5 -68.5v-21q0 -12 -3.5 -16t-16.5 -4h-90q-13 0 -17 4t-4 16zM242 293q0 -74 54.5 -120t147.5 -46q85 0 148 57t63 125q0 62 -61 104t-150 42q-91 0 -146.5 -45t-55.5 -117z" />
<glyph unicode="&#xe4;" horiz-adv-x="954" d="M66 287q0 145 98 227q104 84 246 84q140 0 233 -72q2 -2 8 -2q8 0 8 15v47q0 178 -213 178q-129 0 -213 -66q-6 -8 -14 -6.5t-8 17.5v125q0 14 16 24q80 57 236 57q373 0 373 -327v-568q0 -12 -4 -16t-17 -4h-129q-13 0 -16.5 4t-3.5 16v70q0 4 -9 4q-6 0 -8 -2 q-87 -112 -239 -112q-143 0 -244 79q-100 81 -100 228zM172 1184q0 51 36.5 88t86.5 37q49 0 86 -36.5t37 -86.5t-37 -87.5t-86 -37.5q-51 0 -87 35t-36 88zM242 293q0 -74 54.5 -120t147.5 -46q85 0 148 57t63 125q0 62 -61 104t-150 42q-91 0 -146.5 -45t-55.5 -117z M594 1184q0 51 36 88t87 37q49 0 86 -37.5t37 -85.5q0 -47 -38 -86t-85 -39q-51 0 -87 35t-36 88z" />
<glyph unicode="&#xe5;" horiz-adv-x="954" d="M66 287q0 145 98 227q104 84 246 84q140 0 233 -72q2 -2 8 -2q8 0 8 15v47q0 178 -213 178q-129 0 -213 -66q-6 -8 -14 -6.5t-8 17.5v125q0 14 16 24q80 57 236 57q373 0 373 -327v-568q0 -12 -4 -16t-17 -4h-129q-13 0 -16.5 4t-3.5 16v70q0 4 -9 4q-6 0 -8 -2 q-87 -112 -239 -112q-143 0 -244 79q-100 81 -100 228zM242 293q0 -74 54.5 -120t147.5 -46q85 0 148 57t63 125q0 62 -61 104t-150 42q-91 0 -146.5 -45t-55.5 -117zM322 1204q0 80 53.5 134.5t132.5 54.5q77 0 131.5 -55.5t54.5 -131.5q0 -78 -54 -133t-132 -55 q-80 0 -133 51.5t-53 134.5zM423 1203.5q0 -32.5 24.5 -58t60.5 -25.5q35 0 59.5 24.5t24.5 61.5q0 35 -25.5 60t-58 25t-62.5 -25q-23 -30 -23 -62.5z" />
<glyph unicode="&#xe6;" horiz-adv-x="1544" d="M61 276q0 145 93 235.5t252 90.5q133 0 221 -70q2 -2 8 -2q8 0 8 17v39q0 178 -215 178q-120 0 -211 -66l-12 -4q-10 0 -10 15v125q0 14 16 24q80 57 238 57q118 0 193 -48t103 -119q9 -8 17 0q124 167 311 167q196 0 297 -131q100 -129 100 -335v-60q0 -12 -3.5 -16 t-16.5 -4h-598q-14 0 -18.5 -3.5t-4.5 -15.5q11 -98 83.5 -152.5t193.5 -54.5q72 0 148.5 24.5t107.5 61.5q9 9 12 9q8 0 8 -21v-141q0 -16 -16 -29q-88 -67 -260 -67q-240 0 -371 165q0 5 -8 5q-5 0 -8 -3q-130 -167 -342 -167q-145 0 -230.5 84.5t-85.5 211.5zM246 295 q0 -164 188 -164q94 0 149.5 55.5t55.5 128.5q0 65 -58 106.5t-147 41.5q-84 0 -136 -45t-52 -123zM819 537q0 -13 3.5 -17t17.5 -4h428q20 0 20 12v9q-24 219 -227 219q-96 0 -163 -62t-79 -157z" />
<glyph unicode="&#xe7;" horiz-adv-x="843" d="M66 449q0 200 131 331q132 135 333 135q125 0 218 -43q16 -6 16 -20v-168q0 -14 -8 -14q-1 0 -4.5 1.5t-6.5 2.5q-78 78 -210 78q-129 0 -207 -84t-78 -219q0 -137 76.5 -221.5t208.5 -84.5q142 0 219 86q2 2 8 2q8 0 8 -14v-170q0 -14 -16 -20q-61 -32 -174 -45 q-7 -1 -7.5 -8.5t5.5 -8.5q90 -59 90 -164q0 -98 -65.5 -165.5t-162.5 -67.5q-98 0 -151 39q-13 10 -10 24l16 88q3 23 22 11q50 -33 103 -33q45 0 72.5 28t27.5 80q0 44 -35 71.5t-92 27.5q-29 0 -43 -2t-18 4t0 24l14 72q3 13 -10 18q-125 54 -197.5 168.5t-72.5 260.5z " />
<glyph unicode="&#xe8;" horiz-adv-x="991" d="M74 449q0 197 119 331q120 135 307 135q196 0 307 -135q111 -132 111 -331v-58q0 -12 -4 -16t-17 -4h-608q-14 0 -18.5 -3.5t-4.5 -15.5q11 -98 85.5 -153.5t197.5 -55.5q64 0 147 25q79 24 113 61q9 9 12 9q8 0 8 -21v-141q0 -16 -16 -29q-88 -67 -264 -67 q-230 0 -352 131q-123 132 -123 338zM213.5 1327.5q2.5 3.5 17.5 3.5h197q19 0 33 -20l196 -254q15 -21 -4 -21h-145q-16 0 -37 21l-248 254q-12 13 -9.5 16.5zM256 535q0 -14 3.5 -17.5t16.5 -3.5h439q16 0 19 3.5t1 17.5q-12 101 -72.5 160t-162.5 59q-97 0 -164.5 -62 t-79.5 -157z" />
<glyph unicode="&#xe9;" horiz-adv-x="991" d="M74 449q0 197 119 331q120 135 307 135q196 0 307 -135q111 -132 111 -331v-58q0 -12 -4 -16t-17 -4h-608q-14 0 -18.5 -3.5t-4.5 -15.5q11 -98 85.5 -153.5t197.5 -55.5q64 0 147 25q79 24 113 61q9 9 12 9q8 0 8 -21v-141q0 -16 -16 -29q-88 -67 -264 -67 q-230 0 -352 131q-123 132 -123 338zM256 535q0 -14 3.5 -17.5t16.5 -3.5h439q16 0 19 3.5t1 17.5q-12 101 -72.5 160t-162.5 59q-97 0 -164.5 -62t-79.5 -157zM379 1057l196 254q14 20 33 20h197q15 0 17.5 -3.5t-9.5 -16.5l-248 -254q-21 -21 -37 -21h-145q-19 0 -4 21z " />
<glyph unicode="&#xea;" horiz-adv-x="991" d="M74 449q0 197 119 331q120 135 307 135q196 0 307 -135q111 -132 111 -331v-58q0 -12 -4 -16t-17 -4h-608q-14 0 -18.5 -3.5t-4.5 -15.5q11 -98 85.5 -153.5t197.5 -55.5q64 0 147 25q79 24 113 61q9 9 12 9q8 0 8 -21v-141q0 -16 -16 -29q-88 -67 -264 -67 q-230 0 -352 131q-123 132 -123 338zM170 1057l213 254q17 20 39 20h156q24 0 38 -20l222 -254q7 -7 5.5 -14t-12.5 -7h-126q-14 0 -35 21l-154 153q-4 4 -12 4t-12 -4l-150 -153q-21 -21 -35 -21h-131q-23 0 -6 21zM256 535q0 -14 3.5 -17.5t16.5 -3.5h439q16 0 19 3.5 t1 17.5q-12 101 -72.5 160t-162.5 59q-97 0 -164.5 -62t-79.5 -157z" />
<glyph unicode="&#xeb;" horiz-adv-x="991" d="M74 449q0 197 119 331q120 135 307 135q196 0 307 -135q111 -132 111 -331v-58q0 -12 -4 -16t-17 -4h-608q-14 0 -18.5 -3.5t-4.5 -15.5q11 -98 85.5 -153.5t197.5 -55.5q64 0 147 25q79 24 113 61q9 9 12 9q8 0 8 -21v-141q0 -16 -16 -29q-88 -67 -264 -67 q-230 0 -352 131q-123 132 -123 338zM170 1184q0 51 36.5 88t86.5 37q49 0 86 -36.5t37 -86.5t-37 -87.5t-86 -37.5q-51 0 -87 35t-36 88zM256 535q0 -14 3.5 -17.5t16.5 -3.5h439q16 0 19 3.5t1 17.5q-12 101 -72.5 160t-162.5 59q-97 0 -164.5 -62t-79.5 -157zM592 1184 q0 51 36 88t87 37q49 0 86 -37.5t37 -85.5q0 -47 -38 -86t-85 -39q-51 0 -87 35t-36 88z" />
<glyph unicode="&#xec;" horiz-adv-x="458" d="M-44 1325.5q-2 3.5 1.5 5.5t17.5 2h191q16 0 33 -20l168 -256l6 -10l4 -5v-2q0 -4 -15 -4h-118q-16 0 -37 21l-240 256q-9 9 -11 12.5zM139 20v854q0 12 4 16.5t17 4.5h139q13 0 16.5 -4t3.5 -17v-854q0 -12 -3.5 -16t-16.5 -4h-139q-13 0 -17 4t-4 16z" />
<glyph unicode="&#xed;" horiz-adv-x="458" d="M82 1040v2q8 8 10 15l168 256q17 20 33 20h190q19 0 20.5 -4t-11.5 -16l-240 -256q-21 -21 -37 -21h-119q-14 0 -14 4zM139 20v854q0 12 4 16.5t17 4.5h139q13 0 16.5 -4t3.5 -17v-854q0 -12 -3.5 -16t-16.5 -4h-139q-13 0 -17 4t-4 16z" />
<glyph unicode="&#xee;" horiz-adv-x="458" d="M-43 1057l168 256q17 20 39 20h123q25 0 39 -20l176 -256q17 -21 -6 -21h-117q-14 0 -35 21l-102 143q-4 4 -12 4t-13 -4l-98 -143q-21 -21 -35 -21h-121q-23 0 -6 21zM139 20v854q0 12 4 16.5t17 4.5h139q13 0 16.5 -4t3.5 -17v-854q0 -12 -3.5 -16t-16.5 -4h-139 q-13 0 -17 4t-4 16z" />
<glyph unicode="&#xef;" horiz-adv-x="458" d="M-58.5 1215q5.5 37 35.5 61q24 30 60 35.5t67 -9t53 -44.5t21 -64q0 -47 -36 -84t-83 -37q-34 -2 -64 20t-44.5 53.5t-9 68.5zM139 20v854q0 12 4 16.5t17 4.5h139q13 0 16.5 -4t3.5 -17v-854q0 -12 -3.5 -16t-16.5 -4h-139q-13 0 -17 4t-4 16zM281 1192q0 50 34.5 85.5 t83.5 35.5q47 0 83 -37t36 -82q0 -47 -36 -84t-83 -37q-49 0 -83.5 34.5t-34.5 84.5z" />
<glyph unicode="&#xf0;" horiz-adv-x="1075" d="M66 449q0 194 127 327q129 135 327 135q100 0 174 -39q3 -1 4.5 0.5t1.5 6.5q0 6 -2 8q-76 143 -180 268q-12 15 -31 6l-192 -108q-18 -11 -27 8l-49 90q-10 16 6 29l162 90q12 6 12 12q0 4 -8 12q-82 86 -168 150q-16 12 -2 26l76 76q11 11 27 2q91 -67 200 -176 q14 -14 33 -4l193 111q17 10 26 -9l58 -92q9 -15 -7 -28l-155 -88q-21 -12 -6 -27q322 -377 331 -776v-10q0 -195 -137 -332q-134 -137 -328 -137q-192 0 -329 137t-137 332zM250 449q0 -128 78 -218q79 -88 204 -88q126 0 203.5 87t77.5 219q0 130 -79 216.5t-202 86.5 q-125 0 -204 -88q-78 -90 -78 -215z" />
<glyph unicode="&#xf1;" horiz-adv-x="1036" d="M131 20v854q0 14 3.5 17.5t17.5 3.5h139q13 0 16.5 -4t3.5 -17v-81q0 -5 8 -5q6 0 9 3q70 69 127.5 96.5t140.5 27.5q322 0 322 -346v-549q0 -12 -4 -16t-17 -4h-139q-13 0 -17 4t-4 16v508q0 224 -184 224q-107 0 -174.5 -71.5t-67.5 -191.5v-469q0 -12 -3.5 -16 t-16.5 -4h-139q-13 0 -17 4t-4 16zM193 1081v29q0 87 52 144t138 57q52 0 96.5 -19t69 -41.5t52 -41.5t48.5 -19q30 0 50 20t20 52v22q0 13 3.5 17t16.5 4h90q13 0 17 -4.5t4 -16.5v-31q0 -88 -48.5 -143t-133.5 -55q-57 0 -102.5 17t-67.5 42t-49 43q-40 30 -82.5 13.5 t-42.5 -68.5v-21q0 -12 -4 -16t-17 -4h-90q-13 0 -16.5 4t-3.5 16z" />
<glyph unicode="&#xf2;" horiz-adv-x="1062" d="M66 449q0 192 137 329t329 137q194 0 328 -137q137 -137 137 -329q0 -195 -137 -332q-134 -137 -328 -137q-192 0 -329 137t-137 332zM199.5 1327.5q2.5 3.5 17.5 3.5h197q18 0 32 -20l197 -254q15 -21 -4 -21h-145q-16 0 -37 21l-248 254q-12 13 -9.5 16.5zM250 449 q0 -128 78 -218q79 -88 204 -88q126 0 203.5 87t77.5 219q0 130 -79 216.5t-202 86.5q-125 0 -204 -88q-78 -90 -78 -215z" />
<glyph unicode="&#xf3;" horiz-adv-x="1062" d="M66 449q0 192 137 329t329 137q194 0 328 -137q137 -137 137 -329q0 -195 -137 -332q-134 -137 -328 -137q-192 0 -329 137t-137 332zM250 449q0 -128 78 -218q79 -88 204 -88q126 0 203.5 87t77.5 219q0 130 -79 216.5t-202 86.5q-125 0 -204 -88q-78 -90 -78 -215z M446 1057l197 254q14 20 33 20h196q15 0 18 -3.5t-9 -16.5l-248 -254q-21 -21 -37 -21h-145q-20 0 -5 21z" />
<glyph unicode="&#xf4;" horiz-adv-x="1062" d="M66 449q0 192 137 329t329 137q194 0 328 -137q137 -137 137 -329q0 -195 -137 -332q-134 -137 -328 -137q-192 0 -329 137t-137 332zM197 1057l213 254q17 20 39 20h155q25 0 39 -20l221 -254q17 -21 -6 -21h-127q-14 0 -35 21l-153 153q-5 4 -13 4t-12 -4l-149 -153 q-21 -21 -35 -21h-131q-23 0 -6 21zM250 449q0 -128 78 -218q79 -88 204 -88q126 0 203.5 87t77.5 219q0 130 -79 216.5t-202 86.5q-125 0 -204 -88q-78 -90 -78 -215z" />
<glyph unicode="&#xf5;" horiz-adv-x="1062" d="M66 449q0 192 137 329t329 137q194 0 328 -137q137 -137 137 -329q0 -195 -137 -332q-134 -137 -328 -137q-192 0 -329 137t-137 332zM205 1081v29q0 87 52 144t138 57q52 0 96.5 -19t69.5 -41.5t52.5 -41.5t48.5 -19q30 0 49.5 20t19.5 52v22q0 12 4 16.5t17 4.5h90 q13 0 16.5 -4t3.5 -17v-31q0 -88 -48.5 -143t-133.5 -55q-57 0 -102.5 17t-67.5 42t-49 43q-40 30 -82.5 13.5t-42.5 -68.5v-21q0 -12 -4 -16t-17 -4h-90q-13 0 -16.5 4t-3.5 16zM250 449q0 -128 78 -218q79 -88 204 -88q126 0 203.5 87t77.5 219q0 130 -79 216.5t-202 86.5 q-125 0 -204 -88q-78 -90 -78 -215z" />
<glyph unicode="&#xf6;" horiz-adv-x="1062" d="M66 449q0 192 137 329t329 137q194 0 328 -137q137 -137 137 -329q0 -195 -137 -332q-134 -137 -328 -137q-192 0 -329 137t-137 332zM199 1184q0 51 36.5 88t86.5 37q49 0 85.5 -36.5t36.5 -86.5t-36.5 -87.5t-85.5 -37.5q-51 0 -87 35t-36 88zM250 449q0 -128 78 -218 q79 -88 204 -88q126 0 203.5 87t77.5 219q0 130 -79 216.5t-202 86.5q-125 0 -204 -88q-78 -90 -78 -215zM621 1184q0 51 35.5 88t86.5 37q49 0 86 -37.5t37 -85.5q0 -47 -38 -86t-85 -39q-50 0 -86 35t-36 88z" />
<glyph unicode="&#xf7;" d="M76 432v111q0 12 3.5 16t16.5 4h840q13 0 16.5 -4t3.5 -16v-111q0 -12 -3.5 -16t-16.5 -4h-840q-13 0 -16.5 4t-3.5 16zM387 127q0 53 37 90q37 38 90 38t90 -38q37 -37 36.5 -88.5t-38.5 -89.5q-37 -38 -88.5 -38.5t-89.5 36.5q-37 37 -37 90zM387 838q0 53 37 90 q37 38 90 38t90 -38q37 -37 36.5 -88.5t-38.5 -89.5q-37 -38 -88.5 -38.5t-89.5 36.5q-37 37 -37 90z" />
<glyph unicode="&#xf8;" horiz-adv-x="1062" d="M66 449q0 192 137 329t329 137q158 0 287 -102l82 82q6 6 12 6q4 0 13 -6l51 -51q13 -12 0 -25l-82 -82q102 -129 102 -288q0 -195 -137 -332q-134 -137 -328 -137q-165 0 -290 104l-84 -84q-6 -6 -13 -6q-3 0 -12 6l-51 51q-12 13 0 25l84 84q-100 124 -100 289z M250 449q0 -95 41 -166l411 411q-70 58 -170 58q-128 0 -204 -88q-78 -90 -78 -215zM356 201q70 -58 176 -58q126 0 203.5 87t77.5 219q0 89 -43 165z" />
<glyph unicode="&#xf9;" horiz-adv-x="966" d="M111 342v532q0 13 3.5 17t16.5 4h139q13 0 17 -4.5t4 -16.5v-520q0 -101 52 -156t140 -55t140.5 55t52.5 156v520q0 13 3.5 17t16.5 4h140q13 0 16.5 -4t3.5 -17v-532q0 -162 -99 -262t-274 -100t-273.5 100t-98.5 262zM164.5 1327.5q2.5 3.5 17.5 3.5h197q19 0 33 -20 l196 -254q15 -21 -4 -21h-145q-16 0 -37 21l-248 254q-12 13 -9.5 16.5z" />
<glyph unicode="&#xfa;" horiz-adv-x="966" d="M111 342v532q0 13 3.5 17t16.5 4h139q13 0 17 -4.5t4 -16.5v-520q0 -101 52 -156t140 -55t140.5 55t52.5 156v520q0 13 3.5 17t16.5 4h140q13 0 16.5 -4t3.5 -17v-532q0 -162 -99 -262t-274 -100t-273.5 100t-98.5 262zM354 1057l197 254q14 20 33 20h196q15 0 17.5 -3.5 t-9.5 -16.5l-247 -254q-21 -21 -37 -21h-146q-19 0 -4 21z" />
<glyph unicode="&#xfb;" horiz-adv-x="966" d="M111 342v532q0 13 3.5 17t16.5 4h139q13 0 17 -4.5t4 -16.5v-520q0 -101 52 -156t140 -55t140.5 55t52.5 156v520q0 13 3.5 17t16.5 4h140q13 0 16.5 -4t3.5 -17v-532q0 -162 -99 -262t-274 -100t-273.5 100t-98.5 262zM139.5 1043q-1.5 7 5.5 14l213 254q17 20 39 20 h156q25 0 39 -20l221 -254q17 -21 -6 -21h-127q-14 0 -35 21l-153 153q-4 4 -12 4t-13 -4l-150 -153q-21 -21 -34 -21h-131q-11 0 -12.5 7z" />
<glyph unicode="&#xfc;" horiz-adv-x="966" d="M111 342v532q0 13 3.5 17t16.5 4h139q13 0 17 -4.5t4 -16.5v-520q0 -101 52 -156t140 -55t140.5 55t52.5 156v520q0 13 3.5 17t16.5 4h140q13 0 16.5 -4t3.5 -17v-532q0 -162 -99 -262t-274 -100t-273.5 100t-98.5 262zM147 1184q0 51 36.5 88t86.5 37t86.5 -36.5 t36.5 -86.5t-37 -87.5t-86 -37.5q-51 0 -87 35t-36 88zM569 1184q0 51 36 88t87 37q49 0 86 -37.5t37 -85.5q0 -47 -38 -86t-85 -39q-51 0 -87 35t-36 88z" />
<glyph unicode="&#xfd;" horiz-adv-x="927" d="M16 887q0 8 19 8h158q17 0 26 -21l238 -604q1 -6 8 -6t8 6l240 604q9 21 26 21h154q18 0 18 -8q-1 -1 -1.5 -3t-1 -5t-1.5 -5l-530 -1304q-9 -21 -27 -21h-151q-19 0 -19 9l4 12l181 446q1 2 1 11t-1 10l-345 837zM375 1057l196 254q14 20 33 20h197q15 0 17.5 -3.5 t-9.5 -16.5l-248 -254q-21 -21 -37 -21h-145q-19 0 -4 21z" />
<glyph unicode="&#xfe;" horiz-adv-x="1126" d="M131 -430v1946q0 12 4 16t17 4h139q13 0 16.5 -4t3.5 -16v-723q0 -5 8 -5q6 0 9 3q118 124 288 124q191 0 316 -137q129 -135 129 -329t-129 -332q-125 -137 -316 -137q-170 0 -288 124q-2 2 -9 2q-8 0 -8 -4v-532q0 -13 -3.5 -17t-16.5 -4h-139q-13 0 -17 4.5t-4 16.5z M311 449q0 -129 80 -218q79 -88 205 -88q127 0 203 88q78 90 78 218q0 126 -80 215q-76 88 -201 88q-126 0 -205 -88q-80 -89 -80 -215z" />
<glyph unicode="&#xff;" horiz-adv-x="927" d="M16 887q0 8 19 8h158q17 0 26 -21l238 -604q1 -6 8 -6t8 6l240 604q9 21 26 21h154q18 0 18 -8q-1 -1 -1.5 -3t-1 -5t-1.5 -5l-530 -1304q-9 -21 -27 -21h-151q-19 0 -19 9l4 12l181 446q1 2 1 11t-1 10l-345 837zM137 1184q0 51 36.5 88t86.5 37t86.5 -36.5t36.5 -86.5 t-37 -87.5t-86 -37.5q-51 0 -87 35t-36 88zM559 1184q0 51 36 88t87 37q49 0 86 -37.5t37 -85.5q0 -47 -38 -86t-85 -39q-51 0 -87 35t-36 88z" />
<glyph unicode="&#x152;" horiz-adv-x="1615" d="M94 717q0 305 187 510q189 207 485 207h735q13 0 17 -4t4 -17v-143q0 -14 -4 -17.5t-17 -3.5h-506q-13 0 -16.5 -3.5t-3.5 -16.5v-512q0 -14 3.5 -17.5t16.5 -3.5h496q13 0 16.5 -3t3.5 -17v-144q0 -14 -3.5 -17t-16.5 -3h-496q-13 0 -16.5 -3t-3.5 -17v-287 q0 -14 3.5 -17.5t16.5 -3.5h516q14 0 17.5 -3.5t3.5 -16.5v-144q0 -13 -3.5 -16.5t-17.5 -3.5h-731q-300 0 -493 205t-193 512zM303 717q0 -225 121 -379t330 -154q13 0 16.5 3.5t3.5 17.5v1024q0 13 -3 16.5t-17 3.5q-210 0 -330 -153q-121 -154 -121 -379z" />
<glyph unicode="&#x153;" horiz-adv-x="1730" d="M66 449q0 192 137 329t329 137q109 0 205.5 -47.5t159.5 -132.5q125 180 342 180q200 0 309 -133t109 -333v-62q0 -12 -4 -16t-17 -4h-608q-14 0 -18 -3.5t-4 -15.5q11 -97 85 -151t197 -54q65 0 148 25q77 23 112 61q9 9 13 9q8 0 8 -21v-149q0 -7 -17 -21 q-88 -67 -264 -67q-258 0 -389 180q-143 -180 -367 -180q-192 0 -329 137t-137 332zM250 449q0 -128 78 -218q79 -88 204 -88q126 0 203.5 87t77.5 219q0 131 -79 217t-202 86q-125 0 -204 -88q-78 -90 -78 -215zM995 539q0 -13 3.5 -17t17.5 -4h438q17 0 20 3.5t1 17.5 q-12 99 -72.5 156t-163.5 57q-98 0 -165.5 -60t-78.5 -153z" />
<glyph unicode="&#x178;" horiz-adv-x="1122" d="M25 1425q0 9 12 9h203q17 0 26 -21l285 -465q1 -6 10 -6t10 6l287 465q12 21 27 21h200q13 0 13 -9l-4 -12l-432 -690v-703q0 -13 -3.5 -16.5t-17.5 -3.5h-160q-13 0 -16.5 3t-3.5 17v703l-432 690zM227 1642q0 51 36.5 88t86.5 37t86.5 -36.5t36.5 -85.5 q0 -50 -37 -87.5t-86 -37.5q-51 0 -87 34.5t-36 87.5zM649 1642q0 51 36 88t87 37q49 0 86 -37t37 -85q0 -47 -38 -86t-85 -39q-51 0 -87 34.5t-36 87.5z" />
<glyph unicode="&#x2c6;" d="M178 1057l213 254q17 20 39 20h156q25 0 39 -20l221 -254q17 -21 -6 -21h-127q-14 0 -35 21l-154 153q-4 4 -12 4t-12 -4l-150 -153q-21 -21 -35 -21h-131q-23 0 -6 21z" />
<glyph unicode="&#x2dc;" d="M182 1081v29q0 87 52.5 144t138.5 57q52 0 96.5 -19t69 -41.5t52 -41.5t48.5 -19q30 0 50 20t20 52v22q0 13 3.5 17t16.5 4h90q13 0 17 -4.5t4 -16.5v-31q0 -88 -49 -143t-134 -55q-57 0 -102.5 17t-67.5 42t-49 43q-40 30 -82.5 13.5t-42.5 -68.5v-21q0 -12 -3.5 -16 t-16.5 -4h-90q-13 0 -17 4t-4 16z" />
<glyph unicode="&#x2000;" horiz-adv-x="945" />
<glyph unicode="&#x2001;" horiz-adv-x="1890" />
<glyph unicode="&#x2002;" horiz-adv-x="945" />
<glyph unicode="&#x2003;" horiz-adv-x="1890" />
<glyph unicode="&#x2004;" horiz-adv-x="630" />
<glyph unicode="&#x2005;" horiz-adv-x="472" />
<glyph unicode="&#x2006;" horiz-adv-x="315" />
<glyph unicode="&#x2007;" horiz-adv-x="315" />
<glyph unicode="&#x2008;" horiz-adv-x="236" />
<glyph unicode="&#x2009;" horiz-adv-x="378" />
<glyph unicode="&#x200a;" horiz-adv-x="105" />
<glyph unicode="&#x2010;" horiz-adv-x="614" d="M102 492v122q0 13 4.5 17t16.5 4h369q13 0 16.5 -3.5t3.5 -17.5v-122q0 -14 -3.5 -17.5t-16.5 -3.5h-369q-13 0 -17 3.5t-4 17.5z" />
<glyph unicode="&#x2011;" horiz-adv-x="614" d="M102 492v122q0 13 4.5 17t16.5 4h369q13 0 16.5 -3.5t3.5 -17.5v-122q0 -14 -3.5 -17.5t-16.5 -3.5h-369q-13 0 -17 3.5t-4 17.5z" />
<glyph unicode="&#x2012;" horiz-adv-x="614" d="M102 492v122q0 13 4.5 17t16.5 4h369q13 0 16.5 -3.5t3.5 -17.5v-122q0 -14 -3.5 -17.5t-16.5 -3.5h-369q-13 0 -17 3.5t-4 17.5z" />
<glyph unicode="&#x2013;" horiz-adv-x="999" d="M45 504v106q0 13 4.5 17t16.5 4h868q13 0 16.5 -3.5t3.5 -17.5v-106q0 -14 -3.5 -17.5t-16.5 -3.5h-868q-14 0 -17.5 3.5t-3.5 17.5z" />
<glyph unicode="&#x2014;" horiz-adv-x="1667" d="M152 504v106q0 13 4 17t16 4h1323q13 0 17 -3.5t4 -17.5v-106q0 -14 -4 -17.5t-17 -3.5h-1323q-13 0 -16.5 3.5t-3.5 17.5z" />
<glyph unicode="&#x2018;" horiz-adv-x="409" d="M82 1012l117 401q1 1 2 4q5 15 13 16l9 1h88q17 0 17 -21l-45 -401q-3 -21 -23 -21h-160q-21 0 -18 21z" />
<glyph unicode="&#x2019;" horiz-adv-x="409" d="M80 1012l45 401q3 21 22 21h160q22 0 19 -21l-117 -401q-3 -8 -4 -10.5t-4 -6t-6.5 -4t-10.5 -0.5h-88q-16 0 -16 21z" />
<glyph unicode="&#x201a;" horiz-adv-x="409" d="M80 -223l45 401q3 21 22 21h160q22 0 19 -21l-117 -401q-3 -8 -4 -10.5t-4 -6t-6.5 -4t-10.5 -0.5h-88q-16 0 -16 21z" />
<glyph unicode="&#x201c;" horiz-adv-x="716" d="M82 1012l117 401q1 1 2 4q5 15 13 16l9 1h88q17 0 17 -21l-45 -401q-3 -21 -23 -21h-160q-21 0 -18 21zM389 1012l117 401q7 18 12 20q4 1 12 1h88q17 0 17 -21l-45 -401q-3 -21 -23 -21h-159q-22 0 -19 21z" />
<glyph unicode="&#x201d;" horiz-adv-x="716" d="M80 1012l45 401q3 21 22 21h160q22 0 19 -21l-117 -401q-3 -8 -4 -10.5t-4 -6t-6.5 -4t-10.5 -0.5h-88q-16 0 -16 21zM387 1012l45 401q3 21 23 21h159q22 0 19 -21l-117 -401q-1 -1 -2 -4q-5 -15 -13 -16l-9 -1h-89q-16 0 -16 21z" />
<glyph unicode="&#x201e;" horiz-adv-x="716" d="M82 -223l45 401q3 21 23 21h159q22 0 19 -21l-117 -401q-3 -8 -4 -10.5t-4 -6t-6.5 -4t-10.5 -0.5h-88q-16 0 -16 21zM389 -223l45 401q3 21 23 21h159q22 0 19 -21l-117 -401q-7 -18 -12 -20q-4 -1 -12 -1h-88q-17 0 -17 21z" />
<glyph unicode="&#x2022;" horiz-adv-x="1099" d="M248 653q0 125 88 213q90 90 215 90q126 0 213 -90q88 -88 88 -213q0 -129 -88 -217q-85 -88 -213 -88q-127 0 -215 88t-88 217z" />
<glyph unicode="&#x2026;" horiz-adv-x="1398" d="M125.5 127.5q5.5 39.5 34.5 65.5q26 29 65.5 35t73.5 -8.5t57.5 -46t20.5 -69.5q0 -54 -36.5 -91.5t-90.5 -37.5q-38 -3 -70 20.5t-46 58t-8.5 74zM573.5 127.5q5.5 39.5 34.5 65.5q26 29 65.5 35t73.5 -8.5t57.5 -46t20.5 -69.5q0 -54 -36.5 -91.5t-90.5 -37.5 q-38 -3 -70 20.5t-46 58t-8.5 74zM1024.5 127.5q5.5 39.5 34.5 65.5q26 29 65.5 35t73.5 -8.5t57.5 -46t20.5 -69.5q0 -54 -36.5 -91.5t-90.5 -37.5q-38 -3 -70 20.5t-46 58t-8.5 74z" />
<glyph unicode="&#x202f;" horiz-adv-x="378" />
<glyph unicode="&#x2039;" horiz-adv-x="614" d="M109 451l4 12l247 416q6 12 15 12q5 0 14 -6l113 -66q12 -6 12 -14l-4 -12l-199 -326q-6 -9 -6 -23q0 -8 6 -20l199 -322q6 -9 6 -12q0 -6 -14 -14l-113 -66q-9 -6 -14 -6q-9 0 -15 12l-247 422z" />
<glyph unicode="&#x203a;" horiz-adv-x="614" d="M98 90q0 3 6 12l199 322q6 12 6 20q0 14 -6 23l-199 326l-4 12q0 7 13 14l112 66q9 6 15 6q8 0 14 -12l248 -416l4 -12l-4 -13l-248 -422q-6 -12 -14 -12q-6 0 -15 6l-112 66q-15 9 -15 14z" />
<glyph unicode="&#x205f;" horiz-adv-x="472" />
<glyph unicode="&#x20ac;" horiz-adv-x="1153" d="M82 516v98q0 13 3.5 17t16.5 4h103q13 0 16.5 3.5t3.5 16.5v103q0 14 -3.5 17t-16.5 3h-103q-13 0 -16.5 4t-3.5 17v98q0 13 3.5 17t16.5 4h113q23 0 23 16q15 231 153 375q139 145 369 145q146 0 309 -82q16 -10 16 -20v-187q0 -14 -8 -14q-6 0 -10 4q-127 127 -307 127 q-150 0 -235.5 -95t-90.5 -259q0 -10 21 -10h327q13 0 17 -4.5t4 -16.5v-98q0 -12 -4 -16.5t-17 -4.5h-336q-14 0 -17 -3t-3 -17v-103q0 -13 3 -16.5t17 -3.5h336q13 0 17 -4.5t4 -16.5v-98q0 -12 -4 -16t-17 -4h-325q-21 0 -21 -15q4 -151 93 -240t231 -89q180 0 307 127 q4 4 10 4q8 0 8 -15v-186q0 -11 -16 -21q-89 -44 -151 -61q-61 -20 -158 -20q-226 0 -367 141q-140 146 -155 371q-4 4 -17 4h-119q-13 0 -16.5 4t-3.5 16z" />
<glyph unicode="&#x2122;" horiz-adv-x="1708" d="M66 1315v98q0 14 3.5 17.5t16.5 3.5h614q14 0 17.5 -4t3.5 -17v-98q0 -13 -3.5 -17t-17.5 -4h-211q-13 0 -16.5 -3t-3.5 -17v-578q0 -14 -3.5 -17t-16.5 -3h-111q-14 0 -17.5 3.5t-3.5 16.5v578q0 14 -3.5 17t-16.5 3h-211q-13 0 -16.5 3.5t-3.5 17.5zM893 696v746 q0 14 10 14q5 0 15 -10l337 -338q8 -8 13 -8q7 0 12 8l338 338q10 10 14 10q10 0 10 -14v-746q0 -14 -3 -17t-17 -3h-109q-13 0 -16.5 3t-3.5 17v385q0 13 -16 13q-8 0 -15 -7l-178 -178q-10 -11 -16 -11t-17 11l-178 178q-7 7 -14 7q-17 0 -17 -13v-385q0 -14 -3 -17 t-17 -3h-109q-13 0 -16.5 3t-3.5 17z" />
<glyph unicode="&#x25fc;" horiz-adv-x="890" d="M0 0v891h891v-891h-891z" />
<glyph unicode="&#xfb01;" horiz-adv-x="1005" d="M49 756v118q0 12 4 16.5t17 4.5h82q14 0 17 3.5t3 16.5v334q0 320 250 320q49 0 94 -10q21 -9 21 -25v-121q0 -18 -13 -18l-8 2q-24 8 -59 8q-105 0 -105 -139v-351q0 -13 3.5 -16.5t17.5 -3.5h125q13 0 16.5 -4t3.5 -17v-118q0 -13 -3.5 -17t-16.5 -4h-125 q-14 0 -17.5 -3.5t-3.5 -16.5v-695q0 -12 -3.5 -16t-16.5 -4h-139q-13 0 -17 4t-4 16v695q0 13 -3 16.5t-17 3.5h-82q-13 0 -17 4.5t-4 16.5zM649 1210q0 53 37 90q37 38 90 38t90 -38q37 -37 36.5 -88.5t-38.5 -89.5q-37 -38 -88.5 -38.5t-89.5 36.5q-37 37 -37 90zM686 20 v854q0 12 4 16.5t17 4.5h139q13 0 16.5 -4t3.5 -17v-854q0 -12 -3.5 -16t-16.5 -4h-139q-13 0 -17 4t-4 16z" />
<glyph unicode="&#xfb02;" horiz-adv-x="1005" d="M49 756v118q0 12 4 16.5t17 4.5h82q14 0 17 3.5t3 16.5v334q0 320 250 320q49 0 94 -10q21 -9 21 -25v-121q0 -18 -13 -18l-8 2q-24 8 -59 8q-105 0 -105 -139v-351q0 -13 3.5 -16.5t17.5 -3.5h125q13 0 16.5 -4t3.5 -17v-118q0 -13 -3.5 -17t-16.5 -4h-125 q-14 0 -17.5 -3.5t-3.5 -16.5v-695q0 -12 -3.5 -16t-16.5 -4h-139q-13 0 -17 4t-4 16v695q0 13 -3 16.5t-17 3.5h-82q-13 0 -17 4.5t-4 16.5zM686 20v1496q0 12 4 16t17 4h139q13 0 16.5 -4t3.5 -16v-1496q0 -12 -3.5 -16t-16.5 -4h-139q-13 0 -17 4t-4 16z" />
<glyph unicode="&#xfb03;" horiz-adv-x="1552" d="M49 756v118q0 12 4 16.5t17 4.5h82q14 0 17 3.5t3 16.5v334q0 320 250 320q49 0 94 -10q21 -9 21 -25v-121q0 -18 -13 -18l-8 2q-24 8 -59 8q-105 0 -105 -139v-351q0 -13 3.5 -16.5t17.5 -3.5h125q13 0 16.5 -4t3.5 -17v-118q0 -13 -3.5 -17t-16.5 -4h-125 q-14 0 -17.5 -3.5t-3.5 -16.5v-695q0 -12 -3.5 -16t-16.5 -4h-139q-13 0 -17 4t-4 16v695q0 13 -3 16.5t-17 3.5h-82q-13 0 -17 4.5t-4 16.5zM596 756v118q0 13 3.5 17t16.5 4h82q14 0 17.5 3.5t3.5 16.5v334q0 320 250 320q49 0 94 -10q20 -9 20 -25v-121q0 -18 -12 -18 l-8 2q-24 8 -59 8q-105 0 -105 -139v-351q0 -13 3.5 -16.5t17.5 -3.5h124q13 0 17 -4.5t4 -16.5v-118q0 -12 -4 -16.5t-17 -4.5h-124q-14 0 -17.5 -3.5t-3.5 -16.5v-695q0 -12 -3.5 -16t-16.5 -4h-140q-13 0 -16.5 4t-3.5 16v695q0 13 -3.5 16.5t-17.5 3.5h-82 q-13 0 -16.5 4t-3.5 17zM1196 1210q0 53 37 90q37 38 90 38t90 -38q37 -37 36.5 -88.5t-38.5 -89.5q-37 -38 -88.5 -38.5t-89.5 36.5q-37 37 -37 90zM1233 20v854q0 13 3.5 17t16.5 4h140q13 0 16.5 -4t3.5 -17v-854q0 -12 -3.5 -16t-16.5 -4h-140q-13 0 -16.5 4t-3.5 16z " />
<glyph unicode="&#xfb04;" horiz-adv-x="1552" d="M49 756v118q0 12 4 16.5t17 4.5h82q14 0 17 3.5t3 16.5v334q0 320 250 320q49 0 94 -10q21 -9 21 -25v-121q0 -18 -13 -18l-8 2q-24 8 -59 8q-105 0 -105 -139v-351q0 -13 3.5 -16.5t17.5 -3.5h125q13 0 16.5 -4t3.5 -17v-118q0 -13 -3.5 -17t-16.5 -4h-125 q-14 0 -17.5 -3.5t-3.5 -16.5v-695q0 -12 -3.5 -16t-16.5 -4h-139q-13 0 -17 4t-4 16v695q0 13 -3 16.5t-17 3.5h-82q-13 0 -17 4.5t-4 16.5zM596 756v118q0 13 3.5 17t16.5 4h82q14 0 17.5 3.5t3.5 16.5v334q0 320 250 320q49 0 94 -10q20 -9 20 -25v-121q0 -18 -12 -18 l-8 2q-24 8 -59 8q-105 0 -105 -139v-351q0 -13 3.5 -16.5t17.5 -3.5h124q13 0 17 -4.5t4 -16.5v-118q0 -12 -4 -16.5t-17 -4.5h-124q-14 0 -17.5 -3.5t-3.5 -16.5v-695q0 -12 -3.5 -16t-16.5 -4h-140q-13 0 -16.5 4t-3.5 16v695q0 13 -3.5 16.5t-17.5 3.5h-82 q-13 0 -16.5 4t-3.5 17zM1233 20v1496q0 12 3.5 16t16.5 4h140q13 0 16.5 -4t3.5 -16v-1496q0 -12 -3.5 -16t-16.5 -4h-140q-13 0 -16.5 4t-3.5 16z" />
</font>
</defs>
</svg>
